M48
; DRILL file {KiCad (6.0.1-0)} date Monday, June 20, 2022 at 08:18:43 AM
; FORMAT={-:-/ absolute / metric / decimal}
; #@! TF.CreationDate,2022-06-20T08:18:43-07:00
; #@! TF.GenerationSoftware,Kicad,Pcbnew,(6.0.1-0)
; #@! TF.FileFunction,NonPlated,1,2,NPTH
FMAT,2
METRIC
; #@! TA.AperFunction,NonPlated,NPTH,ComponentDrill
T1C1.750
; #@! TA.AperFunction,NonPlated,NPTH,ComponentDrill
T2C3.000
; #@! TA.AperFunction,NonPlated,NPTH,ComponentDrill
T3C3.048
; #@! TA.AperFunction,NonPlated,NPTH,ComponentDrill
T4C3.988
%
G90
G05
T1
X18.732Y-23.812
X18.732Y-47.625
X18.732Y-85.725
X23.495Y-66.675
X28.892Y-23.812
X28.892Y-47.625
X28.892Y-85.725
X33.655Y-66.675
X37.782Y-47.625
X40.164Y-85.725
X42.545Y-23.812
X47.307Y-66.675
X47.942Y-47.625
X50.324Y-85.725
X52.705Y-23.812
X56.832Y-47.625
X57.467Y-66.675
X61.595Y-23.812
X66.358Y-66.675
X66.992Y-47.625
X71.755Y-23.812
X75.882Y-47.625
X76.517Y-66.675
X80.645Y-23.812
X80.645Y-85.725
X85.407Y-66.675
X86.042Y-47.625
X90.805Y-23.812
X90.805Y-85.725
X94.932Y-47.625
X95.567Y-66.675
X104.457Y-23.812
X104.457Y-66.675
X105.093Y-47.625
X113.983Y-47.625
X114.617Y-23.812
X114.617Y-66.675
X121.126Y-85.725
X123.507Y-23.812
X124.142Y-47.625
X131.286Y-85.725
X133.032Y-66.675
X133.667Y-23.812
X137.795Y-47.625
X142.558Y-23.812
X143.192Y-66.675
X147.32Y-90.487
X147.955Y-47.625
X152.718Y-23.812
X157.48Y-90.487
X166.37Y-71.438
X166.37Y-90.487
X176.53Y-71.438
X176.53Y-90.487
X185.42Y-90.487
X190.183Y-47.625
X190.183Y-66.675
X195.58Y-90.487
X200.343Y-47.625
X200.343Y-66.675
T2
X20.002Y-21.272
X20.002Y-45.085
X20.002Y-83.185
X24.765Y-64.135
X26.352Y-18.732
X26.352Y-42.545
X26.352Y-80.645
X31.115Y-61.595
X39.052Y-45.085
X41.434Y-83.185
X43.815Y-21.272
X45.402Y-42.545
X47.784Y-80.645
X48.578Y-64.135
X50.165Y-18.732
X54.927Y-61.595
X58.102Y-45.085
X62.865Y-21.272
X64.453Y-42.545
X67.627Y-64.135
X69.215Y-18.732
X73.977Y-61.595
X77.153Y-45.085
X81.915Y-21.272
X81.915Y-83.185
X83.502Y-42.545
X86.677Y-64.135
X88.265Y-18.732
X88.265Y-80.645
X93.027Y-61.595
X96.203Y-45.085
X102.552Y-42.545
X105.727Y-21.272
X105.727Y-64.135
X112.078Y-18.732
X112.078Y-61.595
X115.252Y-45.085
X121.602Y-42.545
X122.396Y-83.185
X124.777Y-21.272
X128.746Y-80.645
X131.127Y-18.732
X134.302Y-64.135
X139.065Y-45.085
X140.653Y-61.595
X143.827Y-21.272
X145.415Y-42.545
X148.59Y-87.947
X150.177Y-18.732
X154.94Y-85.407
X167.64Y-68.897
X167.64Y-87.947
X173.99Y-66.358
X173.99Y-85.407
X186.69Y-87.947
X191.452Y-45.085
X191.452Y-64.135
X193.04Y-85.407
X197.802Y-42.545
X197.802Y-61.595
T3
X66.675Y-78.74
X104.775Y-78.74
X126.174Y-59.69
X150.05Y-59.69
T4
X23.812Y-23.812
X23.812Y-47.625
X23.812Y-85.725
X28.575Y-66.675
X42.862Y-47.625
X45.244Y-85.725
X47.625Y-23.812
X52.387Y-66.675
X61.912Y-47.625
X66.675Y-23.812
X66.675Y-93.98
X71.438Y-66.675
X80.962Y-47.625
X85.725Y-23.812
X85.725Y-85.725
X90.487Y-66.675
X100.012Y-47.625
X104.775Y-93.98
X109.537Y-23.812
X109.537Y-66.675
X119.062Y-47.625
X126.174Y-74.93
X126.206Y-85.725
X128.588Y-23.812
X138.112Y-66.675
X142.875Y-47.625
X147.637Y-23.812
X150.05Y-74.93
X152.4Y-90.487
X171.45Y-71.438
X171.45Y-90.487
X190.5Y-90.487
X195.262Y-47.625
X195.262Y-66.675
T0
M30
