M48
; DRILL file {KiCad (6.0.1-0)} date Monday, June 20, 2022 at 08:18:43 AM
; FORMAT={-:-/ absolute / metric / decimal}
; #@! TF.CreationDate,2022-06-20T08:18:43-07:00
; #@! TF.GenerationSoftware,Kicad,Pcbnew,(6.0.1-0)
; #@! TF.FileFunction,Plated,1,2,PTH
FMAT,2
METRIC
; #@! TA.AperFunction,Plated,PTH,ViaDrill
T1C0.400
; #@! TA.AperFunction,Plated,PTH,ComponentDrill
T2C1.000
; #@! TA.AperFunction,Plated,PTH,ComponentDrill
T3C1.092
; #@! TA.AperFunction,Plated,PTH,ComponentDrill
T4C1.500
; #@! TA.AperFunction,Plated,PTH,ComponentDrill
T5C2.200
%
G90
G05
T1
X16.669Y-21.336
X16.669Y-45.085
X16.669Y-83.185
X21.495Y-64.135
X35.719Y-45.085
X38.132Y-83.185
X40.418Y-21.336
X45.244Y-64.135
X54.769Y-45.085
X59.595Y-21.336
X64.294Y-64.135
X73.819Y-45.085
X78.645Y-21.336
X78.645Y-83.312
X83.344Y-64.135
X92.869Y-45.085
X97.695Y-21.59
X102.394Y-21.209
X102.394Y-64.135
X111.919Y-45.085
X119.031Y-83.185
X121.444Y-21.209
X130.715Y-46.99
X130.969Y-64.135
X135.795Y-45.085
X140.494Y-21.209
X145.32Y-88.011
X159.544Y-27.432
X164.37Y-68.961
X164.37Y-88.011
X166.915Y-33.147
X167.672Y-31.75
X168.364Y-32.53
X177.832Y-27.432
X183.42Y-88.011
X185.737Y-53.094
X185.737Y-72.144
X186.375Y-30.25
X188.119Y-45.085
X188.119Y-64.135
X200.025Y-95.956
T2
X167.64Y-51.886
X170.18Y-51.886
X172.72Y-51.886
X175.26Y-51.886
X187.769Y-21.312
X187.769Y-23.812
X187.769Y-26.312
X202.269Y-21.312
X202.269Y-26.312
T3
X163.83Y-18.574
X163.83Y-21.114
X163.83Y-23.654
X163.83Y-26.194
X163.83Y-28.734
X163.83Y-31.274
X163.83Y-33.814
X163.83Y-36.354
X163.83Y-38.894
X163.83Y-41.434
X163.83Y-43.974
X163.83Y-46.514
X166.37Y-46.514
X168.91Y-46.514
X171.45Y-46.514
X173.99Y-46.514
X176.53Y-46.514
X179.07Y-18.574
X179.07Y-21.114
X179.07Y-23.654
X179.07Y-26.194
X179.07Y-28.734
X179.07Y-31.274
X179.07Y-33.814
X179.07Y-36.354
X179.07Y-38.894
X179.07Y-41.434
X179.07Y-43.974
X179.07Y-46.514
T5
X33.337Y-36.512
X33.337Y-76.2
X185.737Y-36.512
X185.737Y-76.2
T4
X194.619Y-18.212G85X195.919Y-18.212
G05
X194.619Y-29.412G85X195.919Y-29.412
G05
T0
M30
