G04 #@! TF.GenerationSoftware,KiCad,Pcbnew,(6.0.1-0)*
G04 #@! TF.CreationDate,2022-06-20T08:18:33-07:00*
G04 #@! TF.ProjectId,pcb,7063622e-6b69-4636-9164-5f7063625858,rev?*
G04 #@! TF.SameCoordinates,Original*
G04 #@! TF.FileFunction,Legend,Top*
G04 #@! TF.FilePolarity,Positive*
%FSLAX46Y46*%
G04 Gerber Fmt 4.6, Leading zero omitted, Abs format (unit mm)*
G04 Created by KiCad (PCBNEW (6.0.1-0)) date 2022-06-20 08:18:33*
%MOMM*%
%LPD*%
G01*
G04 APERTURE LIST*
%ADD10C,0.300000*%
%ADD11C,0.150000*%
%ADD12C,0.120000*%
%ADD13C,0.381000*%
%ADD14R,1.752600X1.752600*%
%ADD15C,1.752600*%
%ADD16C,3.000000*%
%ADD17C,3.987800*%
%ADD18C,1.750000*%
%ADD19C,4.400000*%
%ADD20R,2.000000X2.000000*%
%ADD21C,2.000000*%
%ADD22R,3.200000X2.000000*%
%ADD23C,3.048000*%
%ADD24R,1.700000X1.700000*%
%ADD25O,1.700000X1.700000*%
G04 APERTURE END LIST*
D10*
X112470892Y-39572321D02*
X112470892Y-38072321D01*
X112470892Y-38643750D02*
X112613750Y-38572321D01*
X112899464Y-38572321D01*
X113042321Y-38643750D01*
X113113750Y-38715178D01*
X113185178Y-38858035D01*
X113185178Y-39286607D01*
X113113750Y-39429464D01*
X113042321Y-39500892D01*
X112899464Y-39572321D01*
X112613750Y-39572321D01*
X112470892Y-39500892D01*
X113685178Y-38572321D02*
X114042321Y-39572321D01*
X114399464Y-38572321D02*
X114042321Y-39572321D01*
X113899464Y-39929464D01*
X113828035Y-40000892D01*
X113685178Y-40072321D01*
X116756607Y-39572321D02*
X116756607Y-38072321D01*
X116756607Y-39500892D02*
X116613750Y-39572321D01*
X116328035Y-39572321D01*
X116185178Y-39500892D01*
X116113750Y-39429464D01*
X116042321Y-39286607D01*
X116042321Y-38858035D01*
X116113750Y-38715178D01*
X116185178Y-38643750D01*
X116328035Y-38572321D01*
X116613750Y-38572321D01*
X116756607Y-38643750D01*
X118113750Y-39500892D02*
X117970892Y-39572321D01*
X117685178Y-39572321D01*
X117542321Y-39500892D01*
X117470892Y-39429464D01*
X117399464Y-39286607D01*
X117399464Y-38858035D01*
X117470892Y-38715178D01*
X117542321Y-38643750D01*
X117685178Y-38572321D01*
X117970892Y-38572321D01*
X118113750Y-38643750D01*
X118756607Y-38572321D02*
X118756607Y-40072321D01*
X118756607Y-38643750D02*
X118899464Y-38572321D01*
X119185178Y-38572321D01*
X119328035Y-38643750D01*
X119399464Y-38715178D01*
X119470892Y-38858035D01*
X119470892Y-39286607D01*
X119399464Y-39429464D01*
X119328035Y-39500892D01*
X119185178Y-39572321D01*
X118899464Y-39572321D01*
X118756607Y-39500892D01*
X120685178Y-39500892D02*
X120542321Y-39572321D01*
X120256607Y-39572321D01*
X120113750Y-39500892D01*
X120042321Y-39358035D01*
X120042321Y-38786607D01*
X120113750Y-38643750D01*
X120256607Y-38572321D01*
X120542321Y-38572321D01*
X120685178Y-38643750D01*
X120756607Y-38786607D01*
X120756607Y-38929464D01*
X120042321Y-39072321D01*
X122042321Y-39572321D02*
X122042321Y-38072321D01*
X122042321Y-39500892D02*
X121899464Y-39572321D01*
X121613750Y-39572321D01*
X121470892Y-39500892D01*
X121399464Y-39429464D01*
X121328035Y-39286607D01*
X121328035Y-38858035D01*
X121399464Y-38715178D01*
X121470892Y-38643750D01*
X121613750Y-38572321D01*
X121899464Y-38572321D01*
X122042321Y-38643750D01*
X122756607Y-39572321D02*
X122756607Y-38572321D01*
X122756607Y-38072321D02*
X122685178Y-38143750D01*
X122756607Y-38215178D01*
X122828035Y-38143750D01*
X122756607Y-38072321D01*
X122756607Y-38215178D01*
X123256607Y-38572321D02*
X123828035Y-38572321D01*
X123470892Y-38072321D02*
X123470892Y-39358035D01*
X123542321Y-39500892D01*
X123685178Y-39572321D01*
X123828035Y-39572321D01*
D11*
X189235416Y-17017261D02*
X189378273Y-17064880D01*
X189616369Y-17064880D01*
X189711607Y-17017261D01*
X189759226Y-16969642D01*
X189806845Y-16874404D01*
X189806845Y-16779166D01*
X189759226Y-16683928D01*
X189711607Y-16636309D01*
X189616369Y-16588690D01*
X189425892Y-16541071D01*
X189330654Y-16493452D01*
X189283035Y-16445833D01*
X189235416Y-16350595D01*
X189235416Y-16255357D01*
X189283035Y-16160119D01*
X189330654Y-16112500D01*
X189425892Y-16064880D01*
X189663988Y-16064880D01*
X189806845Y-16112500D01*
X190140178Y-16064880D02*
X190378273Y-17064880D01*
X190568750Y-16350595D01*
X190759226Y-17064880D01*
X190997321Y-16064880D01*
X191902083Y-17064880D02*
X191330654Y-17064880D01*
X191616369Y-17064880D02*
X191616369Y-16064880D01*
X191521130Y-16207738D01*
X191425892Y-16302976D01*
X191330654Y-16350595D01*
X164922333Y-25755654D02*
X165189000Y-26555654D01*
X165455666Y-25755654D01*
X166179476Y-26479464D02*
X166141380Y-26517559D01*
X166027095Y-26555654D01*
X165950904Y-26555654D01*
X165836619Y-26517559D01*
X165760428Y-26441369D01*
X165722333Y-26365178D01*
X165684238Y-26212797D01*
X165684238Y-26098511D01*
X165722333Y-25946130D01*
X165760428Y-25869940D01*
X165836619Y-25793750D01*
X165950904Y-25755654D01*
X166027095Y-25755654D01*
X166141380Y-25793750D01*
X166179476Y-25831845D01*
X166979476Y-26479464D02*
X166941380Y-26517559D01*
X166827095Y-26555654D01*
X166750904Y-26555654D01*
X166636619Y-26517559D01*
X166560428Y-26441369D01*
X166522333Y-26365178D01*
X166484238Y-26212797D01*
X166484238Y-26098511D01*
X166522333Y-25946130D01*
X166560428Y-25869940D01*
X166636619Y-25793750D01*
X166750904Y-25755654D01*
X166827095Y-25755654D01*
X166941380Y-25793750D01*
X166979476Y-25831845D01*
X176320523Y-29095654D02*
X176320523Y-28295654D01*
X176511000Y-28295654D01*
X176625285Y-28333750D01*
X176701476Y-28409940D01*
X176739571Y-28486130D01*
X176777666Y-28638511D01*
X176777666Y-28752797D01*
X176739571Y-28905178D01*
X176701476Y-28981369D01*
X176625285Y-29057559D01*
X176511000Y-29095654D01*
X176320523Y-29095654D01*
X177539571Y-29095654D02*
X177082428Y-29095654D01*
X177311000Y-29095654D02*
X177311000Y-28295654D01*
X177234809Y-28409940D01*
X177158619Y-28486130D01*
X177082428Y-28524226D01*
X176777666Y-36639464D02*
X176739571Y-36677559D01*
X176625285Y-36715654D01*
X176549095Y-36715654D01*
X176434809Y-36677559D01*
X176358619Y-36601369D01*
X176320523Y-36525178D01*
X176282428Y-36372797D01*
X176282428Y-36258511D01*
X176320523Y-36106130D01*
X176358619Y-36029940D01*
X176434809Y-35953750D01*
X176549095Y-35915654D01*
X176625285Y-35915654D01*
X176739571Y-35953750D01*
X176777666Y-35991845D01*
X177463380Y-35915654D02*
X177311000Y-35915654D01*
X177234809Y-35953750D01*
X177196714Y-35991845D01*
X177120523Y-36106130D01*
X177082428Y-36258511D01*
X177082428Y-36563273D01*
X177120523Y-36639464D01*
X177158619Y-36677559D01*
X177234809Y-36715654D01*
X177387190Y-36715654D01*
X177463380Y-36677559D01*
X177501476Y-36639464D01*
X177539571Y-36563273D01*
X177539571Y-36372797D01*
X177501476Y-36296607D01*
X177463380Y-36258511D01*
X177387190Y-36220416D01*
X177234809Y-36220416D01*
X177158619Y-36258511D01*
X177120523Y-36296607D01*
X177082428Y-36372797D01*
X164885008Y-45008047D02*
X164932148Y-45102328D01*
X164932148Y-45149469D01*
X164908578Y-45220179D01*
X164837867Y-45290890D01*
X164767157Y-45314460D01*
X164720016Y-45314460D01*
X164649306Y-45290890D01*
X164460744Y-45102328D01*
X164955719Y-44607353D01*
X165120710Y-44772345D01*
X165144280Y-44843056D01*
X165144280Y-44890196D01*
X165120710Y-44960907D01*
X165073570Y-45008047D01*
X165002859Y-45031617D01*
X164955719Y-45031617D01*
X164885008Y-45008047D01*
X164720016Y-44843056D01*
X165662825Y-45314460D02*
X165568544Y-45220179D01*
X165497834Y-45196609D01*
X165450693Y-45196609D01*
X165332842Y-45220179D01*
X165214991Y-45290890D01*
X165026429Y-45479452D01*
X165002859Y-45550162D01*
X165002859Y-45597303D01*
X165026429Y-45668014D01*
X165120710Y-45762294D01*
X165191421Y-45785865D01*
X165238561Y-45785865D01*
X165309272Y-45762294D01*
X165427123Y-45644443D01*
X165450693Y-45573733D01*
X165450693Y-45526592D01*
X165427123Y-45455882D01*
X165332842Y-45361601D01*
X165262132Y-45338030D01*
X165214991Y-45338030D01*
X165144280Y-45361601D01*
X165665190Y-41376607D02*
X165779476Y-41414702D01*
X165817571Y-41452797D01*
X165855666Y-41528988D01*
X165855666Y-41643273D01*
X165817571Y-41719464D01*
X165779476Y-41757559D01*
X165703285Y-41795654D01*
X165398523Y-41795654D01*
X165398523Y-40995654D01*
X165665190Y-40995654D01*
X165741380Y-41033750D01*
X165779476Y-41071845D01*
X165817571Y-41148035D01*
X165817571Y-41224226D01*
X165779476Y-41300416D01*
X165741380Y-41338511D01*
X165665190Y-41376607D01*
X165398523Y-41376607D01*
X166122333Y-40995654D02*
X166617571Y-40995654D01*
X166350904Y-41300416D01*
X166465190Y-41300416D01*
X166541380Y-41338511D01*
X166579476Y-41376607D01*
X166617571Y-41452797D01*
X166617571Y-41643273D01*
X166579476Y-41719464D01*
X166541380Y-41757559D01*
X166465190Y-41795654D01*
X166236619Y-41795654D01*
X166160428Y-41757559D01*
X166122333Y-41719464D01*
X176320523Y-31635654D02*
X176320523Y-30835654D01*
X176511000Y-30835654D01*
X176625285Y-30873750D01*
X176701476Y-30949940D01*
X176739571Y-31026130D01*
X176777666Y-31178511D01*
X176777666Y-31292797D01*
X176739571Y-31445178D01*
X176701476Y-31521369D01*
X176625285Y-31597559D01*
X176511000Y-31635654D01*
X176320523Y-31635654D01*
X177272904Y-30835654D02*
X177349095Y-30835654D01*
X177425285Y-30873750D01*
X177463380Y-30911845D01*
X177501476Y-30988035D01*
X177539571Y-31140416D01*
X177539571Y-31330892D01*
X177501476Y-31483273D01*
X177463380Y-31559464D01*
X177425285Y-31597559D01*
X177349095Y-31635654D01*
X177272904Y-31635654D01*
X177196714Y-31597559D01*
X177158619Y-31559464D01*
X177120523Y-31483273D01*
X177082428Y-31330892D01*
X177082428Y-31140416D01*
X177120523Y-30988035D01*
X177158619Y-30911845D01*
X177196714Y-30873750D01*
X177272904Y-30835654D01*
X165665190Y-43916607D02*
X165779476Y-43954702D01*
X165817571Y-43992797D01*
X165855666Y-44068988D01*
X165855666Y-44183273D01*
X165817571Y-44259464D01*
X165779476Y-44297559D01*
X165703285Y-44335654D01*
X165398523Y-44335654D01*
X165398523Y-43535654D01*
X165665190Y-43535654D01*
X165741380Y-43573750D01*
X165779476Y-43611845D01*
X165817571Y-43688035D01*
X165817571Y-43764226D01*
X165779476Y-43840416D01*
X165741380Y-43878511D01*
X165665190Y-43916607D01*
X165398523Y-43916607D01*
X166160428Y-43611845D02*
X166198523Y-43573750D01*
X166274714Y-43535654D01*
X166465190Y-43535654D01*
X166541380Y-43573750D01*
X166579476Y-43611845D01*
X166617571Y-43688035D01*
X166617571Y-43764226D01*
X166579476Y-43878511D01*
X166122333Y-44335654D01*
X166617571Y-44335654D01*
X171316666Y-45229464D02*
X171278571Y-45267559D01*
X171164285Y-45305654D01*
X171088095Y-45305654D01*
X170973809Y-45267559D01*
X170897619Y-45191369D01*
X170859523Y-45115178D01*
X170821428Y-44962797D01*
X170821428Y-44848511D01*
X170859523Y-44696130D01*
X170897619Y-44619940D01*
X170973809Y-44543750D01*
X171088095Y-44505654D01*
X171164285Y-44505654D01*
X171278571Y-44543750D01*
X171316666Y-44581845D01*
X171583333Y-44505654D02*
X172116666Y-44505654D01*
X171773809Y-45305654D01*
X165722333Y-31216607D02*
X165455666Y-31216607D01*
X165455666Y-31635654D02*
X165455666Y-30835654D01*
X165836619Y-30835654D01*
X166522333Y-30835654D02*
X166141380Y-30835654D01*
X166103285Y-31216607D01*
X166141380Y-31178511D01*
X166217571Y-31140416D01*
X166408047Y-31140416D01*
X166484238Y-31178511D01*
X166522333Y-31216607D01*
X166560428Y-31292797D01*
X166560428Y-31483273D01*
X166522333Y-31559464D01*
X166484238Y-31597559D01*
X166408047Y-31635654D01*
X166217571Y-31635654D01*
X166141380Y-31597559D01*
X166103285Y-31559464D01*
X176320523Y-21475654D02*
X176320523Y-20675654D01*
X176511000Y-20675654D01*
X176625285Y-20713750D01*
X176701476Y-20789940D01*
X176739571Y-20866130D01*
X176777666Y-21018511D01*
X176777666Y-21132797D01*
X176739571Y-21285178D01*
X176701476Y-21361369D01*
X176625285Y-21437559D01*
X176511000Y-21475654D01*
X176320523Y-21475654D01*
X177082428Y-20751845D02*
X177120523Y-20713750D01*
X177196714Y-20675654D01*
X177387190Y-20675654D01*
X177463380Y-20713750D01*
X177501476Y-20751845D01*
X177539571Y-20828035D01*
X177539571Y-20904226D01*
X177501476Y-21018511D01*
X177044333Y-21475654D01*
X177539571Y-21475654D01*
X175666666Y-45093750D02*
X175766666Y-45127083D01*
X175800000Y-45160416D01*
X175833333Y-45227083D01*
X175833333Y-45327083D01*
X175800000Y-45393750D01*
X175766666Y-45427083D01*
X175700000Y-45460416D01*
X175433333Y-45460416D01*
X175433333Y-44760416D01*
X175666666Y-44760416D01*
X175733333Y-44793750D01*
X175766666Y-44827083D01*
X175800000Y-44893750D01*
X175800000Y-44960416D01*
X175766666Y-45027083D01*
X175733333Y-45060416D01*
X175666666Y-45093750D01*
X175433333Y-45093750D01*
X176066666Y-44760416D02*
X176533333Y-44760416D01*
X176233333Y-45460416D01*
X165722333Y-33756607D02*
X165455666Y-33756607D01*
X165455666Y-34175654D02*
X165455666Y-33375654D01*
X165836619Y-33375654D01*
X166484238Y-33375654D02*
X166331857Y-33375654D01*
X166255666Y-33413750D01*
X166217571Y-33451845D01*
X166141380Y-33566130D01*
X166103285Y-33718511D01*
X166103285Y-34023273D01*
X166141380Y-34099464D01*
X166179476Y-34137559D01*
X166255666Y-34175654D01*
X166408047Y-34175654D01*
X166484238Y-34137559D01*
X166522333Y-34099464D01*
X166560428Y-34023273D01*
X166560428Y-33832797D01*
X166522333Y-33756607D01*
X166484238Y-33718511D01*
X166408047Y-33680416D01*
X166255666Y-33680416D01*
X166179476Y-33718511D01*
X166141380Y-33756607D01*
X166103285Y-33832797D01*
X165665190Y-18516607D02*
X165779476Y-18554702D01*
X165817571Y-18592797D01*
X165855666Y-18668988D01*
X165855666Y-18783273D01*
X165817571Y-18859464D01*
X165779476Y-18897559D01*
X165703285Y-18935654D01*
X165398523Y-18935654D01*
X165398523Y-18135654D01*
X165665190Y-18135654D01*
X165741380Y-18173750D01*
X165779476Y-18211845D01*
X165817571Y-18288035D01*
X165817571Y-18364226D01*
X165779476Y-18440416D01*
X165741380Y-18478511D01*
X165665190Y-18516607D01*
X165398523Y-18516607D01*
X166350904Y-18135654D02*
X166427095Y-18135654D01*
X166503285Y-18173750D01*
X166541380Y-18211845D01*
X166579476Y-18288035D01*
X166617571Y-18440416D01*
X166617571Y-18630892D01*
X166579476Y-18783273D01*
X166541380Y-18859464D01*
X166503285Y-18897559D01*
X166427095Y-18935654D01*
X166350904Y-18935654D01*
X166274714Y-18897559D01*
X166236619Y-18859464D01*
X166198523Y-18783273D01*
X166160428Y-18630892D01*
X166160428Y-18440416D01*
X166198523Y-18288035D01*
X166236619Y-18211845D01*
X166274714Y-18173750D01*
X166350904Y-18135654D01*
X173399523Y-45305654D02*
X173399523Y-44505654D01*
X173590000Y-44505654D01*
X173704285Y-44543750D01*
X173780476Y-44619940D01*
X173818571Y-44696130D01*
X173856666Y-44848511D01*
X173856666Y-44962797D01*
X173818571Y-45115178D01*
X173780476Y-45191369D01*
X173704285Y-45267559D01*
X173590000Y-45305654D01*
X173399523Y-45305654D01*
X174580476Y-44505654D02*
X174199523Y-44505654D01*
X174161428Y-44886607D01*
X174199523Y-44848511D01*
X174275714Y-44810416D01*
X174466190Y-44810416D01*
X174542380Y-44848511D01*
X174580476Y-44886607D01*
X174618571Y-44962797D01*
X174618571Y-45153273D01*
X174580476Y-45229464D01*
X174542380Y-45267559D01*
X174466190Y-45305654D01*
X174275714Y-45305654D01*
X174199523Y-45267559D01*
X174161428Y-45229464D01*
X172831395Y-18135654D02*
X173288538Y-18135654D01*
X173059967Y-18935654D02*
X173059967Y-18135654D01*
X173479014Y-18135654D02*
X174012348Y-18935654D01*
X174012348Y-18135654D02*
X173479014Y-18935654D01*
X174469491Y-18135654D02*
X174545681Y-18135654D01*
X174621872Y-18173750D01*
X174659967Y-18211845D01*
X174698062Y-18288035D01*
X174736157Y-18440416D01*
X174736157Y-18630892D01*
X174698062Y-18783273D01*
X174659967Y-18859464D01*
X174621872Y-18897559D01*
X174545681Y-18935654D01*
X174469491Y-18935654D01*
X174393300Y-18897559D01*
X174355205Y-18859464D01*
X174317110Y-18783273D01*
X174279014Y-18630892D01*
X174279014Y-18440416D01*
X174317110Y-18288035D01*
X174355205Y-18211845D01*
X174393300Y-18173750D01*
X174469491Y-18135654D01*
X175650443Y-18097559D02*
X174964729Y-19126130D01*
X175917110Y-18935654D02*
X175917110Y-18135654D01*
X176107586Y-18135654D01*
X176221872Y-18173750D01*
X176298062Y-18249940D01*
X176336157Y-18326130D01*
X176374252Y-18478511D01*
X176374252Y-18592797D01*
X176336157Y-18745178D01*
X176298062Y-18821369D01*
X176221872Y-18897559D01*
X176107586Y-18935654D01*
X175917110Y-18935654D01*
X176640919Y-18135654D02*
X177136157Y-18135654D01*
X176869491Y-18440416D01*
X176983776Y-18440416D01*
X177059967Y-18478511D01*
X177098062Y-18516607D01*
X177136157Y-18592797D01*
X177136157Y-18783273D01*
X177098062Y-18859464D01*
X177059967Y-18897559D01*
X176983776Y-18935654D01*
X176755205Y-18935654D01*
X176679014Y-18897559D01*
X176640919Y-18859464D01*
X176301476Y-25793750D02*
X176225285Y-25755654D01*
X176111000Y-25755654D01*
X175996714Y-25793750D01*
X175920523Y-25869940D01*
X175882428Y-25946130D01*
X175844333Y-26098511D01*
X175844333Y-26212797D01*
X175882428Y-26365178D01*
X175920523Y-26441369D01*
X175996714Y-26517559D01*
X176111000Y-26555654D01*
X176187190Y-26555654D01*
X176301476Y-26517559D01*
X176339571Y-26479464D01*
X176339571Y-26212797D01*
X176187190Y-26212797D01*
X176682428Y-26555654D02*
X176682428Y-25755654D01*
X177139571Y-26555654D01*
X177139571Y-25755654D01*
X177520523Y-26555654D02*
X177520523Y-25755654D01*
X177711000Y-25755654D01*
X177825285Y-25793750D01*
X177901476Y-25869940D01*
X177939571Y-25946130D01*
X177977666Y-26098511D01*
X177977666Y-26212797D01*
X177939571Y-26365178D01*
X177901476Y-26441369D01*
X177825285Y-26517559D01*
X177711000Y-26555654D01*
X177520523Y-26555654D01*
X165379476Y-20713750D02*
X165303285Y-20675654D01*
X165189000Y-20675654D01*
X165074714Y-20713750D01*
X164998523Y-20789940D01*
X164960428Y-20866130D01*
X164922333Y-21018511D01*
X164922333Y-21132797D01*
X164960428Y-21285178D01*
X164998523Y-21361369D01*
X165074714Y-21437559D01*
X165189000Y-21475654D01*
X165265190Y-21475654D01*
X165379476Y-21437559D01*
X165417571Y-21399464D01*
X165417571Y-21132797D01*
X165265190Y-21132797D01*
X165760428Y-21475654D02*
X165760428Y-20675654D01*
X166217571Y-21475654D01*
X166217571Y-20675654D01*
X166598523Y-21475654D02*
X166598523Y-20675654D01*
X166789000Y-20675654D01*
X166903285Y-20713750D01*
X166979476Y-20789940D01*
X167017571Y-20866130D01*
X167055666Y-21018511D01*
X167055666Y-21132797D01*
X167017571Y-21285178D01*
X166979476Y-21361369D01*
X166903285Y-21437559D01*
X166789000Y-21475654D01*
X166598523Y-21475654D01*
X177614297Y-45408741D02*
X177708578Y-45361601D01*
X177755719Y-45361601D01*
X177826429Y-45385171D01*
X177897140Y-45455882D01*
X177920710Y-45526592D01*
X177920710Y-45573733D01*
X177897140Y-45644443D01*
X177708578Y-45833005D01*
X177213603Y-45338030D01*
X177378595Y-45173039D01*
X177449306Y-45149469D01*
X177496446Y-45149469D01*
X177567157Y-45173039D01*
X177614297Y-45220179D01*
X177637867Y-45290890D01*
X177637867Y-45338030D01*
X177614297Y-45408741D01*
X177449306Y-45573733D01*
X177944280Y-44607353D02*
X177708578Y-44843056D01*
X177920710Y-45102328D01*
X177920710Y-45055188D01*
X177944280Y-44984477D01*
X178062132Y-44866626D01*
X178132842Y-44843056D01*
X178179983Y-44843056D01*
X178250693Y-44866626D01*
X178368544Y-44984477D01*
X178392115Y-45055188D01*
X178392115Y-45102328D01*
X178368544Y-45173039D01*
X178250693Y-45290890D01*
X178179983Y-45314460D01*
X178132842Y-45314460D01*
X168643333Y-44886607D02*
X168376666Y-44886607D01*
X168376666Y-45305654D02*
X168376666Y-44505654D01*
X168757619Y-44505654D01*
X169481428Y-45305654D02*
X169024285Y-45305654D01*
X169252857Y-45305654D02*
X169252857Y-44505654D01*
X169176666Y-44619940D01*
X169100476Y-44696130D01*
X169024285Y-44734226D01*
X165722333Y-36296607D02*
X165455666Y-36296607D01*
X165455666Y-36715654D02*
X165455666Y-35915654D01*
X165836619Y-35915654D01*
X166065190Y-35915654D02*
X166598523Y-35915654D01*
X166255666Y-36715654D01*
X165665190Y-38836607D02*
X165779476Y-38874702D01*
X165817571Y-38912797D01*
X165855666Y-38988988D01*
X165855666Y-39103273D01*
X165817571Y-39179464D01*
X165779476Y-39217559D01*
X165703285Y-39255654D01*
X165398523Y-39255654D01*
X165398523Y-38455654D01*
X165665190Y-38455654D01*
X165741380Y-38493750D01*
X165779476Y-38531845D01*
X165817571Y-38608035D01*
X165817571Y-38684226D01*
X165779476Y-38760416D01*
X165741380Y-38798511D01*
X165665190Y-38836607D01*
X165398523Y-38836607D01*
X166617571Y-39255654D02*
X166160428Y-39255654D01*
X166389000Y-39255654D02*
X166389000Y-38455654D01*
X166312809Y-38569940D01*
X166236619Y-38646130D01*
X166160428Y-38684226D01*
X176320523Y-34175654D02*
X176320523Y-33375654D01*
X176511000Y-33375654D01*
X176625285Y-33413750D01*
X176701476Y-33489940D01*
X176739571Y-33566130D01*
X176777666Y-33718511D01*
X176777666Y-33832797D01*
X176739571Y-33985178D01*
X176701476Y-34061369D01*
X176625285Y-34137559D01*
X176511000Y-34175654D01*
X176320523Y-34175654D01*
X177463380Y-33642321D02*
X177463380Y-34175654D01*
X177272904Y-33337559D02*
X177082428Y-33908988D01*
X177577666Y-33908988D01*
X176358619Y-41376607D02*
X176625285Y-41376607D01*
X176739571Y-41795654D02*
X176358619Y-41795654D01*
X176358619Y-40995654D01*
X176739571Y-40995654D01*
X177425285Y-40995654D02*
X177272904Y-40995654D01*
X177196714Y-41033750D01*
X177158619Y-41071845D01*
X177082428Y-41186130D01*
X177044333Y-41338511D01*
X177044333Y-41643273D01*
X177082428Y-41719464D01*
X177120523Y-41757559D01*
X177196714Y-41795654D01*
X177349095Y-41795654D01*
X177425285Y-41757559D01*
X177463380Y-41719464D01*
X177501476Y-41643273D01*
X177501476Y-41452797D01*
X177463380Y-41376607D01*
X177425285Y-41338511D01*
X177349095Y-41300416D01*
X177196714Y-41300416D01*
X177120523Y-41338511D01*
X177082428Y-41376607D01*
X177044333Y-41452797D01*
X176301476Y-23253750D02*
X176225285Y-23215654D01*
X176111000Y-23215654D01*
X175996714Y-23253750D01*
X175920523Y-23329940D01*
X175882428Y-23406130D01*
X175844333Y-23558511D01*
X175844333Y-23672797D01*
X175882428Y-23825178D01*
X175920523Y-23901369D01*
X175996714Y-23977559D01*
X176111000Y-24015654D01*
X176187190Y-24015654D01*
X176301476Y-23977559D01*
X176339571Y-23939464D01*
X176339571Y-23672797D01*
X176187190Y-23672797D01*
X176682428Y-24015654D02*
X176682428Y-23215654D01*
X177139571Y-24015654D01*
X177139571Y-23215654D01*
X177520523Y-24015654D02*
X177520523Y-23215654D01*
X177711000Y-23215654D01*
X177825285Y-23253750D01*
X177901476Y-23329940D01*
X177939571Y-23406130D01*
X177977666Y-23558511D01*
X177977666Y-23672797D01*
X177939571Y-23825178D01*
X177901476Y-23901369D01*
X177825285Y-23977559D01*
X177711000Y-24015654D01*
X177520523Y-24015654D01*
X176320523Y-39255654D02*
X176320523Y-38455654D01*
X176511000Y-38455654D01*
X176625285Y-38493750D01*
X176701476Y-38569940D01*
X176739571Y-38646130D01*
X176777666Y-38798511D01*
X176777666Y-38912797D01*
X176739571Y-39065178D01*
X176701476Y-39141369D01*
X176625285Y-39217559D01*
X176511000Y-39255654D01*
X176320523Y-39255654D01*
X177044333Y-38455654D02*
X177577666Y-38455654D01*
X177234809Y-39255654D01*
X176587190Y-43916607D02*
X176701476Y-43954702D01*
X176739571Y-43992797D01*
X176777666Y-44068988D01*
X176777666Y-44183273D01*
X176739571Y-44259464D01*
X176701476Y-44297559D01*
X176625285Y-44335654D01*
X176320523Y-44335654D01*
X176320523Y-43535654D01*
X176587190Y-43535654D01*
X176663380Y-43573750D01*
X176701476Y-43611845D01*
X176739571Y-43688035D01*
X176739571Y-43764226D01*
X176701476Y-43840416D01*
X176663380Y-43878511D01*
X176587190Y-43916607D01*
X176320523Y-43916607D01*
X177463380Y-43802321D02*
X177463380Y-44335654D01*
X177272904Y-43497559D02*
X177082428Y-44068988D01*
X177577666Y-44068988D01*
X165876666Y-23957559D02*
X165990952Y-23995654D01*
X166181428Y-23995654D01*
X166257619Y-23957559D01*
X166295714Y-23919464D01*
X166333809Y-23843273D01*
X166333809Y-23767083D01*
X166295714Y-23690892D01*
X166257619Y-23652797D01*
X166181428Y-23614702D01*
X166029047Y-23576607D01*
X165952857Y-23538511D01*
X165914761Y-23500416D01*
X165876666Y-23424226D01*
X165876666Y-23348035D01*
X165914761Y-23271845D01*
X165952857Y-23233750D01*
X166029047Y-23195654D01*
X166219523Y-23195654D01*
X166333809Y-23233750D01*
X166562380Y-23195654D02*
X167019523Y-23195654D01*
X166790952Y-23995654D02*
X166790952Y-23195654D01*
X166716666Y-45093750D02*
X166483333Y-45093750D01*
X166483333Y-45460416D02*
X166483333Y-44760416D01*
X166816666Y-44760416D01*
X167216666Y-44760416D02*
X167283333Y-44760416D01*
X167350000Y-44793750D01*
X167383333Y-44827083D01*
X167416666Y-44893750D01*
X167450000Y-45027083D01*
X167450000Y-45193750D01*
X167416666Y-45327083D01*
X167383333Y-45393750D01*
X167350000Y-45427083D01*
X167283333Y-45460416D01*
X167216666Y-45460416D01*
X167150000Y-45427083D01*
X167116666Y-45393750D01*
X167083333Y-45327083D01*
X167050000Y-45193750D01*
X167050000Y-45027083D01*
X167083333Y-44893750D01*
X167116666Y-44827083D01*
X167150000Y-44793750D01*
X167216666Y-44760416D01*
X165722333Y-28676607D02*
X165455666Y-28676607D01*
X165455666Y-29095654D02*
X165455666Y-28295654D01*
X165836619Y-28295654D01*
X166484238Y-28562321D02*
X166484238Y-29095654D01*
X166293761Y-28257559D02*
X166103285Y-28828988D01*
X166598523Y-28828988D01*
D12*
X197268750Y-17912500D02*
X201368750Y-17912500D01*
X189168750Y-17912500D02*
X189168750Y-29712500D01*
X201368750Y-22512500D02*
X201368750Y-25112500D01*
X187768750Y-20012500D02*
X187468750Y-19712500D01*
X193268750Y-29712500D02*
X189168750Y-29712500D01*
X201368750Y-29712500D02*
X197268750Y-29712500D01*
X201368750Y-17912500D02*
X201368750Y-20312500D01*
X188068750Y-19712500D02*
X187768750Y-20012500D01*
X193268750Y-17912500D02*
X189168750Y-17912500D01*
X201368750Y-27312500D02*
X201368750Y-29712500D01*
X194768750Y-23812500D02*
X195768750Y-23812500D01*
X195268750Y-23312500D02*
X195268750Y-24312500D01*
X187468750Y-19712500D02*
X188068750Y-19712500D01*
X198268750Y-23812500D02*
G75*
G03*
X198268750Y-23812500I-3000000J0D01*
G01*
G36*
X82054781Y-37227918D02*
G01*
X82105195Y-37293255D01*
X82146860Y-37375828D01*
X82203979Y-37505252D01*
X82015905Y-37508894D01*
X81917752Y-37509127D01*
X81860370Y-37503769D01*
X81833752Y-37490810D01*
X81827830Y-37471126D01*
X81843099Y-37424315D01*
X81880338Y-37365442D01*
X81885095Y-37359463D01*
X81933235Y-37296959D01*
X81970627Y-37242761D01*
X81971547Y-37241260D01*
X82009670Y-37210156D01*
X82054781Y-37227918D01*
G37*
G36*
X76105637Y-36691099D02*
G01*
X76122462Y-36730456D01*
X76107360Y-36778904D01*
X76088681Y-36813373D01*
X76080478Y-36807295D01*
X76077781Y-36755702D01*
X76077649Y-36749194D01*
X76080363Y-36693518D01*
X76093649Y-36681908D01*
X76105637Y-36691099D01*
G37*
G36*
X106158699Y-36839649D02*
G01*
X106162051Y-36842938D01*
X106182154Y-36876307D01*
X106179428Y-36888574D01*
X106160496Y-36880937D01*
X106147803Y-36857185D01*
X106140055Y-36827451D01*
X106158699Y-36839649D01*
G37*
G36*
X108971217Y-31371552D02*
G01*
X109019006Y-31388367D01*
X109034844Y-31406199D01*
X109013047Y-31423106D01*
X108971217Y-31428683D01*
X108922009Y-31416691D01*
X108907590Y-31394035D01*
X108927697Y-31369787D01*
X108971217Y-31371552D01*
G37*
G36*
X106944999Y-33816231D02*
G01*
X106947870Y-33833793D01*
X106934128Y-33867662D01*
X106922420Y-33871969D01*
X106899840Y-33851355D01*
X106896969Y-33833793D01*
X106910711Y-33799923D01*
X106922420Y-33795616D01*
X106944999Y-33816231D01*
G37*
G36*
X108501691Y-32211280D02*
G01*
X108526116Y-32264377D01*
X108556381Y-32345512D01*
X108558738Y-32400740D01*
X108550112Y-32423445D01*
X108525086Y-32463471D01*
X108509183Y-32461568D01*
X108495236Y-32414010D01*
X108490831Y-32392635D01*
X108479067Y-32305641D01*
X108475484Y-32233567D01*
X108476829Y-32187974D01*
X108483703Y-32179412D01*
X108501691Y-32211280D01*
G37*
G36*
X102386800Y-32574393D02*
G01*
X102357560Y-32374851D01*
X102335722Y-32224023D01*
X103903919Y-32224023D01*
X103908724Y-32260255D01*
X103944229Y-32267267D01*
X103985496Y-32249084D01*
X104010425Y-32224031D01*
X104061628Y-32166523D01*
X104133124Y-32083484D01*
X104218932Y-31981839D01*
X104287456Y-31899524D01*
X104561309Y-31568662D01*
X104325258Y-31561291D01*
X104220062Y-31560104D01*
X104134662Y-31563064D01*
X104081428Y-31569551D01*
X104070650Y-31574016D01*
X104057946Y-31605491D01*
X104037257Y-31676079D01*
X104011494Y-31775172D01*
X103984799Y-31886799D01*
X103957078Y-32006175D01*
X103932412Y-32110215D01*
X103913617Y-32187180D01*
X103903919Y-32224023D01*
X102335722Y-32224023D01*
X102333211Y-32206679D01*
X102313389Y-32067166D01*
X102297731Y-31953600D01*
X102285874Y-31863268D01*
X102277454Y-31793459D01*
X102272107Y-31741460D01*
X102269471Y-31704559D01*
X102269180Y-31680044D01*
X102270873Y-31665203D01*
X102274184Y-31657324D01*
X102278752Y-31653695D01*
X102284212Y-31651603D01*
X102290200Y-31648336D01*
X102291851Y-31646911D01*
X102328644Y-31632247D01*
X102413883Y-31611260D01*
X102545552Y-31584292D01*
X102721633Y-31551683D01*
X102940109Y-31513777D01*
X103198963Y-31470915D01*
X103496177Y-31423438D01*
X103829735Y-31371689D01*
X104197619Y-31316010D01*
X104568211Y-31261086D01*
X104725520Y-31237148D01*
X104878787Y-31212323D01*
X105015145Y-31188800D01*
X105121730Y-31168771D01*
X105166307Y-31159279D01*
X105289934Y-31136182D01*
X105374234Y-31135284D01*
X105426368Y-31158051D01*
X105453499Y-31205948D01*
X105456558Y-31218689D01*
X105463332Y-31260096D01*
X105475975Y-31345489D01*
X105493577Y-31468408D01*
X105515226Y-31622390D01*
X105540012Y-31800974D01*
X105567024Y-31997699D01*
X105586576Y-32141308D01*
X105614167Y-32344030D01*
X105639737Y-32530652D01*
X105662452Y-32695187D01*
X105681478Y-32831652D01*
X105695983Y-32934060D01*
X105705133Y-32996426D01*
X105707965Y-33013272D01*
X105712329Y-32992761D01*
X105722658Y-32926523D01*
X105738288Y-32819298D01*
X105758559Y-32675828D01*
X105782807Y-32500854D01*
X105810372Y-32299117D01*
X105840590Y-32075358D01*
X105872799Y-31834318D01*
X105876781Y-31804354D01*
X105909633Y-31558631D01*
X105941000Y-31327231D01*
X105970158Y-31115269D01*
X105996384Y-30927858D01*
X106018954Y-30770112D01*
X106037145Y-30647147D01*
X106050234Y-30564074D01*
X106057495Y-30526009D01*
X106057762Y-30525178D01*
X106070161Y-30513273D01*
X106084732Y-30545840D01*
X106102549Y-30625642D01*
X106107703Y-30653674D01*
X106114976Y-30697420D01*
X106120047Y-30740217D01*
X106122395Y-30787033D01*
X106121496Y-30842835D01*
X106116827Y-30912591D01*
X106107867Y-31001269D01*
X106094092Y-31113837D01*
X106074979Y-31255262D01*
X106050006Y-31430511D01*
X106018650Y-31644553D01*
X105980388Y-31902355D01*
X105966474Y-31995752D01*
X105931570Y-32233027D01*
X105899828Y-32454846D01*
X105871907Y-32656144D01*
X105848470Y-32831860D01*
X105830176Y-32976928D01*
X105817686Y-33086287D01*
X105811662Y-33154873D01*
X105812251Y-33177499D01*
X105840402Y-33173491D01*
X105902290Y-33149324D01*
X105987561Y-33110270D01*
X106085860Y-33061606D01*
X106186832Y-33008605D01*
X106280124Y-32956542D01*
X106355381Y-32910692D01*
X106400676Y-32877750D01*
X106464004Y-32842325D01*
X106515205Y-32831817D01*
X106616973Y-32827102D01*
X106736512Y-32816551D01*
X106850044Y-32802614D01*
X106926593Y-32789389D01*
X107001420Y-32779836D01*
X107108931Y-32774538D01*
X107234158Y-32773286D01*
X107362135Y-32775871D01*
X107477895Y-32782085D01*
X107566474Y-32791719D01*
X107599436Y-32798773D01*
X107656614Y-32810387D01*
X107692053Y-32792879D01*
X107721767Y-32749264D01*
X107760356Y-32693203D01*
X107791345Y-32682441D01*
X107827783Y-32715751D01*
X107844343Y-32737738D01*
X107872340Y-32781766D01*
X107868469Y-32803290D01*
X107847840Y-32813593D01*
X107824822Y-32833835D01*
X107838457Y-32865352D01*
X107891541Y-32910851D01*
X107986867Y-32973037D01*
X108052861Y-33012173D01*
X108166554Y-33083754D01*
X108290958Y-33170620D01*
X108398572Y-33253512D01*
X108484880Y-33321540D01*
X108539625Y-33356111D01*
X108567266Y-33359732D01*
X108572232Y-33351134D01*
X108589645Y-33314675D01*
X108611995Y-33323365D01*
X108632662Y-33372782D01*
X108637522Y-33394765D01*
X108656655Y-33461118D01*
X108691061Y-33551848D01*
X108728271Y-33636379D01*
X108817274Y-33851535D01*
X108886800Y-34074755D01*
X108931428Y-34287197D01*
X108942509Y-34380987D01*
X108946854Y-34455176D01*
X108946104Y-34526219D01*
X108938875Y-34603896D01*
X108923778Y-34697986D01*
X108899428Y-34818268D01*
X108864438Y-34974522D01*
X108848679Y-35042711D01*
X108809259Y-35209591D01*
X108778311Y-35332644D01*
X108753863Y-35417861D01*
X108733945Y-35471236D01*
X108716583Y-35498759D01*
X108699807Y-35506422D01*
X108696200Y-35506074D01*
X108658268Y-35509535D01*
X108663113Y-35540301D01*
X108694972Y-35581285D01*
X108718213Y-35612597D01*
X108710143Y-35634120D01*
X108663498Y-35658140D01*
X108644888Y-35666004D01*
X108579094Y-35690852D01*
X108532276Y-35703871D01*
X108526409Y-35704434D01*
X108499650Y-35724477D01*
X108458170Y-35776247D01*
X108423872Y-35828003D01*
X108390026Y-35880232D01*
X108356692Y-35919556D01*
X108313993Y-35952258D01*
X108252054Y-35984618D01*
X108160996Y-36022921D01*
X108048707Y-36066618D01*
X107890436Y-36123388D01*
X107725641Y-36175316D01*
X107561944Y-36220748D01*
X107406967Y-36258031D01*
X107268333Y-36285508D01*
X107153664Y-36301526D01*
X107070583Y-36304430D01*
X107026713Y-36292565D01*
X107023779Y-36289086D01*
X106994846Y-36275169D01*
X106925478Y-36253291D01*
X106825025Y-36226088D01*
X106702839Y-36196194D01*
X106656020Y-36185437D01*
X106521768Y-36153118D01*
X106399607Y-36120066D01*
X106301088Y-36089663D01*
X106237761Y-36065289D01*
X106228239Y-36060207D01*
X106168010Y-36031107D01*
X106115323Y-36032545D01*
X106073452Y-36047374D01*
X106014300Y-36065630D01*
X105920037Y-36088261D01*
X105805846Y-36111800D01*
X105732590Y-36125177D01*
X105612130Y-36147501D01*
X105534112Y-36166337D01*
X105490464Y-36184441D01*
X105473109Y-36204570D01*
X105471718Y-36214224D01*
X105490045Y-36266424D01*
X105511284Y-36290958D01*
X105555158Y-36341349D01*
X105576315Y-36376790D01*
X105592503Y-36412848D01*
X105582775Y-36405817D01*
X105564378Y-36383360D01*
X105540309Y-36359296D01*
X105519169Y-36363185D01*
X105490813Y-36401471D01*
X105464199Y-36446987D01*
X105418631Y-36549393D01*
X105390155Y-36659165D01*
X105381288Y-36760311D01*
X105394550Y-36836842D01*
X105400868Y-36849078D01*
X105415932Y-36890372D01*
X105412222Y-36947381D01*
X105389729Y-37032675D01*
X105359384Y-37141738D01*
X105330251Y-37261993D01*
X105319850Y-37310857D01*
X105298506Y-37397935D01*
X105274074Y-37469109D01*
X105259186Y-37497830D01*
X105242992Y-37512168D01*
X105230020Y-37499670D01*
X105217895Y-37453353D01*
X105204245Y-37366237D01*
X105197598Y-37316658D01*
X105187195Y-37226219D01*
X105182126Y-37144442D01*
X105182918Y-37059695D01*
X105190101Y-36960346D01*
X105204201Y-36834765D01*
X105225747Y-36671320D01*
X105227454Y-36658843D01*
X105246411Y-36516673D01*
X105261903Y-36393032D01*
X105272959Y-36296300D01*
X105278611Y-36234856D01*
X105278583Y-36216730D01*
X105252648Y-36219120D01*
X105181720Y-36229749D01*
X105070886Y-36247754D01*
X104925236Y-36272271D01*
X104749857Y-36302435D01*
X104549836Y-36337382D01*
X104330262Y-36376249D01*
X104161822Y-36406372D01*
X103895195Y-36454094D01*
X103674194Y-36493184D01*
X103494390Y-36524259D01*
X103351354Y-36547935D01*
X103240658Y-36564830D01*
X103157873Y-36575559D01*
X103098571Y-36580741D01*
X103058322Y-36580991D01*
X103032698Y-36576927D01*
X103017270Y-36569166D01*
X103014005Y-36566246D01*
X103003830Y-36542913D01*
X102989839Y-36488294D01*
X102971688Y-36400318D01*
X102949035Y-36276909D01*
X102921535Y-36115996D01*
X102888845Y-35915504D01*
X102850622Y-35673360D01*
X102806521Y-35387492D01*
X102756201Y-35055825D01*
X102699316Y-34676287D01*
X102685315Y-34582316D01*
X102619093Y-34137594D01*
X102559944Y-33740515D01*
X102507504Y-33388368D01*
X102461409Y-33078440D01*
X102455066Y-33035676D01*
X103497057Y-33035676D01*
X103503773Y-33066829D01*
X103536615Y-33122224D01*
X103573452Y-33171078D01*
X103664704Y-33282440D01*
X103664704Y-34361648D01*
X103664915Y-34643247D01*
X103665890Y-34878913D01*
X103668142Y-35073617D01*
X103672184Y-35232328D01*
X103678529Y-35360015D01*
X103687690Y-35461647D01*
X103700180Y-35542195D01*
X103716512Y-35606627D01*
X103737200Y-35659912D01*
X103762756Y-35707021D01*
X103793693Y-35752922D01*
X103810738Y-35776164D01*
X103865852Y-35838156D01*
X103937320Y-35902974D01*
X104011669Y-35960086D01*
X104075427Y-35998958D01*
X104109631Y-36009845D01*
X104139055Y-35994570D01*
X104200037Y-35952502D01*
X104284900Y-35889276D01*
X104385964Y-35810525D01*
X104437581Y-35769184D01*
X104541436Y-35684415D01*
X104629660Y-35610763D01*
X104695339Y-35554130D01*
X104731558Y-35520421D01*
X104736457Y-35514038D01*
X104727497Y-35466366D01*
X104690894Y-35461302D01*
X104648726Y-35483034D01*
X104581284Y-35510217D01*
X104519047Y-35494760D01*
X104454403Y-35433824D01*
X104430001Y-35401509D01*
X104416968Y-35381682D01*
X104406282Y-35359037D01*
X104397712Y-35328644D01*
X104391023Y-35285571D01*
X104385983Y-35224888D01*
X104382359Y-35141665D01*
X104379919Y-35030972D01*
X104378428Y-34887878D01*
X104377656Y-34707453D01*
X104377633Y-34689444D01*
X105965234Y-34689444D01*
X105967707Y-34792422D01*
X105973709Y-34864460D01*
X105980042Y-34890005D01*
X105983779Y-34923491D01*
X105982753Y-34943220D01*
X105989727Y-34989169D01*
X106011979Y-35067444D01*
X106044382Y-35163739D01*
X106081807Y-35263748D01*
X106119128Y-35353165D01*
X106151216Y-35417683D01*
X106155132Y-35424125D01*
X106263857Y-35580859D01*
X106377222Y-35717125D01*
X106485089Y-35821052D01*
X106512297Y-35842279D01*
X106613965Y-35907616D01*
X106717163Y-35951484D01*
X106832275Y-35975497D01*
X106969680Y-35981268D01*
X107139760Y-35970412D01*
X107253949Y-35957572D01*
X107361996Y-35942599D01*
X107434889Y-35926075D01*
X107488162Y-35901794D01*
X107537348Y-35863548D01*
X107572381Y-35830318D01*
X107639020Y-35774454D01*
X107700699Y-35737990D01*
X107730857Y-35729885D01*
X107786043Y-35707641D01*
X107852504Y-35647414D01*
X107923858Y-35558963D01*
X107993720Y-35452047D01*
X108055709Y-35336423D01*
X108103442Y-35221850D01*
X108130385Y-35119063D01*
X108153571Y-35026524D01*
X108191752Y-34923356D01*
X108212055Y-34879830D01*
X108252911Y-34782727D01*
X108261510Y-34702478D01*
X108239507Y-34617977D01*
X108233691Y-34603683D01*
X108230319Y-34567617D01*
X108259641Y-34559143D01*
X108288004Y-34536990D01*
X108298992Y-34476127D01*
X108294526Y-34384947D01*
X108276524Y-34271844D01*
X108246905Y-34145212D01*
X108207588Y-34013445D01*
X108160493Y-33884935D01*
X108107537Y-33768078D01*
X108059742Y-33684776D01*
X108028423Y-33620995D01*
X108021953Y-33592009D01*
X108067710Y-33592009D01*
X108077022Y-33612958D01*
X108084677Y-33608976D01*
X108087723Y-33578772D01*
X108084677Y-33575042D01*
X108069547Y-33578536D01*
X108067710Y-33592009D01*
X108021953Y-33592009D01*
X108016808Y-33568956D01*
X108006253Y-33521600D01*
X107983208Y-33500694D01*
X107960605Y-33516671D01*
X107958425Y-33521861D01*
X107943215Y-33518802D01*
X107916122Y-33477786D01*
X107891470Y-33426578D01*
X107831295Y-33313701D01*
X107769896Y-33250756D01*
X107720057Y-33235697D01*
X107699080Y-33253998D01*
X107703296Y-33280236D01*
X107698261Y-33293345D01*
X107663365Y-33270585D01*
X107630857Y-33241634D01*
X107570121Y-33191437D01*
X107503259Y-33154126D01*
X107419033Y-33125918D01*
X107306207Y-33103030D01*
X107156952Y-33082103D01*
X106946094Y-33055888D01*
X106737642Y-33164336D01*
X106519977Y-33303427D01*
X106331573Y-33476244D01*
X106177782Y-33675874D01*
X106063959Y-33895407D01*
X105996838Y-34120651D01*
X105985508Y-34202532D01*
X105976426Y-34312071D01*
X105969850Y-34437549D01*
X105966034Y-34567246D01*
X105965234Y-34689444D01*
X104377633Y-34689444D01*
X104377368Y-34484765D01*
X104377329Y-34286379D01*
X104377329Y-33245220D01*
X104453682Y-33172069D01*
X104501328Y-33122184D01*
X104527988Y-33086048D01*
X104530035Y-33079663D01*
X104511426Y-33057325D01*
X104460408Y-33009482D01*
X104384194Y-32942585D01*
X104289995Y-32863084D01*
X104262131Y-32840062D01*
X103994226Y-32619717D01*
X103753070Y-32815676D01*
X103658725Y-32893275D01*
X103579117Y-32960509D01*
X103522516Y-33010274D01*
X103497193Y-33035462D01*
X103497057Y-33035676D01*
X102455066Y-33035676D01*
X102421296Y-32808019D01*
X102386800Y-32574393D01*
G37*
G36*
X108563474Y-37095895D02*
G01*
X108560481Y-37116959D01*
X108543870Y-37150400D01*
X108538552Y-37155135D01*
X108524571Y-37135318D01*
X108516623Y-37116959D01*
X108520408Y-37084096D01*
X108538552Y-37078783D01*
X108563474Y-37095895D01*
G37*
G36*
X123224929Y-31328591D02*
G01*
X123301440Y-31364677D01*
X123369928Y-31402715D01*
X123416235Y-31442660D01*
X123452719Y-31499416D01*
X123491740Y-31587883D01*
X123496680Y-31600098D01*
X123527321Y-31691013D01*
X123559711Y-31817217D01*
X123594711Y-31982718D01*
X123633179Y-32191525D01*
X123668474Y-32401304D01*
X123702114Y-32611832D01*
X123727620Y-32783187D01*
X123746072Y-32926257D01*
X123758548Y-33051930D01*
X123766129Y-33171094D01*
X123769891Y-33294639D01*
X123770916Y-33433450D01*
X123770917Y-33434883D01*
X123770917Y-33839427D01*
X123676397Y-33982953D01*
X123615959Y-34067190D01*
X123563878Y-34111633D01*
X123504814Y-34121535D01*
X123423426Y-34102150D01*
X123376486Y-34085658D01*
X123308739Y-34057992D01*
X123261197Y-34026611D01*
X123224606Y-33980089D01*
X123189707Y-33907002D01*
X123151829Y-33808342D01*
X123128500Y-33734950D01*
X123104872Y-33638396D01*
X123079997Y-33513423D01*
X123052930Y-33354777D01*
X123022724Y-33157202D01*
X122988434Y-32915443D01*
X122979992Y-32853933D01*
X122942771Y-32573130D01*
X122914385Y-32337025D01*
X122894836Y-32140184D01*
X122884124Y-31977178D01*
X122882252Y-31842573D01*
X122889221Y-31730938D01*
X122905031Y-31636840D01*
X122929685Y-31554848D01*
X122963184Y-31479530D01*
X122980349Y-31447771D01*
X123035317Y-31360726D01*
X123086040Y-31314012D01*
X123145062Y-31304383D01*
X123224929Y-31328591D01*
G37*
G36*
X107409260Y-33353403D02*
G01*
X107428867Y-33385000D01*
X107424887Y-33403436D01*
X107401841Y-33396578D01*
X107381046Y-33376292D01*
X107364633Y-33344290D01*
X107375917Y-33337500D01*
X107409260Y-33353403D01*
G37*
G36*
X108813586Y-31966499D02*
G01*
X108825289Y-32055949D01*
X108812163Y-32101180D01*
X108772315Y-32103372D01*
X108703851Y-32063702D01*
X108682745Y-32047924D01*
X108572429Y-31962890D01*
X108682745Y-31915775D01*
X108793061Y-31868659D01*
X108813586Y-31966499D01*
G37*
G36*
X108700050Y-32813326D02*
G01*
X108727373Y-32838953D01*
X108721768Y-32853685D01*
X108718210Y-32853933D01*
X108696683Y-32835856D01*
X108688827Y-32824550D01*
X108685827Y-32807134D01*
X108700050Y-32813326D01*
G37*
G36*
X107481304Y-32057979D02*
G01*
X107482339Y-32064955D01*
X107473656Y-32089744D01*
X107471116Y-32090406D01*
X107449387Y-32072572D01*
X107444163Y-32064955D01*
X107446181Y-32041502D01*
X107455386Y-32039504D01*
X107481304Y-32057979D01*
G37*
G36*
X107584143Y-33222971D02*
G01*
X107608423Y-33245841D01*
X107609594Y-33249924D01*
X107589903Y-33260856D01*
X107584143Y-33261147D01*
X107559670Y-33241582D01*
X107558692Y-33234195D01*
X107574284Y-33218994D01*
X107584143Y-33222971D01*
G37*
G36*
X107525321Y-33728152D02*
G01*
X107560382Y-33746087D01*
X107577989Y-33763299D01*
X107567136Y-33769776D01*
X107517874Y-33778787D01*
X107497146Y-33785614D01*
X107463119Y-33783251D01*
X107456888Y-33760163D01*
X107472958Y-33724856D01*
X107488702Y-33719653D01*
X107525321Y-33728152D01*
G37*
G36*
X108856688Y-33579284D02*
G01*
X108880968Y-33602154D01*
X108882139Y-33606237D01*
X108862448Y-33617168D01*
X108856688Y-33617460D01*
X108832215Y-33597895D01*
X108831237Y-33590507D01*
X108846829Y-33575307D01*
X108856688Y-33579284D01*
G37*
G36*
X108398061Y-36352817D02*
G01*
X108414474Y-36384818D01*
X108403190Y-36391608D01*
X108365888Y-36372878D01*
X108359349Y-36364464D01*
X108349822Y-36331332D01*
X108369572Y-36328614D01*
X108398061Y-36352817D01*
G37*
G36*
X107588809Y-32721164D02*
G01*
X107608255Y-32753560D01*
X107605776Y-32764431D01*
X107579185Y-32763643D01*
X107575659Y-32760613D01*
X107558879Y-32721432D01*
X107558692Y-32717347D01*
X107571605Y-32707884D01*
X107588809Y-32721164D01*
G37*
G36*
X89026795Y-33332481D02*
G01*
X89058173Y-33358558D01*
X89070944Y-33359314D01*
X89104669Y-33358490D01*
X89177245Y-33361301D01*
X89276799Y-33367184D01*
X89354935Y-33372736D01*
X89474618Y-33383004D01*
X89551920Y-33393404D01*
X89595323Y-33405964D01*
X89613313Y-33422712D01*
X89615447Y-33434981D01*
X89613776Y-33477324D01*
X89609339Y-33563511D01*
X89602543Y-33686585D01*
X89593793Y-33839588D01*
X89583494Y-34015561D01*
X89572053Y-34207545D01*
X89559874Y-34408584D01*
X89547365Y-34611718D01*
X89539517Y-34737300D01*
X89528632Y-34915794D01*
X89516484Y-35123739D01*
X89504295Y-35339742D01*
X89493282Y-35542412D01*
X89489269Y-35619024D01*
X89479784Y-35806398D01*
X89471642Y-35948925D01*
X89462507Y-36052524D01*
X89450045Y-36123117D01*
X89431918Y-36166625D01*
X89405793Y-36188967D01*
X89369333Y-36196066D01*
X89320202Y-36193841D01*
X89264479Y-36188860D01*
X89151371Y-36181482D01*
X89036390Y-36176548D01*
X88966808Y-36175276D01*
X88839554Y-36175276D01*
X88821292Y-36376784D01*
X88809219Y-36489468D01*
X88795243Y-36559607D01*
X88775552Y-36595521D01*
X88746338Y-36605531D01*
X88718350Y-36601620D01*
X88688062Y-36582115D01*
X88688988Y-36566302D01*
X88690730Y-36528844D01*
X88675406Y-36472966D01*
X88651222Y-36420265D01*
X88626382Y-36392339D01*
X88622623Y-36391608D01*
X88601452Y-36370249D01*
X88577279Y-36318482D01*
X88576011Y-36314905D01*
X88568760Y-36279711D01*
X88567572Y-36227692D01*
X88573139Y-36152693D01*
X88586156Y-36048560D01*
X88607315Y-35909139D01*
X88637309Y-35728277D01*
X88651269Y-35646819D01*
X88687960Y-35429797D01*
X88728581Y-35182357D01*
X88769928Y-34924483D01*
X88808797Y-34676155D01*
X88841985Y-34457357D01*
X88841987Y-34457340D01*
X88869574Y-34271511D01*
X88897032Y-34086796D01*
X88922696Y-33914378D01*
X88944902Y-33765439D01*
X88961984Y-33651165D01*
X88967040Y-33617460D01*
X88982942Y-33508609D01*
X88995584Y-33416380D01*
X89003185Y-33354040D01*
X89004567Y-33337500D01*
X89010607Y-33313945D01*
X89026795Y-33332481D01*
G37*
G36*
X88540472Y-35548476D02*
G01*
X88547216Y-35594766D01*
X88552897Y-35670144D01*
X88562340Y-35721343D01*
X88558848Y-35775268D01*
X88525361Y-35804127D01*
X88476414Y-35817749D01*
X88458640Y-35807612D01*
X88455505Y-35768784D01*
X88465543Y-35702296D01*
X88483898Y-35628087D01*
X88505711Y-35566098D01*
X88524548Y-35537069D01*
X88540472Y-35548476D01*
G37*
G36*
X108677091Y-33234776D02*
G01*
X108678532Y-33235697D01*
X108702558Y-33255478D01*
X108680081Y-33260670D01*
X108674251Y-33260758D01*
X108611365Y-33270341D01*
X108591535Y-33276596D01*
X108557508Y-33274233D01*
X108551277Y-33251145D01*
X108570844Y-33218663D01*
X108618369Y-33212528D01*
X108677091Y-33234776D01*
G37*
G36*
X105671393Y-36427354D02*
G01*
X105698716Y-36452981D01*
X105693111Y-36467713D01*
X105689553Y-36467961D01*
X105668026Y-36449884D01*
X105660170Y-36438578D01*
X105657170Y-36421162D01*
X105671393Y-36427354D01*
G37*
G36*
X108805276Y-31618949D02*
G01*
X108821689Y-31650951D01*
X108810405Y-31657741D01*
X108773102Y-31639010D01*
X108766563Y-31630596D01*
X108757036Y-31597464D01*
X108776787Y-31594746D01*
X108805276Y-31618949D01*
G37*
G36*
X98272220Y-33651183D02*
G01*
X98289081Y-33693356D01*
X98287315Y-33709545D01*
X98269955Y-33700471D01*
X98259532Y-33680103D01*
X98245112Y-33631777D01*
X98251033Y-33622135D01*
X98272220Y-33651183D01*
G37*
G36*
X63529194Y-31746922D02*
G01*
X63524589Y-31748102D01*
X63484283Y-31752489D01*
X63485034Y-31729181D01*
X63515541Y-31692646D01*
X63539270Y-31659559D01*
X63531374Y-31623445D01*
X63513436Y-31593914D01*
X63491561Y-31550812D01*
X63486286Y-31502289D01*
X63496859Y-31430216D01*
X63502467Y-31404117D01*
X63604985Y-31404117D01*
X63624853Y-31447105D01*
X63672547Y-31497054D01*
X63730202Y-31538489D01*
X63779955Y-31555936D01*
X63780251Y-31555937D01*
X63833771Y-31579245D01*
X63889481Y-31642553D01*
X63939634Y-31735940D01*
X63957673Y-31783200D01*
X63963758Y-31828509D01*
X63967860Y-31917954D01*
X63970121Y-32044812D01*
X63970688Y-32202362D01*
X63969702Y-32383882D01*
X63967307Y-32582649D01*
X63963649Y-32791942D01*
X63958870Y-33005040D01*
X63953114Y-33215219D01*
X63946526Y-33415759D01*
X63939248Y-33599936D01*
X63931426Y-33761031D01*
X63923202Y-33892319D01*
X63914721Y-33987080D01*
X63909753Y-34022587D01*
X63857963Y-34178175D01*
X63795940Y-34274910D01*
X63747467Y-34339537D01*
X63715084Y-34387330D01*
X63706776Y-34404252D01*
X63730809Y-34408933D01*
X63797283Y-34412341D01*
X63897748Y-34414284D01*
X64023756Y-34414569D01*
X64120354Y-34413708D01*
X64292187Y-34413162D01*
X64476226Y-34415453D01*
X64653257Y-34420169D01*
X64804065Y-34426899D01*
X64839353Y-34429114D01*
X65006617Y-34440305D01*
X65134139Y-34447722D01*
X65232950Y-34451229D01*
X65314081Y-34450690D01*
X65388561Y-34445967D01*
X65467421Y-34436926D01*
X65561691Y-34423429D01*
X65585263Y-34419898D01*
X65857158Y-34368768D01*
X66087640Y-34301283D01*
X66284722Y-34213256D01*
X66456417Y-34100497D01*
X66610738Y-33958820D01*
X66725438Y-33823948D01*
X66873231Y-33609358D01*
X66979717Y-33395524D01*
X67048839Y-33170594D01*
X67066697Y-33046596D01*
X68238346Y-33046596D01*
X68253040Y-33079881D01*
X68292152Y-33136006D01*
X68326127Y-33177897D01*
X68415205Y-33281964D01*
X68415205Y-34377715D01*
X68415318Y-34644107D01*
X68415797Y-34864659D01*
X68416849Y-35044434D01*
X68418684Y-35188496D01*
X68421509Y-35301906D01*
X68425532Y-35389728D01*
X68430963Y-35457023D01*
X68438008Y-35508854D01*
X68446878Y-35550284D01*
X68457779Y-35586375D01*
X68465864Y-35608863D01*
X68514392Y-35704267D01*
X68585109Y-35801700D01*
X68667777Y-35890785D01*
X68752158Y-35961148D01*
X68828014Y-36002412D01*
X68860596Y-36008922D01*
X68888281Y-35993844D01*
X68947658Y-35951884D01*
X69031228Y-35888645D01*
X69131492Y-35809727D01*
X69185095Y-35766503D01*
X69289061Y-35680766D01*
X69377316Y-35605617D01*
X69442992Y-35547096D01*
X69479219Y-35511238D01*
X69484143Y-35503659D01*
X69467794Y-35468552D01*
X69423285Y-35471427D01*
X69388948Y-35489769D01*
X69339700Y-35515554D01*
X69299512Y-35509265D01*
X69266379Y-35489504D01*
X69234506Y-35468022D01*
X69208158Y-35446011D01*
X69186749Y-35418661D01*
X69169693Y-35381160D01*
X69156404Y-35328696D01*
X69146296Y-35256460D01*
X69138783Y-35159638D01*
X69133280Y-35033421D01*
X69129201Y-34872996D01*
X69125959Y-34673553D01*
X69122968Y-34430281D01*
X69121486Y-34299681D01*
X69109773Y-33263966D01*
X69195154Y-33181212D01*
X69245768Y-33128851D01*
X69276380Y-33090808D01*
X69280536Y-33081595D01*
X69261954Y-33059841D01*
X69212204Y-33014196D01*
X69140275Y-32952045D01*
X69055160Y-32880773D01*
X68965850Y-32807765D01*
X68881335Y-32740405D01*
X68810606Y-32686079D01*
X68762655Y-32652170D01*
X68748627Y-32644715D01*
X68718635Y-32656933D01*
X68659833Y-32694969D01*
X68581832Y-32751255D01*
X68494242Y-32818220D01*
X68406676Y-32888295D01*
X68328744Y-32953911D01*
X68270057Y-33007498D01*
X68240227Y-33041487D01*
X68238346Y-33046596D01*
X67066697Y-33046596D01*
X67084538Y-32922714D01*
X67091758Y-32722326D01*
X67074536Y-32448963D01*
X67032071Y-32256869D01*
X68647888Y-32256869D01*
X68670150Y-32265321D01*
X68720217Y-32243325D01*
X68752740Y-32215224D01*
X68809940Y-32155225D01*
X68884705Y-32071184D01*
X68969921Y-31970956D01*
X69002505Y-31931551D01*
X69089417Y-31825766D01*
X69167373Y-31731119D01*
X69229428Y-31656025D01*
X69268636Y-31608899D01*
X69275756Y-31600476D01*
X69289886Y-31580289D01*
X69285454Y-31567339D01*
X69254717Y-31560030D01*
X69189931Y-31556765D01*
X69083353Y-31555947D01*
X69059686Y-31555937D01*
X68805497Y-31555937D01*
X68736887Y-31854985D01*
X68708703Y-31977180D01*
X68683422Y-32085612D01*
X68663897Y-32168109D01*
X68653302Y-32211298D01*
X68647888Y-32256869D01*
X67032071Y-32256869D01*
X67021905Y-32210883D01*
X66932422Y-32005452D01*
X66804644Y-31830038D01*
X66637126Y-31682010D01*
X66462905Y-31576005D01*
X66381065Y-31537743D01*
X66292344Y-31505113D01*
X66192067Y-31477635D01*
X66075562Y-31454829D01*
X65938157Y-31436216D01*
X65775179Y-31421315D01*
X65581956Y-31409645D01*
X65353814Y-31400728D01*
X65086082Y-31394082D01*
X64774086Y-31389228D01*
X64629383Y-31387614D01*
X64342316Y-31385249D01*
X64104651Y-31384493D01*
X63914913Y-31385372D01*
X63771626Y-31387909D01*
X63673315Y-31392128D01*
X63618505Y-31398052D01*
X63604985Y-31404117D01*
X63502467Y-31404117D01*
X63505050Y-31392095D01*
X63536582Y-31251196D01*
X63628048Y-31262936D01*
X63673888Y-31265936D01*
X63764329Y-31269334D01*
X63893076Y-31272984D01*
X64053830Y-31276739D01*
X64240295Y-31280452D01*
X64446173Y-31283977D01*
X64665168Y-31287168D01*
X64673923Y-31287284D01*
X64902733Y-31290951D01*
X65126837Y-31295743D01*
X65338392Y-31301406D01*
X65529556Y-31307684D01*
X65692487Y-31314324D01*
X65819341Y-31321070D01*
X65895566Y-31326959D01*
X66142911Y-31360491D01*
X66349841Y-31409315D01*
X66525702Y-31478012D01*
X66679840Y-31571161D01*
X66821601Y-31693345D01*
X66959912Y-31848622D01*
X67041998Y-31950426D01*
X67027025Y-31861348D01*
X67013339Y-31783032D01*
X67001040Y-31717355D01*
X67000774Y-31716023D01*
X67009270Y-31658355D01*
X67034264Y-31636251D01*
X67073562Y-31624916D01*
X67158921Y-31606971D01*
X67286031Y-31583124D01*
X67450581Y-31554085D01*
X67648259Y-31520563D01*
X67874754Y-31483268D01*
X68125756Y-31442909D01*
X68396954Y-31400195D01*
X68684035Y-31355836D01*
X68982690Y-31310541D01*
X69288607Y-31265020D01*
X69305987Y-31262460D01*
X69464950Y-31238222D01*
X69623507Y-31212565D01*
X69767321Y-31187909D01*
X69882053Y-31166674D01*
X69923171Y-31158282D01*
X70120416Y-31115909D01*
X70124325Y-30820542D01*
X70128234Y-30525176D01*
X70146318Y-30805135D01*
X70156289Y-30931361D01*
X70168827Y-31049538D01*
X70182083Y-31143798D01*
X70190762Y-31186899D01*
X70198370Y-31228094D01*
X70212173Y-31315589D01*
X70231580Y-31445238D01*
X70256004Y-31612894D01*
X70284853Y-31814408D01*
X70317540Y-32045635D01*
X70353474Y-32302427D01*
X70392065Y-32580636D01*
X70432726Y-32876117D01*
X70474865Y-33184721D01*
X70478336Y-33210246D01*
X70534760Y-33622589D01*
X70585126Y-33984886D01*
X70629507Y-34297622D01*
X70667976Y-34561282D01*
X70700608Y-34776353D01*
X70727475Y-34943317D01*
X70748652Y-35062662D01*
X70764211Y-35134872D01*
X70773570Y-35160045D01*
X70801696Y-35192243D01*
X70805461Y-35213310D01*
X70782176Y-35208165D01*
X70782139Y-35208141D01*
X70758662Y-35209602D01*
X70756688Y-35218384D01*
X70778942Y-35239908D01*
X70835025Y-35263729D01*
X70864854Y-35272501D01*
X70959560Y-35297112D01*
X71053282Y-35321422D01*
X71067357Y-35325067D01*
X71192019Y-35343147D01*
X71332766Y-35341893D01*
X71466880Y-35322760D01*
X71558391Y-35293663D01*
X71635775Y-35264370D01*
X71703813Y-35248046D01*
X71718474Y-35246877D01*
X71777578Y-35235091D01*
X71853700Y-35206376D01*
X71876566Y-35195397D01*
X71965126Y-35125395D01*
X72011078Y-35032396D01*
X72011537Y-34925232D01*
X71987667Y-34855469D01*
X71956223Y-34804582D01*
X71909225Y-34761771D01*
X71834885Y-34718201D01*
X71751768Y-34678655D01*
X71643101Y-34634097D01*
X71534293Y-34597175D01*
X71446623Y-34575002D01*
X71437026Y-34573447D01*
X71343010Y-34548938D01*
X71267766Y-34509888D01*
X71256174Y-34500248D01*
X71196980Y-34452693D01*
X71118884Y-34399262D01*
X71089172Y-34380987D01*
X70926884Y-34261894D01*
X70789108Y-34115375D01*
X70693807Y-33964851D01*
X70658095Y-33886223D01*
X70638074Y-33820050D01*
X70630525Y-33747237D01*
X70632229Y-33648686D01*
X70634095Y-33610637D01*
X70669780Y-33378278D01*
X70750824Y-33168262D01*
X70876521Y-32981276D01*
X71046165Y-32818003D01*
X71259052Y-32679131D01*
X71514476Y-32565345D01*
X71796761Y-32480896D01*
X71931834Y-32450625D01*
X72043914Y-32432495D01*
X72154166Y-32424471D01*
X72283753Y-32424516D01*
X72358970Y-32426804D01*
X72506697Y-32435337D01*
X72625712Y-32448698D01*
X72706758Y-32465717D01*
X72726179Y-32473145D01*
X72799579Y-32508898D01*
X72781742Y-32852790D01*
X72774425Y-32979590D01*
X72766826Y-33087009D01*
X72759734Y-33165387D01*
X72753937Y-33205064D01*
X72752749Y-33207839D01*
X72723928Y-33209309D01*
X72659560Y-33202215D01*
X72579723Y-33189169D01*
X72359577Y-33161912D01*
X72152092Y-33161800D01*
X71964683Y-33187503D01*
X71804761Y-33237690D01*
X71679741Y-33311029D01*
X71629297Y-33359855D01*
X71586063Y-33424067D01*
X71577908Y-33482374D01*
X71606837Y-33546794D01*
X71674189Y-33628614D01*
X71728705Y-33681863D01*
X71790389Y-33727281D01*
X71870486Y-33771332D01*
X71980238Y-33820482D01*
X72075041Y-33859118D01*
X72269183Y-33940887D01*
X72422481Y-34016281D01*
X72543670Y-34090455D01*
X72641482Y-34168569D01*
X72701236Y-34228926D01*
X72814284Y-34381247D01*
X72887706Y-34549332D01*
X72917698Y-34672791D01*
X72938465Y-34807747D01*
X72942264Y-34916216D01*
X72927596Y-35020205D01*
X72892962Y-35141723D01*
X72883912Y-35168869D01*
X72838474Y-35276604D01*
X72774008Y-35395267D01*
X72698246Y-35513740D01*
X72618919Y-35620903D01*
X72543760Y-35705639D01*
X72480499Y-35756829D01*
X72472055Y-35761137D01*
X72427643Y-35791502D01*
X72420257Y-35836952D01*
X72424722Y-35861691D01*
X72425285Y-35916040D01*
X72405477Y-35935025D01*
X72379383Y-35913504D01*
X72367469Y-35882590D01*
X72354527Y-35841531D01*
X72348789Y-35831689D01*
X72324392Y-35840485D01*
X72265876Y-35863475D01*
X72191064Y-35893596D01*
X72093073Y-35930051D01*
X71968891Y-35971586D01*
X71841614Y-36010562D01*
X71811276Y-36019219D01*
X71715641Y-36044561D01*
X71632570Y-36061821D01*
X71548777Y-36072223D01*
X71450974Y-36076992D01*
X71325875Y-36077354D01*
X71202079Y-36075390D01*
X70928507Y-36076416D01*
X70699503Y-36091396D01*
X70582621Y-36107015D01*
X70344928Y-36146182D01*
X70359092Y-36217007D01*
X70361649Y-36273170D01*
X70348640Y-36303045D01*
X70331575Y-36292339D01*
X70324054Y-36244462D01*
X70324023Y-36240405D01*
X70315153Y-36184991D01*
X70293180Y-36162550D01*
X70293121Y-36162550D01*
X70262559Y-36166938D01*
X70186916Y-36179516D01*
X70071202Y-36199404D01*
X69920423Y-36225725D01*
X69739586Y-36257598D01*
X69533700Y-36294146D01*
X69307772Y-36334489D01*
X69066810Y-36377749D01*
X69060512Y-36378883D01*
X68818498Y-36422273D01*
X68590775Y-36462758D01*
X68382447Y-36499455D01*
X68198617Y-36531481D01*
X68044390Y-36557953D01*
X67924869Y-36577988D01*
X67845158Y-36590703D01*
X67810360Y-36595215D01*
X67810229Y-36595216D01*
X67763295Y-36574177D01*
X67736111Y-36537951D01*
X67727955Y-36503253D01*
X67713111Y-36422634D01*
X67692286Y-36300534D01*
X67666189Y-36141393D01*
X67635529Y-35949653D01*
X67601014Y-35729753D01*
X67563353Y-35486134D01*
X67523254Y-35223236D01*
X67481425Y-34945499D01*
X67472425Y-34885287D01*
X67419483Y-34532818D01*
X67373091Y-34228973D01*
X67332908Y-33971946D01*
X67298589Y-33759929D01*
X67269794Y-33591114D01*
X67246179Y-33463693D01*
X67227401Y-33375859D01*
X67213118Y-33325804D01*
X67202987Y-33311720D01*
X67196665Y-33331800D01*
X67193810Y-33384236D01*
X67193562Y-33414235D01*
X67172847Y-33524933D01*
X67120040Y-33638110D01*
X67074954Y-33723623D01*
X67040234Y-33805643D01*
X67028893Y-33843049D01*
X67002027Y-33907600D01*
X66962698Y-33949288D01*
X66918309Y-33989326D01*
X66875827Y-34051661D01*
X66872941Y-34057243D01*
X66848758Y-34100957D01*
X66819766Y-34139890D01*
X66778662Y-34180270D01*
X66718144Y-34228326D01*
X66630907Y-34290285D01*
X66509649Y-34372377D01*
X66480924Y-34391592D01*
X66345210Y-34480169D01*
X66236333Y-34544661D01*
X66140361Y-34591461D01*
X66043361Y-34626958D01*
X65931399Y-34657546D01*
X65869500Y-34672077D01*
X65778216Y-34688423D01*
X65666683Y-34701928D01*
X65546720Y-34711981D01*
X65430149Y-34717971D01*
X65328788Y-34719289D01*
X65254459Y-34715323D01*
X65219178Y-34705668D01*
X65186853Y-34701462D01*
X65132698Y-34711660D01*
X65073740Y-34719540D01*
X65038147Y-34709580D01*
X64998281Y-34699601D01*
X64938318Y-34709013D01*
X64867051Y-34718067D01*
X64774518Y-34715749D01*
X64730242Y-34710438D01*
X64656022Y-34703012D01*
X64544710Y-34697210D01*
X64410103Y-34693526D01*
X64265999Y-34692456D01*
X64232958Y-34692631D01*
X64044433Y-34690927D01*
X63899766Y-34680477D01*
X63792242Y-34658306D01*
X63715145Y-34621441D01*
X63661760Y-34566907D01*
X63625371Y-34491732D01*
X63603827Y-34414031D01*
X63596404Y-34363262D01*
X63607146Y-34323905D01*
X63643931Y-34280758D01*
X63697521Y-34233193D01*
X63810265Y-34136823D01*
X63832821Y-33781700D01*
X63841867Y-33614060D01*
X63849859Y-33419553D01*
X63855937Y-33222213D01*
X63859236Y-33046075D01*
X63859249Y-33044815D01*
X63861148Y-32869237D01*
X63863463Y-32672544D01*
X63865902Y-32478654D01*
X63868176Y-32311483D01*
X63868199Y-32309888D01*
X63869861Y-32169280D01*
X63869318Y-32070718D01*
X63865367Y-32005356D01*
X63856807Y-31964347D01*
X63842435Y-31938846D01*
X63821050Y-31920005D01*
X63814609Y-31915399D01*
X63756786Y-31873440D01*
X63684587Y-31819521D01*
X63663696Y-31803651D01*
X63653892Y-31797721D01*
X63808592Y-31797721D01*
X63821317Y-31810446D01*
X63834043Y-31797721D01*
X63821317Y-31784995D01*
X63808592Y-31797721D01*
X63653892Y-31797721D01*
X63587117Y-31757334D01*
X63529194Y-31746922D01*
G37*
G36*
X71590801Y-35000453D02*
G01*
X71605361Y-35010897D01*
X71593301Y-35025239D01*
X71555961Y-35029985D01*
X71509275Y-35023204D01*
X71494764Y-35010897D01*
X71516068Y-34995220D01*
X71544164Y-34991809D01*
X71590801Y-35000453D01*
G37*
G36*
X81140171Y-37265781D02*
G01*
X81148468Y-37267409D01*
X81212096Y-37282922D01*
X81236902Y-37305642D01*
X81231432Y-37351371D01*
X81217572Y-37395214D01*
X81188089Y-37458950D01*
X81149078Y-37484045D01*
X81127459Y-37485997D01*
X81074473Y-37476490D01*
X81051845Y-37460979D01*
X81045962Y-37421220D01*
X81051559Y-37355955D01*
X81053649Y-37343930D01*
X81068544Y-37283929D01*
X81092264Y-37262012D01*
X81140171Y-37265781D01*
G37*
G36*
X98041332Y-31136786D02*
G01*
X98065165Y-31173242D01*
X98049591Y-31212805D01*
X98014604Y-31232450D01*
X97973816Y-31238267D01*
X97963702Y-31233745D01*
X97976926Y-31193046D01*
X98006029Y-31153641D01*
X98035156Y-31135330D01*
X98041332Y-31136786D01*
G37*
G36*
X108835903Y-31804932D02*
G01*
X108855349Y-31837327D01*
X108852870Y-31848198D01*
X108826279Y-31847410D01*
X108822754Y-31844381D01*
X108805974Y-31805199D01*
X108805786Y-31801114D01*
X108818699Y-31791651D01*
X108835903Y-31804932D01*
G37*
G36*
X80806956Y-37210936D02*
G01*
X80854333Y-37222079D01*
X80892823Y-37237699D01*
X80908308Y-37265778D01*
X80903074Y-37318951D01*
X80884809Y-37390556D01*
X80864032Y-37449289D01*
X80834574Y-37476631D01*
X80781902Y-37479189D01*
X80714353Y-37468036D01*
X80678420Y-37460326D01*
X80662156Y-37446384D01*
X80663017Y-37413059D01*
X80678460Y-37347197D01*
X80685561Y-37319111D01*
X80710894Y-37244020D01*
X80746639Y-37210675D01*
X80806956Y-37210936D01*
G37*
G36*
X106036304Y-36564250D02*
G01*
X106055750Y-36596646D01*
X106053271Y-36607517D01*
X106026680Y-36606729D01*
X106023154Y-36603699D01*
X106006374Y-36564518D01*
X106006187Y-36560433D01*
X106019100Y-36550970D01*
X106036304Y-36564250D01*
G37*
G36*
X108681805Y-36280256D02*
G01*
X108701412Y-36311854D01*
X108697433Y-36330289D01*
X108674386Y-36323432D01*
X108653591Y-36303145D01*
X108637178Y-36271144D01*
X108648462Y-36264354D01*
X108681805Y-36280256D01*
G37*
G36*
X82563011Y-32575242D02*
G01*
X82535360Y-32389713D01*
X82513697Y-32244417D01*
X82509285Y-32214851D01*
X84089759Y-32214851D01*
X84094265Y-32263197D01*
X84121830Y-32269686D01*
X84173873Y-32236749D01*
X84203061Y-32206853D01*
X84257877Y-32144938D01*
X84331868Y-32058506D01*
X84418578Y-31955058D01*
X84474964Y-31886799D01*
X84736316Y-31568662D01*
X84499636Y-31561291D01*
X84394329Y-31560103D01*
X84308845Y-31563049D01*
X84255514Y-31569516D01*
X84244627Y-31574016D01*
X84230656Y-31607083D01*
X84210429Y-31676198D01*
X84187916Y-31767545D01*
X84183991Y-31784995D01*
X84157268Y-31904043D01*
X84128993Y-32027637D01*
X84106892Y-32122220D01*
X84089759Y-32214851D01*
X82509285Y-32214851D01*
X82499121Y-32146730D01*
X82474710Y-31979784D01*
X82458170Y-31856005D01*
X82449033Y-31768342D01*
X82446832Y-31709748D01*
X82451099Y-31673175D01*
X82461366Y-31651573D01*
X82465952Y-31646566D01*
X82500733Y-31631835D01*
X82580428Y-31611551D01*
X82705681Y-31585606D01*
X82877139Y-31553890D01*
X83095445Y-31516295D01*
X83361243Y-31472711D01*
X83675179Y-31423029D01*
X84037896Y-31367141D01*
X84450039Y-31304937D01*
X84741959Y-31261479D01*
X84899200Y-31237306D01*
X85056468Y-31211599D01*
X85198978Y-31186876D01*
X85311948Y-31165656D01*
X85346418Y-31158525D01*
X85543662Y-31115909D01*
X85543662Y-30835388D01*
X85545133Y-30724954D01*
X85549124Y-30638247D01*
X85555006Y-30584685D01*
X85561277Y-30572483D01*
X85569925Y-30603577D01*
X85579961Y-30674500D01*
X85590058Y-30774254D01*
X85597849Y-30875773D01*
X85603226Y-30930792D01*
X85614727Y-31029230D01*
X85631744Y-31166621D01*
X85653667Y-31338501D01*
X85679888Y-31540407D01*
X85709798Y-31767875D01*
X85742788Y-32016440D01*
X85778249Y-32281638D01*
X85815571Y-32559005D01*
X85854148Y-32844076D01*
X85893368Y-33132389D01*
X85932624Y-33419478D01*
X85971307Y-33700880D01*
X86008807Y-33972130D01*
X86044516Y-34228764D01*
X86077825Y-34466319D01*
X86108125Y-34680330D01*
X86134807Y-34866332D01*
X86157263Y-35019862D01*
X86174882Y-35136456D01*
X86187058Y-35211650D01*
X86193179Y-35240979D01*
X86193263Y-35241102D01*
X86218973Y-35250014D01*
X86282511Y-35267357D01*
X86372136Y-35289988D01*
X86412261Y-35299722D01*
X86615855Y-35334231D01*
X86802268Y-35337617D01*
X86961859Y-35310057D01*
X87019814Y-35288744D01*
X87108676Y-35256827D01*
X87199679Y-35234676D01*
X87201751Y-35234339D01*
X87315560Y-35195257D01*
X87397355Y-35124862D01*
X87441972Y-35032141D01*
X87444249Y-34926078D01*
X87420382Y-34853828D01*
X87368158Y-34790077D01*
X87277209Y-34724536D01*
X87159096Y-34663293D01*
X87025382Y-34612437D01*
X86901469Y-34580619D01*
X86811188Y-34557510D01*
X86735361Y-34528234D01*
X86701678Y-34507788D01*
X86637623Y-34460958D01*
X86587149Y-34431347D01*
X86529568Y-34395060D01*
X86450482Y-34336836D01*
X86365459Y-34269110D01*
X86290067Y-34204316D01*
X86239875Y-34154890D01*
X86237462Y-34152031D01*
X86209834Y-34110088D01*
X86169147Y-34038769D01*
X86129296Y-33963345D01*
X86079258Y-33848357D01*
X86056417Y-33744630D01*
X86052874Y-33670660D01*
X86070143Y-33504101D01*
X86117225Y-33324332D01*
X86187658Y-33153850D01*
X86216621Y-33100555D01*
X86334515Y-32945750D01*
X86495025Y-32804974D01*
X86691038Y-32681387D01*
X86915442Y-32578145D01*
X87161125Y-32498406D01*
X87420976Y-32445329D01*
X87687881Y-32422070D01*
X87746572Y-32421268D01*
X87910930Y-32425766D01*
X88032479Y-32439807D01*
X88113688Y-32462207D01*
X88216007Y-32503147D01*
X88216007Y-32777162D01*
X88214501Y-32899425D01*
X88210440Y-33010851D01*
X88204508Y-33096517D01*
X88199720Y-33132610D01*
X88183434Y-33214043D01*
X88053378Y-33193056D01*
X87939310Y-33180510D01*
X87801412Y-33174085D01*
X87654502Y-33173538D01*
X87513398Y-33178628D01*
X87392918Y-33189114D01*
X87307880Y-33204752D01*
X87306193Y-33205250D01*
X87228850Y-33239990D01*
X87146626Y-33294704D01*
X87071897Y-33358720D01*
X87017039Y-33421369D01*
X86994426Y-33471981D01*
X86994363Y-33474108D01*
X87010734Y-33515154D01*
X87052998Y-33576509D01*
X87094797Y-33625752D01*
X87148530Y-33677867D01*
X87210620Y-33722906D01*
X87292086Y-33767147D01*
X87403951Y-33816867D01*
X87495649Y-33854090D01*
X87628902Y-33910395D01*
X87761711Y-33972267D01*
X87877583Y-34031710D01*
X87951995Y-34075366D01*
X88115044Y-34210513D01*
X88239313Y-34373778D01*
X88323202Y-34558516D01*
X88365112Y-34758081D01*
X88363445Y-34965828D01*
X88316601Y-35175111D01*
X88252775Y-35325394D01*
X88196688Y-35420732D01*
X88126187Y-35521983D01*
X88050455Y-35617804D01*
X87978681Y-35696848D01*
X87920048Y-35747772D01*
X87902906Y-35757484D01*
X87852081Y-35790764D01*
X87847527Y-35828963D01*
X87865893Y-35886853D01*
X87859586Y-35915384D01*
X87840606Y-35926069D01*
X87813067Y-35916736D01*
X87808792Y-35898939D01*
X87801451Y-35863091D01*
X87774341Y-35849397D01*
X87719829Y-35858111D01*
X87630283Y-35889489D01*
X87588159Y-35906318D01*
X87472452Y-35949076D01*
X87339605Y-35991445D01*
X87203890Y-36029561D01*
X87079579Y-36059556D01*
X86980946Y-36077564D01*
X86943462Y-36080942D01*
X86768093Y-36084347D01*
X86611702Y-36084366D01*
X86483587Y-36081155D01*
X86393050Y-36074871D01*
X86368275Y-36071316D01*
X86306367Y-36068882D01*
X86210832Y-36075551D01*
X86097854Y-36089937D01*
X86041260Y-36099341D01*
X85929555Y-36120027D01*
X85858694Y-36136337D01*
X85819385Y-36152690D01*
X85802337Y-36173506D01*
X85798256Y-36203203D01*
X85798171Y-36214955D01*
X85790010Y-36272603D01*
X85772720Y-36302530D01*
X85754695Y-36292585D01*
X85747282Y-36243068D01*
X85747269Y-36240405D01*
X85739530Y-36186157D01*
X85720833Y-36162582D01*
X85720058Y-36162550D01*
X85690253Y-36166935D01*
X85615346Y-36179505D01*
X85500327Y-36199381D01*
X85350181Y-36225686D01*
X85169897Y-36257541D01*
X84964463Y-36294069D01*
X84738866Y-36334392D01*
X84498094Y-36377631D01*
X84491140Y-36378883D01*
X84249462Y-36422242D01*
X84022355Y-36462701D01*
X83814881Y-36499379D01*
X83632099Y-36531395D01*
X83479069Y-36557868D01*
X83360850Y-36577916D01*
X83282502Y-36590658D01*
X83249086Y-36595214D01*
X83248923Y-36595216D01*
X83198144Y-36577048D01*
X83179898Y-36560859D01*
X83171719Y-36530783D01*
X83156804Y-36454256D01*
X83135783Y-36335191D01*
X83109284Y-36177503D01*
X83077935Y-35985106D01*
X83042366Y-35761916D01*
X83003206Y-35511846D01*
X82961083Y-35238811D01*
X82916626Y-34946726D01*
X82870464Y-34639504D01*
X82860001Y-34569326D01*
X82811843Y-34245880D01*
X82764322Y-33926739D01*
X82718201Y-33617035D01*
X82674244Y-33321901D01*
X82633218Y-33046469D01*
X82633162Y-33046096D01*
X83687360Y-33046096D01*
X83691146Y-33087524D01*
X83722520Y-33135873D01*
X83773418Y-33195116D01*
X83838452Y-33269065D01*
X83838452Y-34354961D01*
X83838659Y-34637360D01*
X83839619Y-34873809D01*
X83841841Y-35069260D01*
X83845833Y-35228663D01*
X83852106Y-35356969D01*
X83861166Y-35459131D01*
X83873523Y-35540098D01*
X83889686Y-35604823D01*
X83910164Y-35658257D01*
X83935464Y-35705351D01*
X83966097Y-35751055D01*
X83984486Y-35776164D01*
X84040992Y-35839698D01*
X84113640Y-35905204D01*
X84188891Y-35962188D01*
X84253204Y-36000158D01*
X84286017Y-36009845D01*
X84316553Y-35994549D01*
X84378347Y-35952492D01*
X84463484Y-35889423D01*
X84564053Y-35811089D01*
X84606697Y-35776876D01*
X84710866Y-35692472D01*
X84801703Y-35618625D01*
X84871458Y-35561655D01*
X84912379Y-35527881D01*
X84918842Y-35522367D01*
X84926069Y-35488700D01*
X84913786Y-35471593D01*
X84879474Y-35457701D01*
X84828354Y-35479327D01*
X84819359Y-35485075D01*
X84748860Y-35510480D01*
X84682992Y-35488648D01*
X84618124Y-35418016D01*
X84600712Y-35391036D01*
X84588323Y-35368399D01*
X84578191Y-35341719D01*
X84570089Y-35305971D01*
X84563790Y-35256132D01*
X84559067Y-35187175D01*
X84555696Y-35094075D01*
X84553449Y-34971809D01*
X84552100Y-34815350D01*
X84551422Y-34619674D01*
X84551189Y-34379755D01*
X84551172Y-34291345D01*
X84551077Y-33272745D01*
X84629082Y-33178111D01*
X84671618Y-33118018D01*
X84692095Y-33071585D01*
X84691250Y-33057852D01*
X84666377Y-33032883D01*
X84609799Y-32983070D01*
X84529587Y-32915333D01*
X84433812Y-32836588D01*
X84420792Y-32826028D01*
X84315049Y-32741401D01*
X84240845Y-32685499D01*
X84190866Y-32654158D01*
X84157802Y-32643213D01*
X84134341Y-32648500D01*
X84123203Y-32656542D01*
X84086077Y-32687559D01*
X84019971Y-32742139D01*
X83935345Y-32811664D01*
X83870492Y-32864769D01*
X83774137Y-32944574D01*
X83714058Y-33001731D01*
X83687360Y-33046096D01*
X82633162Y-33046096D01*
X82595885Y-32795872D01*
X82563011Y-32575242D01*
G37*
G36*
X108063778Y-32660621D02*
G01*
X108090886Y-32684280D01*
X108093161Y-32690004D01*
X108081083Y-32700465D01*
X108055936Y-32677025D01*
X108052554Y-32671844D01*
X108049555Y-32654428D01*
X108063778Y-32660621D01*
G37*
G36*
X109213001Y-31135997D02*
G01*
X109237280Y-31158868D01*
X109238452Y-31162950D01*
X109218760Y-31173882D01*
X109213001Y-31174174D01*
X109188528Y-31154608D01*
X109187550Y-31147221D01*
X109203142Y-31132020D01*
X109213001Y-31135997D01*
G37*
G36*
X70350945Y-36464135D02*
G01*
X70366936Y-36551499D01*
X70367885Y-36642076D01*
X70367863Y-36642292D01*
X70358030Y-36735196D01*
X70353752Y-36642936D01*
X70346879Y-36551085D01*
X70336834Y-36464780D01*
X70324195Y-36378883D01*
X70350945Y-36464135D01*
G37*
G36*
X108491160Y-36093867D02*
G01*
X108519464Y-36108377D01*
X108567321Y-36139886D01*
X108573076Y-36158969D01*
X108554394Y-36162550D01*
X108521866Y-36145023D01*
X108497129Y-36120207D01*
X108476485Y-36091992D01*
X108491160Y-36093867D01*
G37*
G36*
X101892612Y-37238087D02*
G01*
X101929325Y-37291814D01*
X101931049Y-37295295D01*
X101968996Y-37372827D01*
X102001495Y-37438314D01*
X102035010Y-37505160D01*
X101844546Y-37508847D01*
X101744326Y-37508876D01*
X101685502Y-37503038D01*
X101658740Y-37489654D01*
X101654083Y-37474559D01*
X101668819Y-37427212D01*
X101705926Y-37363551D01*
X101754754Y-37297443D01*
X101804650Y-37242756D01*
X101844964Y-37213359D01*
X101855924Y-37211768D01*
X101892612Y-37238087D01*
G37*
G36*
X107500878Y-31856230D02*
G01*
X107545964Y-31867151D01*
X107544771Y-31878065D01*
X107519804Y-31889057D01*
X107454100Y-31906652D01*
X107421959Y-31910461D01*
X107390092Y-31904836D01*
X107402639Y-31878108D01*
X107403032Y-31877634D01*
X107451780Y-31854518D01*
X107500878Y-31856230D01*
G37*
G36*
X107707465Y-31311723D02*
G01*
X107734788Y-31337349D01*
X107729183Y-31352082D01*
X107725625Y-31352330D01*
X107704098Y-31334253D01*
X107696242Y-31322947D01*
X107693242Y-31305531D01*
X107707465Y-31311723D01*
G37*
G36*
X108041597Y-31958030D02*
G01*
X108051463Y-31975877D01*
X108059730Y-32009007D01*
X108057302Y-32014053D01*
X108036039Y-31997222D01*
X108016808Y-31975877D01*
X108001322Y-31944873D01*
X108010969Y-31937701D01*
X108041597Y-31958030D01*
G37*
G36*
X107685947Y-32204935D02*
G01*
X107710226Y-32227805D01*
X107711397Y-32231888D01*
X107691706Y-32242820D01*
X107685947Y-32243111D01*
X107661474Y-32223546D01*
X107660496Y-32216158D01*
X107676088Y-32200958D01*
X107685947Y-32204935D01*
G37*
G36*
X70449455Y-31552299D02*
G01*
X70461935Y-31572451D01*
X70470606Y-31616609D01*
X70452601Y-31620230D01*
X70428217Y-31596994D01*
X70412959Y-31559241D01*
X70421924Y-31545624D01*
X70449455Y-31552299D01*
G37*
G36*
X108220416Y-32306739D02*
G01*
X108244695Y-32329609D01*
X108245866Y-32333692D01*
X108226175Y-32344623D01*
X108220416Y-32344915D01*
X108195943Y-32325350D01*
X108194965Y-32317962D01*
X108210557Y-32302762D01*
X108220416Y-32306739D01*
G37*
G36*
X72053944Y-30633621D02*
G01*
X72054684Y-30639705D01*
X72035317Y-30664416D01*
X72029233Y-30665155D01*
X72004522Y-30645788D01*
X72003782Y-30639705D01*
X72023150Y-30614993D01*
X72029233Y-30614254D01*
X72053944Y-30633621D01*
G37*
G36*
X108092125Y-36893651D02*
G01*
X108093161Y-36900626D01*
X108084478Y-36925416D01*
X108081938Y-36926077D01*
X108060208Y-36908243D01*
X108054985Y-36900626D01*
X108057003Y-36877174D01*
X108066208Y-36875176D01*
X108092125Y-36893651D01*
G37*
G36*
X108455458Y-36706330D02*
G01*
X108518177Y-36719757D01*
X108551277Y-36723911D01*
X108567032Y-36731528D01*
X108538552Y-36747921D01*
X108469474Y-36769481D01*
X108429466Y-36758231D01*
X108413642Y-36732128D01*
X108411069Y-36703546D01*
X108443648Y-36703372D01*
X108455458Y-36706330D01*
G37*
G36*
X108225082Y-31321365D02*
G01*
X108244527Y-31353760D01*
X108242049Y-31364631D01*
X108215458Y-31363843D01*
X108211932Y-31360813D01*
X108195152Y-31321632D01*
X108194965Y-31317547D01*
X108207877Y-31308084D01*
X108225082Y-31321365D01*
G37*
G36*
X101983214Y-32938567D02*
G01*
X102020185Y-32944363D01*
X102170054Y-32987067D01*
X102279300Y-33058269D01*
X102294485Y-33074023D01*
X102310530Y-33097062D01*
X102319692Y-33127982D01*
X102321403Y-33174184D01*
X102315093Y-33243068D01*
X102300195Y-33342034D01*
X102276140Y-33478483D01*
X102254390Y-33595764D01*
X102253671Y-33646597D01*
X102284324Y-33678732D01*
X102319132Y-33695190D01*
X102404257Y-33740541D01*
X102450257Y-33797473D01*
X102467415Y-33881655D01*
X102468512Y-33922842D01*
X102463415Y-34005408D01*
X102443043Y-34057880D01*
X102402303Y-34098511D01*
X102328731Y-34140528D01*
X102247565Y-34167199D01*
X102185739Y-34185668D01*
X102150385Y-34209134D01*
X102148693Y-34212407D01*
X102140995Y-34245050D01*
X102125424Y-34319834D01*
X102103552Y-34428884D01*
X102076955Y-34564325D01*
X102047206Y-34718280D01*
X102038694Y-34762751D01*
X102003743Y-34946894D01*
X101978828Y-35088114D01*
X101964682Y-35193532D01*
X101962036Y-35270268D01*
X101971623Y-35325443D01*
X101994175Y-35366178D01*
X102030425Y-35399594D01*
X102081105Y-35432812D01*
X102109362Y-35449925D01*
X102175180Y-35495895D01*
X102201744Y-35534028D01*
X102200692Y-35564454D01*
X102188747Y-35616581D01*
X102172265Y-35698503D01*
X102159270Y-35768061D01*
X102142211Y-35851239D01*
X102125823Y-35912552D01*
X102115595Y-35935762D01*
X102083042Y-35940037D01*
X102019881Y-35933248D01*
X101988669Y-35927380D01*
X101916572Y-35903653D01*
X101818492Y-35860207D01*
X101711297Y-35804794D01*
X101667768Y-35779908D01*
X101570312Y-35721398D01*
X101507643Y-35678617D01*
X101470530Y-35641727D01*
X101449743Y-35600892D01*
X101436055Y-35546275D01*
X101432663Y-35529330D01*
X101420257Y-35435052D01*
X101428996Y-35362846D01*
X101445718Y-35318219D01*
X101468899Y-35242531D01*
X101485174Y-35144888D01*
X101489110Y-35093612D01*
X101497165Y-35006000D01*
X101514288Y-34888384D01*
X101537470Y-34760209D01*
X101550198Y-34699123D01*
X101597042Y-34472923D01*
X101627968Y-34294621D01*
X101642962Y-34164328D01*
X101642012Y-34082155D01*
X101627424Y-34049379D01*
X101580164Y-34037824D01*
X101565707Y-34040652D01*
X101522623Y-34033634D01*
X101482488Y-33989777D01*
X101454063Y-33922809D01*
X101445780Y-33852691D01*
X101457032Y-33714525D01*
X101480010Y-33622807D01*
X101516652Y-33574030D01*
X101568899Y-33564688D01*
X101600404Y-33573301D01*
X101659754Y-33589879D01*
X101702766Y-33582808D01*
X101735033Y-33545446D01*
X101762148Y-33471151D01*
X101789702Y-33353281D01*
X101791029Y-33346909D01*
X101816977Y-33232034D01*
X101844959Y-33124195D01*
X101870058Y-33041931D01*
X101876665Y-33024068D01*
X101903955Y-32963192D01*
X101932958Y-32938309D01*
X101983214Y-32938567D01*
G37*
G36*
X85772720Y-36378883D02*
G01*
X85759995Y-36391608D01*
X85747269Y-36378883D01*
X85759995Y-36366157D01*
X85772720Y-36378883D01*
G37*
G36*
X95612685Y-35870499D02*
G01*
X95587966Y-35804681D01*
X95550158Y-35764905D01*
X95482030Y-35734245D01*
X95469514Y-35729862D01*
X95406714Y-35704329D01*
X95361783Y-35671443D01*
X95322479Y-35618400D01*
X95299670Y-35575677D01*
X95673121Y-35575677D01*
X95691596Y-35601595D01*
X95698572Y-35602630D01*
X95723361Y-35593947D01*
X95724023Y-35591407D01*
X95706188Y-35569678D01*
X95698572Y-35564454D01*
X95675119Y-35566472D01*
X95673121Y-35575677D01*
X95299670Y-35575677D01*
X95276561Y-35532391D01*
X95271983Y-35523196D01*
X95241926Y-35462650D01*
X95647670Y-35462650D01*
X95660989Y-35496526D01*
X95672322Y-35500827D01*
X95686326Y-35482171D01*
X95682325Y-35462650D01*
X95664260Y-35429163D01*
X95657673Y-35424474D01*
X95648776Y-35445257D01*
X95647670Y-35462650D01*
X95241926Y-35462650D01*
X95188982Y-35355999D01*
X95148705Y-34467641D01*
X95136931Y-34193795D01*
X95128554Y-33961989D01*
X95123491Y-33763481D01*
X95121661Y-33589527D01*
X95122979Y-33431386D01*
X95127364Y-33280315D01*
X95134732Y-33127570D01*
X95135829Y-33108442D01*
X95146316Y-32920367D01*
X95157085Y-32713635D01*
X95167152Y-32508021D01*
X95175535Y-32323298D01*
X95178860Y-32243111D01*
X95194492Y-31848622D01*
X95068184Y-30997713D01*
X95239975Y-30997713D01*
X95244471Y-31011224D01*
X95256177Y-31043294D01*
X95252280Y-31080292D01*
X95252523Y-31113983D01*
X95257497Y-31194312D01*
X95266847Y-31317273D01*
X95280217Y-31478857D01*
X95297252Y-31675056D01*
X95317597Y-31901863D01*
X95340897Y-32155268D01*
X95366797Y-32431266D01*
X95394942Y-32725847D01*
X95424975Y-33035003D01*
X95430343Y-33089732D01*
X95460879Y-33401615D01*
X95489916Y-33700049D01*
X95517069Y-33980972D01*
X95541956Y-34240325D01*
X95564191Y-34474045D01*
X95583390Y-34678072D01*
X95599171Y-34848344D01*
X95611148Y-34980800D01*
X95618937Y-35071380D01*
X95622154Y-35116021D01*
X95622219Y-35118643D01*
X95630195Y-35172359D01*
X95655410Y-35181076D01*
X95656051Y-35180836D01*
X95686859Y-35194076D01*
X95716284Y-35256548D01*
X95720290Y-35269348D01*
X95757399Y-35349494D01*
X95809735Y-35416488D01*
X95819909Y-35425282D01*
X95864154Y-35463410D01*
X95871232Y-35487114D01*
X95845203Y-35511831D01*
X95843075Y-35513392D01*
X95812313Y-35545652D01*
X95820436Y-35583577D01*
X95830275Y-35600297D01*
X95876111Y-35647469D01*
X95923315Y-35643888D01*
X95942449Y-35628533D01*
X95979189Y-35623689D01*
X96041616Y-35642155D01*
X96114485Y-35676985D01*
X96182551Y-35721229D01*
X96220042Y-35755034D01*
X96268181Y-35788339D01*
X96322994Y-35780454D01*
X96363848Y-35774339D01*
X96422237Y-35784460D01*
X96507617Y-35813316D01*
X96617914Y-35858469D01*
X96721215Y-35897540D01*
X96842724Y-35935676D01*
X96971646Y-35970424D01*
X97097183Y-35999335D01*
X97208540Y-36019957D01*
X97294920Y-36029838D01*
X97345526Y-36026527D01*
X97349605Y-36024595D01*
X97384591Y-36025956D01*
X97402209Y-36034323D01*
X97451375Y-36045615D01*
X97539351Y-36047881D01*
X97566217Y-36046519D01*
X99439854Y-36046519D01*
X99453142Y-36081341D01*
X99465305Y-36086198D01*
X99490028Y-36067931D01*
X99490756Y-36062249D01*
X99472256Y-36027780D01*
X99465305Y-36022570D01*
X99443517Y-36028340D01*
X99439854Y-36046519D01*
X97566217Y-36046519D01*
X97655021Y-36042017D01*
X97787270Y-36028918D01*
X97924983Y-36009479D01*
X98057044Y-35984596D01*
X98078231Y-35979867D01*
X98303888Y-35908402D01*
X98541215Y-35797043D01*
X98779604Y-35651663D01*
X99008445Y-35478134D01*
X99051715Y-35440936D01*
X99189778Y-35291964D01*
X99306223Y-35111902D01*
X99394758Y-34914430D01*
X99449089Y-34713225D01*
X99463634Y-34545761D01*
X99462203Y-34441580D01*
X99460772Y-34340283D01*
X99460067Y-34291909D01*
X99460790Y-34198143D01*
X99464595Y-34107295D01*
X99465030Y-34101027D01*
X99465383Y-34006380D01*
X99456732Y-33885794D01*
X99441214Y-33754703D01*
X99420969Y-33628539D01*
X99398133Y-33522735D01*
X99375363Y-33453803D01*
X99301132Y-33343252D01*
X99196125Y-33263384D01*
X99057095Y-33213022D01*
X98880791Y-33190992D01*
X98663967Y-33196116D01*
X98663602Y-33196144D01*
X98535910Y-33205747D01*
X98404603Y-33215244D01*
X98294263Y-33222866D01*
X98275946Y-33224070D01*
X98148931Y-33245952D01*
X98033160Y-33290486D01*
X97942514Y-33350900D01*
X97895622Y-33409608D01*
X97889343Y-33446928D01*
X97883813Y-33526922D01*
X97879331Y-33641362D01*
X97876196Y-33782023D01*
X97874706Y-33940677D01*
X97874624Y-33988207D01*
X97874223Y-34169856D01*
X97872622Y-34308188D01*
X97869225Y-34410784D01*
X97863436Y-34485224D01*
X97854657Y-34539089D01*
X97842293Y-34579961D01*
X97825746Y-34615420D01*
X97825190Y-34616459D01*
X97753194Y-34702771D01*
X97652669Y-34762413D01*
X97538976Y-34790408D01*
X97427479Y-34781783D01*
X97376531Y-34761745D01*
X97341963Y-34726440D01*
X97302749Y-34663211D01*
X97289474Y-34635986D01*
X97254019Y-34573697D01*
X97221422Y-34543837D01*
X97211308Y-34543507D01*
X97184284Y-34529856D01*
X97154859Y-34478660D01*
X97126568Y-34402928D01*
X97102946Y-34315669D01*
X97087524Y-34229895D01*
X97083838Y-34158614D01*
X97095013Y-34115362D01*
X97100676Y-34079013D01*
X97097540Y-34006567D01*
X97086380Y-33911917D01*
X97082146Y-33884695D01*
X97052352Y-33700160D01*
X97030309Y-33556882D01*
X97014911Y-33445991D01*
X97005051Y-33358619D01*
X96999623Y-33285897D01*
X96997519Y-33218957D01*
X96997401Y-33205540D01*
X96992421Y-33111821D01*
X96980569Y-33028994D01*
X96971041Y-32993714D01*
X96962909Y-32952605D01*
X96951750Y-32867328D01*
X96938230Y-32744487D01*
X96923014Y-32590680D01*
X96906770Y-32412510D01*
X96890161Y-32216576D01*
X96880558Y-32096552D01*
X96862384Y-31859779D01*
X96848603Y-31667923D01*
X96839007Y-31515208D01*
X96833392Y-31395860D01*
X96831550Y-31304101D01*
X96833277Y-31234157D01*
X96838366Y-31180250D01*
X96846364Y-31137637D01*
X96899185Y-30986532D01*
X96973901Y-30869703D01*
X97064707Y-30789860D01*
X97165798Y-30749713D01*
X97271368Y-30751970D01*
X97375611Y-30799342D01*
X97443138Y-30859099D01*
X97502310Y-30947993D01*
X97558758Y-31078354D01*
X97609536Y-31240749D01*
X97651697Y-31425743D01*
X97682296Y-31623903D01*
X97682485Y-31625503D01*
X97700869Y-31766191D01*
X97720298Y-31866656D01*
X97745178Y-31937465D01*
X97779918Y-31989186D01*
X97828923Y-32032386D01*
X97861644Y-32055082D01*
X97965244Y-32123641D01*
X98436342Y-32108797D01*
X98607872Y-32102785D01*
X98737186Y-32096379D01*
X98832966Y-32088540D01*
X98903895Y-32078231D01*
X98958653Y-32064411D01*
X99005924Y-32046042D01*
X99021373Y-32038798D01*
X99095373Y-31995150D01*
X99151867Y-31947992D01*
X99166689Y-31928859D01*
X99182309Y-31872237D01*
X99192566Y-31768006D01*
X99197209Y-31619204D01*
X99197460Y-31555937D01*
X99190983Y-31375363D01*
X99173526Y-31188503D01*
X99147043Y-31006337D01*
X99113489Y-30839847D01*
X99074821Y-30700017D01*
X99032993Y-30597826D01*
X99024120Y-30582386D01*
X98984129Y-30513428D01*
X98934633Y-30422239D01*
X98900001Y-30355372D01*
X98830981Y-30246094D01*
X98734236Y-30129183D01*
X98666378Y-30060720D01*
X98592216Y-29995171D01*
X98518053Y-29939853D01*
X98432502Y-29887984D01*
X98324174Y-29832778D01*
X98181681Y-29767452D01*
X98151989Y-29754300D01*
X98110086Y-29736198D01*
X99210796Y-29736198D01*
X99223522Y-29748923D01*
X99236247Y-29736198D01*
X99223522Y-29723472D01*
X99210796Y-29736198D01*
X98110086Y-29736198D01*
X98003828Y-29690295D01*
X97887884Y-29644501D01*
X97790648Y-29612776D01*
X97698608Y-29590975D01*
X97598253Y-29574955D01*
X97545926Y-29568427D01*
X97394965Y-29555310D01*
X97232203Y-29549056D01*
X97068427Y-29549270D01*
X96914429Y-29555558D01*
X96780998Y-29567527D01*
X96678923Y-29584783D01*
X96627443Y-29601949D01*
X96557011Y-29630237D01*
X96464135Y-29658114D01*
X96416288Y-29669479D01*
X96242225Y-29721812D01*
X96105284Y-29795989D01*
X96067610Y-29826446D01*
X96015998Y-29864358D01*
X95939529Y-29910785D01*
X95852856Y-29957992D01*
X95770630Y-29998243D01*
X95707503Y-30023804D01*
X95684157Y-30028883D01*
X95647372Y-30049330D01*
X95620717Y-30086147D01*
X95579380Y-30146306D01*
X95533583Y-30194314D01*
X95493965Y-30243763D01*
X95447396Y-30323345D01*
X95406246Y-30410646D01*
X95365135Y-30517559D01*
X95325674Y-30634612D01*
X95290646Y-30751480D01*
X95262833Y-30857837D01*
X95245015Y-30943357D01*
X95239975Y-30997713D01*
X95068184Y-30997713D01*
X95030153Y-30741508D01*
X95189554Y-30741508D01*
X95198866Y-30762457D01*
X95206521Y-30758475D01*
X95209567Y-30728271D01*
X95206521Y-30724541D01*
X95191391Y-30728035D01*
X95189554Y-30741508D01*
X95030153Y-30741508D01*
X94988596Y-30461548D01*
X94949578Y-30198500D01*
X94912470Y-29947959D01*
X94878010Y-29714935D01*
X94846938Y-29504439D01*
X94819991Y-29321483D01*
X94797907Y-29171078D01*
X94781426Y-29058234D01*
X94771286Y-28987964D01*
X94768675Y-28969245D01*
X94767058Y-28885146D01*
X94794028Y-28827493D01*
X94857238Y-28787571D01*
X94934162Y-28764821D01*
X95503448Y-28764821D01*
X95506942Y-28779952D01*
X95520416Y-28781789D01*
X95541365Y-28772477D01*
X95537383Y-28764821D01*
X95507179Y-28761775D01*
X95503448Y-28764821D01*
X94934162Y-28764821D01*
X94953185Y-28759195D01*
X94999570Y-28751694D01*
X95091921Y-28739622D01*
X95094002Y-28739371D01*
X95834310Y-28739371D01*
X95837804Y-28754501D01*
X95851277Y-28756338D01*
X95872226Y-28747026D01*
X95868245Y-28739371D01*
X95838040Y-28736325D01*
X95834310Y-28739371D01*
X95094002Y-28739371D01*
X95225556Y-28723504D01*
X95395795Y-28703861D01*
X95597957Y-28681217D01*
X95827360Y-28656096D01*
X95960302Y-28641809D01*
X99159894Y-28641809D01*
X99172620Y-28654534D01*
X99185345Y-28641809D01*
X99172620Y-28629083D01*
X99159894Y-28641809D01*
X95960302Y-28641809D01*
X96079324Y-28629018D01*
X96349169Y-28600509D01*
X96632213Y-28571090D01*
X96686959Y-28565456D01*
X99058091Y-28565456D01*
X99070816Y-28578182D01*
X99083542Y-28565456D01*
X99070816Y-28552731D01*
X99058091Y-28565456D01*
X96686959Y-28565456D01*
X96691157Y-28565024D01*
X96976887Y-28535501D01*
X97250821Y-28506877D01*
X97508218Y-28479667D01*
X97744338Y-28454387D01*
X97954438Y-28431555D01*
X98133778Y-28411685D01*
X98277617Y-28395294D01*
X98381214Y-28382898D01*
X98439828Y-28375013D01*
X98445581Y-28374051D01*
X98577305Y-28356453D01*
X98708728Y-28349469D01*
X98827106Y-28352796D01*
X98919697Y-28366133D01*
X98970511Y-28386490D01*
X99028029Y-28411694D01*
X99106410Y-28425871D01*
X99121718Y-28426676D01*
X99177566Y-28430960D01*
X99197782Y-28438405D01*
X99193471Y-28441744D01*
X99182381Y-28466795D01*
X99204604Y-28522822D01*
X99217797Y-28546155D01*
X99250075Y-28612551D01*
X99247907Y-28645137D01*
X99242144Y-28648327D01*
X99227296Y-28668723D01*
X99248793Y-28714314D01*
X99249227Y-28714978D01*
X99272882Y-28763418D01*
X99262119Y-28804769D01*
X99248136Y-28826161D01*
X99227329Y-28895147D01*
X99233616Y-28996134D01*
X99266075Y-29118624D01*
X99276284Y-29146498D01*
X99275893Y-29181680D01*
X99248973Y-29189003D01*
X99218754Y-29200745D01*
X99224699Y-29233542D01*
X99246140Y-29299627D01*
X99270329Y-29399279D01*
X99294162Y-29516027D01*
X99314538Y-29633402D01*
X99328353Y-29734934D01*
X99332504Y-29804155D01*
X99332450Y-29805494D01*
X99333591Y-29871428D01*
X99341868Y-29912819D01*
X99344216Y-29916278D01*
X99347929Y-29949150D01*
X99335223Y-29998144D01*
X99326574Y-30050562D01*
X99326410Y-30142534D01*
X99334866Y-30277518D01*
X99352072Y-30458973D01*
X99353264Y-30470263D01*
X99369477Y-30631970D01*
X99378878Y-30750588D01*
X99381663Y-30833447D01*
X99378027Y-30887875D01*
X99368167Y-30921201D01*
X99365454Y-30925996D01*
X99348156Y-30973711D01*
X99371950Y-31016847D01*
X99372576Y-31017543D01*
X99395655Y-31066535D01*
X99407842Y-31153928D01*
X99410483Y-31250526D01*
X99413233Y-31325067D01*
X99420909Y-31435605D01*
X99432573Y-31573408D01*
X99447287Y-31729743D01*
X99464113Y-31895876D01*
X99482113Y-32063074D01*
X99500348Y-32222603D01*
X99517880Y-32365731D01*
X99533772Y-32483724D01*
X99547084Y-32567850D01*
X99556317Y-32608010D01*
X99555811Y-32643904D01*
X99535915Y-32650326D01*
X99515637Y-32659698D01*
X99509191Y-32694972D01*
X99515197Y-32766881D01*
X99518077Y-32788868D01*
X99531923Y-32871922D01*
X99547217Y-32935898D01*
X99555926Y-32958232D01*
X99560360Y-32977128D01*
X99545590Y-32970892D01*
X99520016Y-32973086D01*
X99511717Y-33009136D01*
X99518794Y-33044815D01*
X99522639Y-33079557D01*
X99526224Y-33153309D01*
X99529078Y-33254177D01*
X99530422Y-33337500D01*
X99534921Y-33469242D01*
X99544486Y-33600705D01*
X99557453Y-33711820D01*
X99565020Y-33755043D01*
X99582533Y-33870327D01*
X99578943Y-33965456D01*
X99568125Y-34018457D01*
X99552896Y-34098603D01*
X99558190Y-34148096D01*
X99571031Y-34169380D01*
X99591064Y-34214813D01*
X99608812Y-34290379D01*
X99622066Y-34378869D01*
X99628619Y-34463071D01*
X99626262Y-34525775D01*
X99619386Y-34546270D01*
X99606829Y-34583454D01*
X99593797Y-34655213D01*
X99584018Y-34737300D01*
X99577771Y-34833819D01*
X99583380Y-34900478D01*
X99604404Y-34957633D01*
X99630521Y-35003419D01*
X99692400Y-35104107D01*
X99629755Y-35186240D01*
X99586392Y-35254214D01*
X99568296Y-35306587D01*
X99577093Y-35334147D01*
X99603991Y-35332371D01*
X99622963Y-35332520D01*
X99631766Y-35357820D01*
X99631653Y-35417373D01*
X99626176Y-35493533D01*
X99619554Y-35586660D01*
X99621396Y-35643222D01*
X99635065Y-35677301D01*
X99663921Y-35702979D01*
X99678513Y-35712772D01*
X99722956Y-35745893D01*
X99729741Y-35775418D01*
X99703699Y-35824123D01*
X99702532Y-35826005D01*
X99654106Y-35896203D01*
X99610609Y-35950735D01*
X99581223Y-35987969D01*
X99577711Y-36018021D01*
X99601956Y-36060163D01*
X99624279Y-36090715D01*
X99680159Y-36168336D01*
X99707067Y-36213440D01*
X99707731Y-36233335D01*
X99684878Y-36235330D01*
X99677829Y-36234242D01*
X99623196Y-36209874D01*
X99604013Y-36192157D01*
X99580513Y-36176865D01*
X99557374Y-36203299D01*
X99547294Y-36223971D01*
X99515022Y-36273377D01*
X99484939Y-36293781D01*
X99435432Y-36300310D01*
X99388953Y-36306749D01*
X99325287Y-36314144D01*
X99238020Y-36322427D01*
X99198071Y-36325741D01*
X99114476Y-36332848D01*
X98995762Y-36343680D01*
X98849951Y-36357437D01*
X98685066Y-36373321D01*
X98509130Y-36390534D01*
X98330165Y-36408275D01*
X98156195Y-36425746D01*
X97995242Y-36442149D01*
X97855330Y-36456685D01*
X97744480Y-36468554D01*
X97670716Y-36476958D01*
X97645566Y-36480330D01*
X97396094Y-36514983D01*
X97108375Y-36541952D01*
X96823125Y-36558855D01*
X96680619Y-36567383D01*
X96543048Y-36579567D01*
X96425218Y-36593847D01*
X96341934Y-36608665D01*
X96335860Y-36610172D01*
X96201176Y-36638640D01*
X96106303Y-36643185D01*
X96046121Y-36623806D01*
X96031198Y-36610067D01*
X96016735Y-36578194D01*
X96047170Y-36559985D01*
X96046732Y-36554605D01*
X96004250Y-36552982D01*
X95928462Y-36555340D01*
X95907923Y-36556430D01*
X95820601Y-36558812D01*
X95759348Y-36555514D01*
X95735564Y-36547261D01*
X95736023Y-36545488D01*
X95736417Y-36513484D01*
X95727815Y-36442924D01*
X95712251Y-36344946D01*
X95691761Y-36230684D01*
X95668378Y-36111275D01*
X95644139Y-35997856D01*
X95624513Y-35915906D01*
X96158477Y-35915906D01*
X96161449Y-35954901D01*
X96171569Y-35944639D01*
X96182139Y-35920767D01*
X96200680Y-35870722D01*
X96205801Y-35849275D01*
X96191619Y-35840006D01*
X96182139Y-35844414D01*
X96162401Y-35879780D01*
X96158477Y-35915906D01*
X95624513Y-35915906D01*
X95621078Y-35901563D01*
X95612685Y-35870499D01*
G37*
G36*
X109013459Y-36036668D02*
G01*
X109048821Y-36045489D01*
X109055937Y-36068815D01*
X109048601Y-36103876D01*
X109015787Y-36208838D01*
X108978115Y-36289011D01*
X108940911Y-36334297D01*
X108923696Y-36340707D01*
X108865525Y-36349736D01*
X108848618Y-36355167D01*
X108825307Y-36353061D01*
X108810666Y-36318671D01*
X108801140Y-36243085D01*
X108800437Y-36234276D01*
X108795062Y-36134840D01*
X108802807Y-36075597D01*
X108830864Y-36046183D01*
X108886424Y-36036234D01*
X108938523Y-36035296D01*
X109013459Y-36036668D01*
G37*
G36*
X108960455Y-31908178D02*
G01*
X109008526Y-31939159D01*
X109023114Y-31950637D01*
X109067329Y-31993154D01*
X109071844Y-32011257D01*
X109042729Y-32002804D01*
X108986054Y-31965652D01*
X108984323Y-31964326D01*
X108944447Y-31927159D01*
X108933809Y-31903148D01*
X108934416Y-31902391D01*
X108960455Y-31908178D01*
G37*
G36*
X108275921Y-36334073D02*
G01*
X108283460Y-36340223D01*
X108318758Y-36376093D01*
X108310622Y-36390799D01*
X108299491Y-36391608D01*
X108272158Y-36371209D01*
X108260732Y-36349832D01*
X108254206Y-36322356D01*
X108275921Y-36334073D01*
G37*
G36*
X108604906Y-32630873D02*
G01*
X108627625Y-32645322D01*
X108627630Y-32645564D01*
X108610797Y-32674613D01*
X108568715Y-32722150D01*
X108551277Y-32739404D01*
X108474925Y-32812554D01*
X108474925Y-32718715D01*
X108478647Y-32656799D01*
X108498014Y-32630563D01*
X108545320Y-32624893D01*
X108551277Y-32624875D01*
X108604906Y-32630873D01*
G37*
G36*
X108072376Y-31066856D02*
G01*
X108091822Y-31099251D01*
X108089343Y-31110122D01*
X108062752Y-31109334D01*
X108059226Y-31106304D01*
X108042447Y-31067123D01*
X108042259Y-31063038D01*
X108055172Y-31053575D01*
X108072376Y-31066856D01*
G37*
G36*
X87452480Y-36200727D02*
G01*
X87439754Y-36213452D01*
X87427029Y-36200727D01*
X87439754Y-36188001D01*
X87452480Y-36200727D01*
G37*
G36*
X105654025Y-36836942D02*
G01*
X105671114Y-36846583D01*
X105685124Y-36865902D01*
X105652661Y-36882077D01*
X105645663Y-36884022D01*
X105583491Y-36898040D01*
X105559313Y-36892999D01*
X105562916Y-36866191D01*
X105564318Y-36862450D01*
X105598531Y-36827688D01*
X105654025Y-36836942D01*
G37*
G36*
X98599975Y-31695917D02*
G01*
X98624254Y-31718787D01*
X98625426Y-31722870D01*
X98605734Y-31733802D01*
X98599975Y-31734093D01*
X98575502Y-31714528D01*
X98574524Y-31707140D01*
X98590116Y-31691940D01*
X98599975Y-31695917D01*
G37*
G36*
X108955392Y-32871199D02*
G01*
X108992828Y-32886969D01*
X108983293Y-32905619D01*
X108979731Y-32907976D01*
X108929995Y-32928582D01*
X108897881Y-32909270D01*
X108893818Y-32903142D01*
X108885702Y-32870196D01*
X108919641Y-32863889D01*
X108955392Y-32871199D01*
G37*
G36*
X101391216Y-37334274D02*
G01*
X101431818Y-37347968D01*
X101523021Y-37391151D01*
X101583494Y-37443067D01*
X101603181Y-37490862D01*
X101582899Y-37508172D01*
X101536490Y-37508455D01*
X101485609Y-37492225D01*
X101478100Y-37487879D01*
X101433587Y-37477444D01*
X101358838Y-37475553D01*
X101306306Y-37479104D01*
X101217779Y-37483262D01*
X101176837Y-37470938D01*
X101182183Y-37439842D01*
X101232521Y-37387688D01*
X101247299Y-37375011D01*
X101297859Y-37336090D01*
X101338194Y-37323630D01*
X101391216Y-37334274D01*
G37*
G36*
X64441201Y-36265868D02*
G01*
X64534112Y-36273762D01*
X64604221Y-36286188D01*
X64634594Y-36298540D01*
X64662786Y-36323564D01*
X64663736Y-36349790D01*
X64635667Y-36394385D01*
X64622892Y-36411790D01*
X64586095Y-36481488D01*
X64556065Y-36572981D01*
X64537381Y-36666722D01*
X64534620Y-36743165D01*
X64539783Y-36766690D01*
X64574311Y-36787340D01*
X64656987Y-36797646D01*
X64711640Y-36798823D01*
X64798949Y-36797522D01*
X64848152Y-36790176D01*
X64872040Y-36771621D01*
X64883401Y-36736695D01*
X64884992Y-36728833D01*
X64889146Y-36629679D01*
X64870644Y-36521423D01*
X64834682Y-36426404D01*
X64804348Y-36382258D01*
X64766311Y-36336693D01*
X64750277Y-36307403D01*
X64750275Y-36307253D01*
X64774087Y-36300525D01*
X64838974Y-36295002D01*
X64935115Y-36291242D01*
X65052686Y-36289806D01*
X65056485Y-36289805D01*
X65205288Y-36292167D01*
X65307359Y-36300640D01*
X65366706Y-36317305D01*
X65387339Y-36344242D01*
X65373267Y-36383530D01*
X65332503Y-36433025D01*
X65299162Y-36477632D01*
X65278108Y-36534390D01*
X65265173Y-36618012D01*
X65259293Y-36691455D01*
X65246568Y-36885609D01*
X65124643Y-36923358D01*
X65049237Y-36942598D01*
X64978054Y-36948429D01*
X64890984Y-36941248D01*
X64814338Y-36929453D01*
X64712697Y-36914152D01*
X64644725Y-36910287D01*
X64594344Y-36918497D01*
X64545480Y-36939419D01*
X64544010Y-36940177D01*
X64471599Y-36966478D01*
X64374913Y-36987916D01*
X64313483Y-36996027D01*
X64230447Y-37002318D01*
X64185838Y-36999354D01*
X64167470Y-36983299D01*
X64163156Y-36950320D01*
X64163107Y-36948700D01*
X64162656Y-36893854D01*
X64163148Y-36806165D01*
X64164475Y-36703684D01*
X64164641Y-36693794D01*
X64163290Y-36580493D01*
X64152643Y-36501116D01*
X64129797Y-36439086D01*
X64115632Y-36413834D01*
X64081811Y-36350826D01*
X64064000Y-36302955D01*
X64063196Y-36296167D01*
X64086437Y-36280636D01*
X64148104Y-36269891D01*
X64235951Y-36263882D01*
X64337731Y-36262558D01*
X64441201Y-36265868D01*
G37*
G36*
X108479075Y-31186842D02*
G01*
X108496164Y-31196483D01*
X108510174Y-31215802D01*
X108477711Y-31231977D01*
X108470713Y-31233922D01*
X108408542Y-31247940D01*
X108384363Y-31242899D01*
X108387966Y-31216091D01*
X108389368Y-31212350D01*
X108423581Y-31177588D01*
X108479075Y-31186842D01*
G37*
G36*
X98515138Y-30902697D02*
G01*
X98511645Y-30917828D01*
X98498171Y-30919664D01*
X98477222Y-30910352D01*
X98481204Y-30902697D01*
X98511408Y-30899651D01*
X98515138Y-30902697D01*
G37*
G36*
X86222353Y-35178449D02*
G01*
X86225399Y-35208653D01*
X86222353Y-35212383D01*
X86207222Y-35208890D01*
X86205385Y-35195416D01*
X86214698Y-35174467D01*
X86222353Y-35178449D01*
G37*
G36*
X107563358Y-32059441D02*
G01*
X107582804Y-32091836D01*
X107580325Y-32102707D01*
X107553734Y-32101919D01*
X107550208Y-32098890D01*
X107533428Y-32059709D01*
X107533241Y-32055623D01*
X107546154Y-32046160D01*
X107563358Y-32059441D01*
G37*
G36*
X112801578Y-33350226D02*
G01*
X112788852Y-33362951D01*
X112776127Y-33350226D01*
X112788852Y-33337500D01*
X112801578Y-33350226D01*
G37*
G36*
X108963158Y-33077477D02*
G01*
X108982603Y-33109873D01*
X108980125Y-33120743D01*
X108953534Y-33119956D01*
X108950008Y-33116926D01*
X108933228Y-33077745D01*
X108933041Y-33073659D01*
X108945953Y-33064196D01*
X108963158Y-33077477D01*
G37*
G36*
X101087031Y-31863304D02*
G01*
X101077958Y-31937189D01*
X101062527Y-32046327D01*
X101041816Y-32183250D01*
X101016902Y-32340494D01*
X101003069Y-32425233D01*
X100963995Y-32662000D01*
X100932464Y-32853650D01*
X100907928Y-33005322D01*
X100889837Y-33122155D01*
X100877645Y-33209288D01*
X100870802Y-33271857D01*
X100868760Y-33315003D01*
X100870971Y-33343863D01*
X100876886Y-33363575D01*
X100885958Y-33379279D01*
X100897638Y-33396113D01*
X100899213Y-33398491D01*
X100953431Y-33452058D01*
X101011770Y-33480494D01*
X101090253Y-33511998D01*
X101158897Y-33571650D01*
X101228169Y-33669077D01*
X101242021Y-33692234D01*
X101294772Y-33829656D01*
X101310271Y-33991632D01*
X101288385Y-34167885D01*
X101249906Y-34296512D01*
X101217728Y-34379831D01*
X101193840Y-34424650D01*
X101168705Y-34440150D01*
X101132788Y-34435508D01*
X101111632Y-34429600D01*
X101043179Y-34417219D01*
X100990850Y-34419642D01*
X100936427Y-34414102D01*
X100889921Y-34368701D01*
X100856003Y-34294376D01*
X100839342Y-34202066D01*
X100844610Y-34102707D01*
X100848134Y-34085411D01*
X100859476Y-34007743D01*
X100857878Y-33944655D01*
X100854630Y-33932285D01*
X100840286Y-33912145D01*
X100821303Y-33928223D01*
X100791847Y-33986058D01*
X100787244Y-33996261D01*
X100726537Y-34160174D01*
X100680343Y-34351549D01*
X100646473Y-34580136D01*
X100638051Y-34660947D01*
X100624977Y-34782014D01*
X100604614Y-34949002D01*
X100577559Y-35157548D01*
X100544408Y-35403285D01*
X100505758Y-35681848D01*
X100462207Y-35988873D01*
X100414351Y-36319993D01*
X100368568Y-36631778D01*
X100343510Y-36812487D01*
X100328429Y-36947833D01*
X100323447Y-37036404D01*
X100328684Y-37076788D01*
X100330569Y-37078741D01*
X100360764Y-37107853D01*
X100403411Y-37159626D01*
X100446061Y-37217459D01*
X100476265Y-37264755D01*
X100483341Y-37282435D01*
X100464570Y-37303124D01*
X100417874Y-37341410D01*
X100357685Y-37386656D01*
X100298432Y-37428227D01*
X100254545Y-37455485D01*
X100241709Y-37460546D01*
X100222689Y-37441031D01*
X100202249Y-37407529D01*
X100194848Y-37379311D01*
X100192850Y-37328584D01*
X100196678Y-37250392D01*
X100206750Y-37139777D01*
X100223489Y-36991781D01*
X100247315Y-36801447D01*
X100265421Y-36663090D01*
X100291670Y-36466819D01*
X100317905Y-36274244D01*
X100342778Y-36095004D01*
X100364938Y-35938739D01*
X100383038Y-35815086D01*
X100394256Y-35742610D01*
X100410180Y-35643343D01*
X100431804Y-35506475D01*
X100457137Y-35344724D01*
X100484185Y-35170806D01*
X100509867Y-35004534D01*
X100536235Y-34838553D01*
X100569789Y-34635652D01*
X100608282Y-34408931D01*
X100649470Y-34171492D01*
X100691106Y-33936436D01*
X100725828Y-33744715D01*
X100767841Y-33515500D01*
X100813478Y-33266441D01*
X100860059Y-33012172D01*
X100904902Y-32767324D01*
X100945329Y-32546531D01*
X100971999Y-32400818D01*
X101002641Y-32236116D01*
X101030608Y-32091015D01*
X101054561Y-31972036D01*
X101073162Y-31885699D01*
X101085075Y-31838526D01*
X101088668Y-31832138D01*
X101087031Y-31863304D01*
G37*
G36*
X98744196Y-31488068D02*
G01*
X98747242Y-31518272D01*
X98744196Y-31522002D01*
X98729066Y-31518509D01*
X98727229Y-31505035D01*
X98736541Y-31484086D01*
X98744196Y-31488068D01*
G37*
G36*
X65946468Y-32281288D02*
G01*
X65933742Y-32294013D01*
X65921017Y-32281288D01*
X65933742Y-32268562D01*
X65946468Y-32281288D01*
G37*
G36*
X85823622Y-36786097D02*
G01*
X85810896Y-36798823D01*
X85798171Y-36786097D01*
X85810896Y-36773372D01*
X85823622Y-36786097D01*
G37*
G36*
X108216632Y-32106385D02*
G01*
X108212930Y-32138727D01*
X108197631Y-32152385D01*
X108170677Y-32145609D01*
X108160254Y-32128436D01*
X108164294Y-32095707D01*
X108183038Y-32090406D01*
X108216632Y-32106385D01*
G37*
G36*
X109195074Y-32032626D02*
G01*
X109200275Y-32039504D01*
X109199112Y-32062994D01*
X109190554Y-32064955D01*
X109154574Y-32046382D01*
X109149373Y-32039504D01*
X109150537Y-32016014D01*
X109159095Y-32014053D01*
X109195074Y-32032626D01*
G37*
G36*
X63579534Y-31797721D02*
G01*
X63566808Y-31810446D01*
X63554083Y-31797721D01*
X63566808Y-31784995D01*
X63579534Y-31797721D01*
G37*
G36*
X66640540Y-36364455D02*
G01*
X66699418Y-36428131D01*
X66747511Y-36511269D01*
X66793241Y-36628720D01*
X66797360Y-36640974D01*
X66827761Y-36734457D01*
X66850629Y-36808956D01*
X66862073Y-36851661D01*
X66862700Y-36856174D01*
X66840065Y-36869820D01*
X66782079Y-36875966D01*
X66703620Y-36875357D01*
X66619566Y-36868740D01*
X66544796Y-36856859D01*
X66494188Y-36840460D01*
X66489328Y-36837467D01*
X66445926Y-36813278D01*
X66417605Y-36822828D01*
X66404196Y-36837467D01*
X66355154Y-36867560D01*
X66312608Y-36875176D01*
X66252316Y-36875176D01*
X66313281Y-36713205D01*
X66373568Y-36564035D01*
X66429675Y-36451143D01*
X66488444Y-36361112D01*
X66501464Y-36344234D01*
X66549060Y-36284134D01*
X66640540Y-36364455D01*
G37*
G36*
X108454140Y-36207938D02*
G01*
X108473585Y-36240333D01*
X108471107Y-36251204D01*
X108444516Y-36250416D01*
X108440990Y-36247387D01*
X108424210Y-36208206D01*
X108424023Y-36204120D01*
X108436935Y-36194657D01*
X108454140Y-36207938D01*
G37*
G36*
X81310329Y-31589872D02*
G01*
X81313375Y-31620076D01*
X81310329Y-31623806D01*
X81295198Y-31620312D01*
X81293361Y-31606839D01*
X81302674Y-31585890D01*
X81310329Y-31589872D01*
G37*
G36*
X98001878Y-35652518D02*
G01*
X98032942Y-35668711D01*
X98023786Y-35683178D01*
X97981133Y-35701631D01*
X97898391Y-35728074D01*
X97856647Y-35725583D01*
X97854892Y-35693965D01*
X97861898Y-35678983D01*
X97896018Y-35638766D01*
X97945108Y-35633971D01*
X98001878Y-35652518D01*
G37*
G36*
X108151587Y-32923408D02*
G01*
X108156788Y-32930286D01*
X108155625Y-32953776D01*
X108147067Y-32955737D01*
X108111088Y-32937164D01*
X108105886Y-32930286D01*
X108107050Y-32906796D01*
X108115608Y-32904835D01*
X108151587Y-32923408D01*
G37*
G36*
X86887158Y-36286325D02*
G01*
X86881538Y-36332427D01*
X86871396Y-36346600D01*
X86854720Y-36353205D01*
X86859572Y-36315908D01*
X86860268Y-36313216D01*
X86875362Y-36279100D01*
X86887158Y-36286325D01*
G37*
G36*
X79949111Y-34106109D02*
G01*
X79951753Y-34108747D01*
X79959786Y-34146382D01*
X79963341Y-34221524D01*
X79962025Y-34320942D01*
X79959595Y-34372583D01*
X79936350Y-34577462D01*
X79893173Y-34741498D01*
X79830934Y-34862424D01*
X79750504Y-34937975D01*
X79740141Y-34943645D01*
X79626964Y-34991372D01*
X79538009Y-35003692D01*
X79462340Y-34982004D01*
X79458180Y-34979761D01*
X79373040Y-34908541D01*
X79318050Y-34802968D01*
X79293809Y-34692019D01*
X79293553Y-34538803D01*
X79337378Y-34409855D01*
X79409620Y-34317718D01*
X79466787Y-34275756D01*
X79549730Y-34230325D01*
X79646964Y-34185855D01*
X79747005Y-34146771D01*
X79838366Y-34117500D01*
X79909564Y-34102471D01*
X79949111Y-34106109D01*
G37*
G36*
X82194950Y-32944534D02*
G01*
X82356428Y-32994598D01*
X82471481Y-33066935D01*
X82490881Y-33085089D01*
X82501648Y-33108774D01*
X82503718Y-33147812D01*
X82497030Y-33212028D01*
X82481523Y-33311243D01*
X82469493Y-33382641D01*
X82421950Y-33662469D01*
X82532105Y-33715987D01*
X82595733Y-33749166D01*
X82628442Y-33780349D01*
X82640521Y-33827272D01*
X82642259Y-33905870D01*
X82633231Y-34007922D01*
X82600055Y-34077749D01*
X82533591Y-34126661D01*
X82434355Y-34163157D01*
X82324123Y-34195687D01*
X82220039Y-34740090D01*
X82188358Y-34912275D01*
X82163000Y-35063227D01*
X82144946Y-35186152D01*
X82135175Y-35274252D01*
X82134666Y-35320731D01*
X82135802Y-35324518D01*
X82170307Y-35363331D01*
X82240578Y-35419980D01*
X82337845Y-35487651D01*
X82383924Y-35517272D01*
X82383229Y-35542543D01*
X82369907Y-35597242D01*
X82366896Y-35607288D01*
X82347106Y-35686636D01*
X82329053Y-35782695D01*
X82324624Y-35812600D01*
X82312616Y-35885354D01*
X82294963Y-35920861D01*
X82260360Y-35932458D01*
X82222129Y-35933492D01*
X82152725Y-35920633D01*
X82054603Y-35885458D01*
X81941929Y-35833070D01*
X81938708Y-35831408D01*
X81840850Y-35777994D01*
X81754480Y-35725921D01*
X81694493Y-35684317D01*
X81683871Y-35675244D01*
X81630933Y-35593616D01*
X81606730Y-35484470D01*
X81613260Y-35363604D01*
X81634754Y-35286698D01*
X81660689Y-35193909D01*
X81673091Y-35099561D01*
X81673208Y-35077796D01*
X81676902Y-35003659D01*
X81690022Y-34895992D01*
X81709882Y-34770704D01*
X81733796Y-34643703D01*
X81759080Y-34530900D01*
X81775795Y-34470065D01*
X81790730Y-34404467D01*
X81805947Y-34310161D01*
X81816594Y-34221919D01*
X81824229Y-34126661D01*
X81820256Y-34072010D01*
X81799987Y-34048142D01*
X81758731Y-34045235D01*
X81733535Y-34047963D01*
X81699292Y-34031487D01*
X81660022Y-33986442D01*
X81660015Y-33986431D01*
X81635460Y-33934326D01*
X81627109Y-33868243D01*
X81632872Y-33770814D01*
X81633422Y-33765488D01*
X81650946Y-33650478D01*
X81675898Y-33582176D01*
X81710642Y-33556640D01*
X81752477Y-33567093D01*
X81816210Y-33587456D01*
X81859399Y-33592009D01*
X81889001Y-33588095D01*
X81910336Y-33569946D01*
X81927849Y-33527948D01*
X81945988Y-33452490D01*
X81962484Y-33369159D01*
X81987436Y-33252373D01*
X82015703Y-33140427D01*
X82042125Y-33053329D01*
X82048216Y-33036811D01*
X82076450Y-32970498D01*
X82103210Y-32940866D01*
X82145554Y-32937188D01*
X82194950Y-32944534D01*
G37*
G36*
X62862298Y-29975071D02*
G01*
X62875480Y-29992456D01*
X62882596Y-30029546D01*
X62883766Y-30093974D01*
X62879111Y-30193374D01*
X62868753Y-30335378D01*
X62868129Y-30343211D01*
X62861555Y-30427613D01*
X62855669Y-30509167D01*
X62850298Y-30592486D01*
X62845265Y-30682185D01*
X62840397Y-30782879D01*
X62835518Y-30899183D01*
X62830454Y-31035712D01*
X62825031Y-31197080D01*
X62819074Y-31387902D01*
X62812408Y-31612792D01*
X62804859Y-31876367D01*
X62796251Y-32183240D01*
X62790068Y-32405861D01*
X62763350Y-33370314D01*
X62854138Y-33642777D01*
X62912993Y-33807132D01*
X62967696Y-33929017D01*
X63023496Y-34015986D01*
X63085643Y-34075594D01*
X63159387Y-34115395D01*
X63190240Y-34126478D01*
X63258613Y-34152037D01*
X63300415Y-34182980D01*
X63329913Y-34234702D01*
X63355339Y-34304634D01*
X63386314Y-34433537D01*
X63380364Y-34533351D01*
X63336772Y-34610761D01*
X63320910Y-34626494D01*
X63283238Y-34651087D01*
X63228960Y-34665710D01*
X63145680Y-34672587D01*
X63056062Y-34674002D01*
X62942832Y-34677751D01*
X62859048Y-34687766D01*
X62815026Y-34702771D01*
X62813752Y-34703923D01*
X62804618Y-34726710D01*
X62799864Y-34775758D01*
X62799587Y-34855973D01*
X62803886Y-34972260D01*
X62812858Y-35129525D01*
X62826209Y-35327141D01*
X62839040Y-35505325D01*
X62851652Y-35675086D01*
X62863308Y-35826938D01*
X62873276Y-35951393D01*
X62880821Y-36038964D01*
X62883297Y-36064460D01*
X62898335Y-36208153D01*
X63087583Y-36236300D01*
X63192573Y-36255776D01*
X63287930Y-36280096D01*
X63353473Y-36304089D01*
X63354738Y-36304734D01*
X63403438Y-36334398D01*
X63422310Y-36367975D01*
X63419627Y-36425312D01*
X63415708Y-36451030D01*
X63399890Y-36522736D01*
X63381032Y-36572593D01*
X63375454Y-36580387D01*
X63345071Y-36576805D01*
X63288263Y-36539377D01*
X63223533Y-36483441D01*
X63150176Y-36418378D01*
X63096495Y-36383135D01*
X63047562Y-36370200D01*
X63000007Y-36371015D01*
X62905085Y-36378883D01*
X62914422Y-36627029D01*
X62916239Y-36732330D01*
X62913590Y-36815453D01*
X62907056Y-36865513D01*
X62901195Y-36875176D01*
X62894281Y-36850713D01*
X62884394Y-36781033D01*
X62872081Y-36671699D01*
X62857890Y-36528273D01*
X62842367Y-36356320D01*
X62826061Y-36161400D01*
X62809519Y-35949078D01*
X62807875Y-35927129D01*
X62790049Y-35668971D01*
X62771752Y-35367672D01*
X62753363Y-35030985D01*
X62735263Y-34666665D01*
X62717831Y-34282463D01*
X62701448Y-33886135D01*
X62697675Y-33785042D01*
X62749926Y-33785042D01*
X62750525Y-33813244D01*
X62751246Y-33817886D01*
X62757885Y-33884751D01*
X62762789Y-33983152D01*
X62765049Y-34093728D01*
X62765105Y-34112849D01*
X62765940Y-34216088D01*
X62770745Y-34280371D01*
X62782975Y-34317640D01*
X62806080Y-34339838D01*
X62835095Y-34354950D01*
X62899255Y-34376270D01*
X62990435Y-34396222D01*
X63057790Y-34406455D01*
X63142042Y-34416826D01*
X63205086Y-34424922D01*
X63229584Y-34428407D01*
X63242512Y-34408675D01*
X63248603Y-34355894D01*
X63248672Y-34348821D01*
X63244842Y-34302009D01*
X63226211Y-34268822D01*
X63182066Y-34238627D01*
X63101692Y-34200793D01*
X63097751Y-34199049D01*
X63023479Y-34164098D01*
X62971330Y-34130000D01*
X62929663Y-34084606D01*
X62886839Y-34015761D01*
X62842108Y-33932168D01*
X62793172Y-33841303D01*
X62763293Y-33793328D01*
X62749926Y-33785042D01*
X62697675Y-33785042D01*
X62686493Y-33485433D01*
X62682254Y-33362951D01*
X62627386Y-31746819D01*
X62698831Y-30964405D01*
X62723339Y-30702501D01*
X62744932Y-30487569D01*
X62764236Y-30315805D01*
X62781883Y-30183403D01*
X62798499Y-30086559D01*
X62814714Y-30021467D01*
X62831157Y-29984321D01*
X62848457Y-29971317D01*
X62862298Y-29975071D01*
G37*
G36*
X86985880Y-35000292D02*
G01*
X86982386Y-35015423D01*
X86968913Y-35017260D01*
X86947964Y-35007948D01*
X86951945Y-35000292D01*
X86982150Y-34997246D01*
X86985880Y-35000292D01*
G37*
G36*
X85790682Y-36461598D02*
G01*
X85794892Y-36535762D01*
X85790682Y-36576127D01*
X85784388Y-36588188D01*
X85780394Y-36556212D01*
X85779652Y-36518863D01*
X85781638Y-36463816D01*
X85786714Y-36448705D01*
X85790682Y-36461598D01*
G37*
G36*
X107554760Y-31540781D02*
G01*
X107582082Y-31566408D01*
X107576478Y-31581140D01*
X107572920Y-31581388D01*
X107551393Y-31563311D01*
X107543536Y-31552005D01*
X107540537Y-31534589D01*
X107554760Y-31540781D01*
G37*
G36*
X98791504Y-33447291D02*
G01*
X98809945Y-33461508D01*
X98849513Y-33498657D01*
X98849340Y-33515239D01*
X98844875Y-33515656D01*
X98823630Y-33498264D01*
X98800335Y-33471117D01*
X98778324Y-33440971D01*
X98791504Y-33447291D01*
G37*
G36*
X76304209Y-36715541D02*
G01*
X76313767Y-36734098D01*
X76320280Y-36769960D01*
X76303183Y-36762999D01*
X76291213Y-36746228D01*
X76283390Y-36712917D01*
X76286567Y-36706954D01*
X76304209Y-36715541D01*
G37*
G36*
X64979333Y-32383091D02*
G01*
X64966608Y-32395817D01*
X64953882Y-32383091D01*
X64966608Y-32370366D01*
X64979333Y-32383091D01*
G37*
G36*
X93103970Y-34098632D02*
G01*
X93121456Y-34115208D01*
X93130678Y-34131424D01*
X93144533Y-34191889D01*
X93146169Y-34288129D01*
X93136948Y-34406859D01*
X93118231Y-34534799D01*
X93091378Y-34658664D01*
X93068878Y-34734632D01*
X93036199Y-34823655D01*
X93005173Y-34879245D01*
X92963141Y-34916820D01*
X92897446Y-34951797D01*
X92886247Y-34957079D01*
X92803776Y-34994314D01*
X92749055Y-35011107D01*
X92703989Y-35009142D01*
X92650485Y-34990099D01*
X92629289Y-34980961D01*
X92557422Y-34924004D01*
X92504717Y-34832120D01*
X92473360Y-34718373D01*
X92465536Y-34595825D01*
X92483430Y-34477535D01*
X92528380Y-34377807D01*
X92569214Y-34325945D01*
X92619401Y-34282572D01*
X92688686Y-34242036D01*
X92786817Y-34198681D01*
X92923542Y-34146853D01*
X92931452Y-34143979D01*
X93020863Y-34112268D01*
X93074404Y-34097402D01*
X93103970Y-34098632D01*
G37*
G36*
X106972582Y-32567890D02*
G01*
X106973321Y-32573973D01*
X106953954Y-32598684D01*
X106947870Y-32599424D01*
X106923159Y-32580057D01*
X106922420Y-32573973D01*
X106941787Y-32549262D01*
X106947870Y-32548522D01*
X106972582Y-32567890D01*
G37*
G36*
X108045230Y-34420116D02*
G01*
X108047435Y-34420806D01*
X108118975Y-34456061D01*
X108149662Y-34500079D01*
X108141752Y-34535928D01*
X108121617Y-34554280D01*
X108106425Y-34527047D01*
X108103691Y-34517561D01*
X108077066Y-34476965D01*
X108040064Y-34475990D01*
X107999940Y-34472996D01*
X107991357Y-34445868D01*
X108002953Y-34416246D01*
X108045230Y-34420116D01*
G37*
G36*
X108287178Y-31913989D02*
G01*
X108319123Y-31918362D01*
X108320098Y-31920555D01*
X108293638Y-31937645D01*
X108239620Y-31970814D01*
X108214053Y-31986258D01*
X108118612Y-32043656D01*
X108118612Y-31977953D01*
X108123567Y-31936293D01*
X108147860Y-31917345D01*
X108205634Y-31912347D01*
X108224657Y-31912250D01*
X108287178Y-31913989D01*
G37*
G36*
X98069601Y-31626688D02*
G01*
X98081632Y-31644701D01*
X98086164Y-31686633D01*
X98080051Y-31743903D01*
X98067079Y-31800614D01*
X98051031Y-31840869D01*
X98035693Y-31848771D01*
X98033675Y-31846164D01*
X98019025Y-31804824D01*
X98003571Y-31735840D01*
X97999556Y-31712578D01*
X97991997Y-31644926D01*
X98000184Y-31613906D01*
X98024875Y-31606839D01*
X98069601Y-31626688D01*
G37*
G36*
X108521894Y-32940581D02*
G01*
X108549002Y-32964240D01*
X108551277Y-32969964D01*
X108539199Y-32980425D01*
X108514052Y-32956985D01*
X108510671Y-32951804D01*
X108507671Y-32934388D01*
X108521894Y-32940581D01*
G37*
G36*
X108699687Y-33019584D02*
G01*
X108703983Y-33030587D01*
X108687143Y-33063822D01*
X108654501Y-33071780D01*
X108643905Y-33065332D01*
X108628423Y-33028387D01*
X108655664Y-33007377D01*
X108665806Y-33006638D01*
X108699687Y-33019584D01*
G37*
G36*
X90113230Y-34559846D02*
G01*
X90113264Y-34559143D01*
X90121420Y-34402564D01*
X90131074Y-34235709D01*
X90141650Y-34066776D01*
X90152568Y-33903960D01*
X90163251Y-33755457D01*
X90173120Y-33629463D01*
X90181599Y-33534175D01*
X90188109Y-33477788D01*
X90190261Y-33467232D01*
X90203833Y-33452579D01*
X90237488Y-33443809D01*
X90298969Y-33440487D01*
X90396023Y-33442173D01*
X90529412Y-33448076D01*
X90856262Y-33464619D01*
X90872027Y-33369246D01*
X90882771Y-33276759D01*
X90887988Y-33178119D01*
X90888071Y-33168639D01*
X90888351Y-33063405D01*
X90754734Y-33048619D01*
X90659876Y-33038847D01*
X90540376Y-33027521D01*
X90423872Y-33017246D01*
X90226628Y-33000658D01*
X90227064Y-32819129D01*
X90235571Y-32674155D01*
X90258276Y-32528646D01*
X90291970Y-32394802D01*
X90333443Y-32284823D01*
X90379486Y-32210908D01*
X90389712Y-32200869D01*
X90490719Y-32135909D01*
X90619657Y-32083757D01*
X90754356Y-32051566D01*
X90869263Y-32046150D01*
X90939584Y-32050774D01*
X90983178Y-32049852D01*
X90990155Y-32047006D01*
X90994944Y-31996413D01*
X91007263Y-31916303D01*
X91024038Y-31822925D01*
X91042195Y-31732527D01*
X91058661Y-31661357D01*
X91069623Y-31626923D01*
X91076043Y-31605901D01*
X91062623Y-31592313D01*
X91020808Y-31583981D01*
X90942039Y-31578729D01*
X90869626Y-31576021D01*
X90604424Y-31581068D01*
X90377976Y-31615772D01*
X90186920Y-31681204D01*
X90027893Y-31778435D01*
X89923822Y-31877154D01*
X89833336Y-32005859D01*
X89759509Y-32159697D01*
X89713362Y-32314518D01*
X89707285Y-32351738D01*
X89686489Y-32515701D01*
X89671776Y-32642242D01*
X89661714Y-32744281D01*
X89656514Y-32810282D01*
X89648485Y-32884929D01*
X89637798Y-32936316D01*
X89632398Y-32947628D01*
X89601247Y-32954070D01*
X89532784Y-32957079D01*
X89440517Y-32956162D01*
X89419075Y-32955413D01*
X89311604Y-32951295D01*
X89213595Y-32947732D01*
X89144855Y-32945440D01*
X89140780Y-32945321D01*
X89079549Y-32938946D01*
X89043975Y-32926790D01*
X89043704Y-32926530D01*
X89041343Y-32897835D01*
X89042925Y-32825044D01*
X89048089Y-32714777D01*
X89056473Y-32573659D01*
X89067715Y-32408310D01*
X89081452Y-32225353D01*
X89083358Y-32201179D01*
X89099086Y-32000538D01*
X89114309Y-31802246D01*
X89128289Y-31616193D01*
X89140293Y-31452272D01*
X89149583Y-31320374D01*
X89154983Y-31237801D01*
X89170416Y-30983292D01*
X89348572Y-30984302D01*
X89444297Y-30986172D01*
X89573956Y-30990524D01*
X89720673Y-30996712D01*
X89867577Y-31004092D01*
X89870315Y-31004242D01*
X90031549Y-31012855D01*
X90206902Y-31021781D01*
X90373721Y-31029890D01*
X90493862Y-31035382D01*
X90684965Y-31044690D01*
X90872658Y-31055617D01*
X91049889Y-31067583D01*
X91209606Y-31080010D01*
X91344756Y-31092318D01*
X91448288Y-31103927D01*
X91513149Y-31114260D01*
X91532003Y-31120639D01*
X91537140Y-31153754D01*
X91531655Y-31221995D01*
X91516752Y-31310978D01*
X91515630Y-31316442D01*
X91498516Y-31404029D01*
X91487749Y-31469298D01*
X91485486Y-31499040D01*
X91485722Y-31499473D01*
X91511923Y-31502666D01*
X91581504Y-31507558D01*
X91686988Y-31513722D01*
X91820897Y-31520731D01*
X91975753Y-31528159D01*
X92036563Y-31530914D01*
X92237363Y-31541378D01*
X92449507Y-31555099D01*
X92665314Y-31571341D01*
X92877099Y-31589368D01*
X93077179Y-31608443D01*
X93257872Y-31627830D01*
X93411493Y-31646793D01*
X93530359Y-31664595D01*
X93606788Y-31680500D01*
X93611430Y-31681845D01*
X93698885Y-31699919D01*
X93794597Y-31708526D01*
X93804730Y-31708642D01*
X93899727Y-31722570D01*
X93955197Y-31759557D01*
X93973038Y-31783716D01*
X93984891Y-31815508D01*
X93991361Y-31863642D01*
X93993054Y-31936829D01*
X93990576Y-32043780D01*
X93984856Y-32185860D01*
X93944786Y-33044961D01*
X93900516Y-33888562D01*
X93878981Y-34266458D01*
X93866037Y-34489383D01*
X93851335Y-34745362D01*
X93835886Y-35016625D01*
X93820699Y-35285399D01*
X93806785Y-35533914D01*
X93801251Y-35633617D01*
X93787136Y-35874186D01*
X93773736Y-36068098D01*
X93760450Y-36219581D01*
X93746673Y-36332860D01*
X93731802Y-36412165D01*
X93715234Y-36461722D01*
X93696365Y-36485758D01*
X93679098Y-36489439D01*
X93646564Y-36487627D01*
X93570304Y-36484601D01*
X93457475Y-36480607D01*
X93315232Y-36475890D01*
X93150731Y-36470696D01*
X93000776Y-36466149D01*
X92771414Y-36458833D01*
X92535729Y-36450424D01*
X92299632Y-36441207D01*
X92069033Y-36431470D01*
X91849840Y-36421499D01*
X91647966Y-36411581D01*
X91469318Y-36402003D01*
X91319807Y-36393051D01*
X91205344Y-36385012D01*
X91131838Y-36378172D01*
X91108299Y-36374362D01*
X91084288Y-36362577D01*
X91072098Y-36336855D01*
X91070017Y-36285765D01*
X91076332Y-36197873D01*
X91078438Y-36175023D01*
X91084787Y-36051655D01*
X91084484Y-35909309D01*
X91077900Y-35783121D01*
X91068402Y-35681598D01*
X91058747Y-35620517D01*
X91044439Y-35589603D01*
X91020982Y-35578582D01*
X90987764Y-35577180D01*
X90941096Y-35571266D01*
X90907030Y-35547798D01*
X90880690Y-35498186D01*
X90857204Y-35413842D01*
X90836130Y-35309945D01*
X90802598Y-35131789D01*
X90770532Y-35284494D01*
X90753218Y-35379792D01*
X90734233Y-35504539D01*
X90716709Y-35637510D01*
X90710428Y-35691709D01*
X90694963Y-35822943D01*
X90677585Y-35956271D01*
X90661194Y-36069870D01*
X90655347Y-36106184D01*
X90628304Y-36266151D01*
X90346348Y-36252852D01*
X90230669Y-36245619D01*
X90133805Y-36236236D01*
X90067066Y-36226009D01*
X90042609Y-36217770D01*
X90038345Y-36187558D01*
X90037229Y-36113033D01*
X90039088Y-36000678D01*
X90043751Y-35856972D01*
X90051045Y-35688397D01*
X90060797Y-35501433D01*
X90062415Y-35473006D01*
X90073745Y-35274969D01*
X90084586Y-35083503D01*
X90094446Y-34907431D01*
X90102834Y-34755581D01*
X90108840Y-34644524D01*
X92037512Y-34644524D01*
X92038823Y-34793234D01*
X92068744Y-34967902D01*
X92132421Y-35106596D01*
X92231629Y-35212944D01*
X92251363Y-35227512D01*
X92374257Y-35287630D01*
X92516044Y-35315859D01*
X92663592Y-35313450D01*
X92803769Y-35281657D01*
X92923443Y-35221730D01*
X92993739Y-35156725D01*
X93040275Y-35103143D01*
X93074931Y-35071657D01*
X93082838Y-35068162D01*
X93106532Y-35088153D01*
X93138230Y-35136423D01*
X93139171Y-35138151D01*
X93183672Y-35215184D01*
X93221892Y-35260966D01*
X93269402Y-35290221D01*
X93321457Y-35310514D01*
X93452390Y-35343208D01*
X93552120Y-35337087D01*
X93594589Y-35316224D01*
X93627983Y-35270508D01*
X93651532Y-35201282D01*
X93653045Y-35192918D01*
X93656889Y-35129083D01*
X93638390Y-35076137D01*
X93589725Y-35012513D01*
X93586099Y-35008368D01*
X93504320Y-34915227D01*
X93521410Y-34654470D01*
X93529038Y-34541968D01*
X93539508Y-34392946D01*
X93551803Y-34221640D01*
X93564901Y-34042285D01*
X93575366Y-33901317D01*
X93588670Y-33709219D01*
X93596269Y-33560866D01*
X93598262Y-33449433D01*
X93594750Y-33368096D01*
X93585832Y-33310030D01*
X93584118Y-33303220D01*
X93521939Y-33157600D01*
X93420847Y-33043300D01*
X93280205Y-32959906D01*
X93099377Y-32907007D01*
X92944232Y-32887590D01*
X92729729Y-32889826D01*
X92549803Y-32929374D01*
X92404226Y-33006403D01*
X92292772Y-33121081D01*
X92215212Y-33273577D01*
X92171786Y-33460483D01*
X92154339Y-33592009D01*
X92308241Y-33592009D01*
X92397339Y-33594367D01*
X92469118Y-33600470D01*
X92500848Y-33606861D01*
X92529897Y-33602627D01*
X92554369Y-33559565D01*
X92569225Y-33511421D01*
X92612710Y-33380927D01*
X92664080Y-33292169D01*
X92729330Y-33236015D01*
X92759866Y-33220966D01*
X92881515Y-33188170D01*
X92990392Y-33200788D01*
X93080498Y-33246996D01*
X93132614Y-33287020D01*
X93162746Y-33329023D01*
X93179711Y-33390551D01*
X93189537Y-33463897D01*
X93197069Y-33556677D01*
X93191800Y-33618347D01*
X93170836Y-33667731D01*
X93154354Y-33692587D01*
X93052327Y-33792980D01*
X92915755Y-33860052D01*
X92811655Y-33883945D01*
X92681463Y-33909107D01*
X92545578Y-33946150D01*
X92419799Y-33989863D01*
X92319926Y-34035033D01*
X92281518Y-34058791D01*
X92187052Y-34157332D01*
X92112774Y-34294220D01*
X92061867Y-34459827D01*
X92037512Y-34644524D01*
X90108840Y-34644524D01*
X90109259Y-34636777D01*
X90113230Y-34559846D01*
G37*
G36*
X76169247Y-35560212D02*
G01*
X76172293Y-35590417D01*
X76169247Y-35594147D01*
X76154116Y-35590653D01*
X76152279Y-35577180D01*
X76161591Y-35556231D01*
X76169247Y-35560212D01*
G37*
G36*
X108097827Y-34299120D02*
G01*
X108117273Y-34331516D01*
X108114794Y-34342387D01*
X108088203Y-34341599D01*
X108084677Y-34338569D01*
X108067897Y-34299388D01*
X108067710Y-34295302D01*
X108080623Y-34285840D01*
X108097827Y-34299120D01*
G37*
G36*
X98570591Y-31566232D02*
G01*
X98597700Y-31589891D01*
X98599975Y-31595615D01*
X98587896Y-31606076D01*
X98562749Y-31582636D01*
X98559368Y-31577456D01*
X98556368Y-31560040D01*
X98570591Y-31566232D01*
G37*
G36*
X98391888Y-31589601D02*
G01*
X98408952Y-31606683D01*
X98434046Y-31643211D01*
X98428879Y-31657741D01*
X98392301Y-31640149D01*
X98370406Y-31618949D01*
X98347159Y-31579545D01*
X98357770Y-31568665D01*
X98391888Y-31589601D01*
G37*
G36*
X98163908Y-31323495D02*
G01*
X98165520Y-31358693D01*
X98158849Y-31409440D01*
X98141858Y-31428683D01*
X98118522Y-31414215D01*
X98118196Y-31409594D01*
X98128784Y-31372841D01*
X98141858Y-31339604D01*
X98157485Y-31309435D01*
X98163908Y-31323495D01*
G37*
G36*
X101145065Y-31619564D02*
G01*
X101132339Y-31632290D01*
X101119614Y-31619564D01*
X101132339Y-31606839D01*
X101145065Y-31619564D01*
G37*
G36*
X107837924Y-33381218D02*
G01*
X107838652Y-33386900D01*
X107820152Y-33421369D01*
X107813201Y-33426578D01*
X107791413Y-33420809D01*
X107787750Y-33402629D01*
X107801038Y-33367807D01*
X107813201Y-33362951D01*
X107837924Y-33381218D01*
G37*
G36*
X85898732Y-31571537D02*
G01*
X85895862Y-31596085D01*
X85885336Y-31625918D01*
X85864335Y-31612233D01*
X85854200Y-31600343D01*
X85835368Y-31561590D01*
X85849530Y-31542929D01*
X85886178Y-31536490D01*
X85898732Y-31571537D01*
G37*
G36*
X107707465Y-34493086D02*
G01*
X107734573Y-34516745D01*
X107736848Y-34522469D01*
X107724770Y-34532930D01*
X107699623Y-34509490D01*
X107696242Y-34504309D01*
X107693242Y-34486893D01*
X107707465Y-34493086D01*
G37*
G36*
X75108792Y-31135997D02*
G01*
X75096067Y-31148723D01*
X75083341Y-31135997D01*
X75096067Y-31123272D01*
X75108792Y-31135997D01*
G37*
G36*
X71467981Y-36281521D02*
G01*
X71451831Y-36328317D01*
X71444599Y-36340386D01*
X71427376Y-36359352D01*
X71424209Y-36332876D01*
X71424954Y-36321298D01*
X71435933Y-36276688D01*
X71449278Y-36264354D01*
X71467981Y-36281521D01*
G37*
G36*
X109469451Y-32064955D02*
G01*
X109478322Y-32107455D01*
X109488377Y-32193029D01*
X109498987Y-32313883D01*
X109509521Y-32462222D01*
X109519346Y-32630252D01*
X109525603Y-32758492D01*
X109534210Y-32931446D01*
X109543571Y-33086255D01*
X109553137Y-33216075D01*
X109562357Y-33314065D01*
X109570682Y-33373382D01*
X109576215Y-33388402D01*
X109585226Y-33365282D01*
X109587678Y-33304518D01*
X109583093Y-33219002D01*
X109582682Y-33214432D01*
X109576811Y-33105103D01*
X109589161Y-33035682D01*
X109628203Y-32996117D01*
X109702407Y-32976356D01*
X109790174Y-32968223D01*
X110057304Y-32950632D01*
X110276972Y-32936246D01*
X110452500Y-32924855D01*
X110587213Y-32916247D01*
X110684435Y-32910209D01*
X110747490Y-32906530D01*
X110779701Y-32904998D01*
X110783441Y-32904925D01*
X110805090Y-32926931D01*
X110826784Y-32980144D01*
X110842923Y-33045185D01*
X110847908Y-33102673D01*
X110845438Y-33119527D01*
X110845874Y-33160918D01*
X110853713Y-33203113D01*
X110867821Y-33237599D01*
X110890313Y-33245309D01*
X110926621Y-33222782D01*
X110982174Y-33166558D01*
X111062404Y-33073175D01*
X111067805Y-33066695D01*
X111154854Y-32971070D01*
X111232260Y-32911383D01*
X111315200Y-32879131D01*
X111418854Y-32865815D01*
X111427229Y-32865374D01*
X111589267Y-32857781D01*
X111709576Y-32853681D01*
X111797245Y-32853674D01*
X111861367Y-32858356D01*
X111911029Y-32868327D01*
X111955324Y-32884184D01*
X111995642Y-32902786D01*
X112093278Y-32962684D01*
X112178085Y-33037446D01*
X112239417Y-33115627D01*
X112266628Y-33185782D01*
X112267109Y-33194608D01*
X112275374Y-33263176D01*
X112291828Y-33327340D01*
X112299392Y-33370247D01*
X112309237Y-33457255D01*
X112320795Y-33581643D01*
X112333504Y-33736690D01*
X112346796Y-33915674D01*
X112360107Y-34111875D01*
X112367104Y-34222607D01*
X112379844Y-34422582D01*
X112392394Y-34606566D01*
X112404264Y-34768321D01*
X112414963Y-34901609D01*
X112424002Y-35000192D01*
X112430890Y-35057834D01*
X112433720Y-35070071D01*
X112468652Y-35083663D01*
X112538485Y-35082347D01*
X112559393Y-35079617D01*
X112669007Y-35063179D01*
X112683156Y-35161111D01*
X112691960Y-35234973D01*
X112702003Y-35338558D01*
X112711261Y-35450795D01*
X112712137Y-35462650D01*
X112721431Y-35581262D01*
X112731794Y-35699936D01*
X112741049Y-35793819D01*
X112741412Y-35797130D01*
X112755855Y-35928003D01*
X112632374Y-35942939D01*
X112562726Y-35949254D01*
X112454929Y-35956495D01*
X112321707Y-35963915D01*
X112175785Y-35970767D01*
X112117075Y-35973167D01*
X111977055Y-35979715D01*
X111851853Y-35987583D01*
X111751803Y-35995970D01*
X111687237Y-36004076D01*
X111671684Y-36007702D01*
X111604462Y-36016706D01*
X111555014Y-36011009D01*
X111510781Y-35988789D01*
X111485171Y-35940724D01*
X111473823Y-35889092D01*
X111450139Y-35717390D01*
X111430504Y-35507375D01*
X111416050Y-35271551D01*
X111414351Y-35233592D01*
X111382870Y-34631268D01*
X111348510Y-34149854D01*
X111339206Y-34024958D01*
X111332666Y-33916794D01*
X111329453Y-33836402D01*
X111330129Y-33794821D01*
X111330359Y-33793541D01*
X111317699Y-33765951D01*
X111274524Y-33761691D01*
X111213520Y-33765096D01*
X111125235Y-33769273D01*
X111063685Y-33771889D01*
X110982075Y-33778400D01*
X110923353Y-33789083D01*
X110903725Y-33798465D01*
X110901668Y-33828867D01*
X110903052Y-33902396D01*
X110907542Y-34011417D01*
X110914799Y-34148296D01*
X110924488Y-34305399D01*
X110929069Y-34373638D01*
X110941631Y-34560280D01*
X110954068Y-34751801D01*
X110965528Y-34934603D01*
X110975160Y-35095089D01*
X110982113Y-35219659D01*
X110982592Y-35228905D01*
X110990808Y-35370479D01*
X111000789Y-35514947D01*
X111011092Y-35642519D01*
X111017864Y-35712472D01*
X111025586Y-35861243D01*
X111011232Y-35965714D01*
X110974361Y-36027661D01*
X110934756Y-36046707D01*
X110883420Y-36053401D01*
X110790521Y-36061888D01*
X110665341Y-36071497D01*
X110517159Y-36081560D01*
X110355255Y-36091403D01*
X110200425Y-36099778D01*
X110106849Y-36102484D01*
X110052434Y-36097329D01*
X110025761Y-36082172D01*
X110017765Y-36065492D01*
X110001172Y-35987548D01*
X109986949Y-35877638D01*
X109974519Y-35729895D01*
X109963302Y-35538456D01*
X109960855Y-35488101D01*
X109953393Y-35331115D01*
X109947121Y-35204495D01*
X109941183Y-35093023D01*
X109934721Y-34981482D01*
X109926876Y-34854657D01*
X109916791Y-34697330D01*
X109912784Y-34635496D01*
X109904252Y-34495844D01*
X109896447Y-34353525D01*
X109890425Y-34228569D01*
X109887920Y-34164654D01*
X109883712Y-34040418D01*
X109878927Y-33957821D01*
X109870678Y-33907655D01*
X109856077Y-33880710D01*
X109832237Y-33867777D01*
X109796269Y-33859647D01*
X109792009Y-33858768D01*
X109685604Y-33826066D01*
X109625560Y-33780309D01*
X109608283Y-33718213D01*
X109611337Y-33693663D01*
X109614575Y-33634212D01*
X109596410Y-33617460D01*
X109582109Y-33632841D01*
X109575652Y-33682981D01*
X109576642Y-33773873D01*
X109580795Y-33852881D01*
X109586656Y-33952988D01*
X109594304Y-34091460D01*
X109603075Y-34255817D01*
X109612303Y-34433581D01*
X109621322Y-34612272D01*
X109621843Y-34622771D01*
X109631080Y-34788051D01*
X109641565Y-34940816D01*
X109652523Y-35072006D01*
X109663180Y-35172563D01*
X109672758Y-35233429D01*
X109674753Y-35240944D01*
X109686875Y-35299803D01*
X109697501Y-35390342D01*
X109706536Y-35505546D01*
X109713885Y-35638396D01*
X109719453Y-35781876D01*
X109723145Y-35928968D01*
X109724864Y-36072657D01*
X109724516Y-36205925D01*
X109722006Y-36321755D01*
X109717239Y-36413131D01*
X109710118Y-36473035D01*
X109700549Y-36494450D01*
X109691587Y-36480687D01*
X109685537Y-36442570D01*
X109677410Y-36360747D01*
X109667748Y-36242346D01*
X109657094Y-36094497D01*
X109645990Y-35924327D01*
X109634979Y-35738965D01*
X109634466Y-35729885D01*
X109622361Y-35515463D01*
X109609571Y-35289859D01*
X109596856Y-35066409D01*
X109584977Y-34858444D01*
X109574692Y-34679298D01*
X109569220Y-34584594D01*
X109543056Y-34128514D01*
X109520349Y-33721841D01*
X109501047Y-33363200D01*
X109485093Y-33051218D01*
X109472434Y-32784521D01*
X109463016Y-32561735D01*
X109456783Y-32381486D01*
X109453682Y-32242400D01*
X109453658Y-32143104D01*
X109456656Y-32082223D01*
X109462623Y-32058384D01*
X109469451Y-32064955D01*
G37*
G36*
X108241934Y-36249198D02*
G01*
X108269257Y-36274824D01*
X108263652Y-36289557D01*
X108260094Y-36289805D01*
X108238567Y-36271728D01*
X108230711Y-36260421D01*
X108227711Y-36243006D01*
X108241934Y-36249198D01*
G37*
G36*
X107979279Y-32352902D02*
G01*
X107997720Y-32367119D01*
X108037288Y-32404268D01*
X108037116Y-32420850D01*
X108032650Y-32421268D01*
X108011405Y-32403875D01*
X107988111Y-32376729D01*
X107966100Y-32346582D01*
X107979279Y-32352902D01*
G37*
G36*
X108642627Y-31291958D02*
G01*
X108609915Y-31331252D01*
X108602179Y-31339604D01*
X108558635Y-31382410D01*
X108531217Y-31402925D01*
X108529679Y-31403232D01*
X108536281Y-31387251D01*
X108568992Y-31347956D01*
X108576728Y-31339604D01*
X108620272Y-31296799D01*
X108647690Y-31276284D01*
X108649228Y-31275977D01*
X108642627Y-31291958D01*
G37*
G36*
X105843150Y-36912965D02*
G01*
X105840756Y-36926077D01*
X105808218Y-36950557D01*
X105801078Y-36951528D01*
X105777814Y-36932116D01*
X105777129Y-36926077D01*
X105797845Y-36903741D01*
X105816807Y-36900626D01*
X105843150Y-36912965D01*
G37*
G36*
X98269113Y-33502931D02*
G01*
X98293393Y-33525801D01*
X98294564Y-33529884D01*
X98274873Y-33540816D01*
X98269113Y-33541107D01*
X98244640Y-33521542D01*
X98243662Y-33514154D01*
X98259254Y-33498954D01*
X98269113Y-33502931D01*
G37*
G36*
X98263573Y-30296020D02*
G01*
X98288731Y-30329522D01*
X98277654Y-30355484D01*
X98258508Y-30359745D01*
X98223449Y-30339253D01*
X98218211Y-30319447D01*
X98233047Y-30291576D01*
X98263573Y-30296020D01*
G37*
G36*
X101110541Y-31685663D02*
G01*
X101111800Y-31690039D01*
X101115526Y-31745479D01*
X101110857Y-31766391D01*
X101102502Y-31767237D01*
X101099090Y-31727395D01*
X101099125Y-31721368D01*
X101102795Y-31681895D01*
X101110541Y-31685663D01*
G37*
G36*
X106460371Y-30548196D02*
G01*
X106487694Y-30573822D01*
X106482089Y-30588555D01*
X106478531Y-30588803D01*
X106457004Y-30570726D01*
X106449148Y-30559419D01*
X106446148Y-30542004D01*
X106460371Y-30548196D01*
G37*
G36*
X97815663Y-29921565D02*
G01*
X97835108Y-29953961D01*
X97832630Y-29964831D01*
X97806039Y-29964044D01*
X97802513Y-29961014D01*
X97785733Y-29921833D01*
X97785546Y-29917747D01*
X97798458Y-29908284D01*
X97815663Y-29921565D01*
G37*
G36*
X108955599Y-32686353D02*
G01*
X108969538Y-32709265D01*
X108942420Y-32731283D01*
X108934398Y-32733698D01*
X108887556Y-32729115D01*
X108871856Y-32711141D01*
X108878716Y-32681687D01*
X108906887Y-32675777D01*
X108955599Y-32686353D01*
G37*
G36*
X64750856Y-33561459D02*
G01*
X64752053Y-33398843D01*
X64755087Y-33199718D01*
X64759647Y-32978430D01*
X64765420Y-32749329D01*
X64772091Y-32526761D01*
X64775708Y-32421268D01*
X64799980Y-31746819D01*
X64865625Y-31689554D01*
X64905973Y-31660343D01*
X64953515Y-31643055D01*
X65022306Y-31634769D01*
X65126400Y-31632563D01*
X65139821Y-31632565D01*
X65327010Y-31643436D01*
X65492743Y-31679261D01*
X65658081Y-31745672D01*
X65757043Y-31797590D01*
X65908331Y-31910431D01*
X66028450Y-32062600D01*
X66117862Y-32254792D01*
X66159226Y-32399301D01*
X66192874Y-32621217D01*
X66200063Y-32865006D01*
X66182164Y-33114723D01*
X66140550Y-33354426D01*
X66076592Y-33568170D01*
X66053886Y-33623421D01*
X65980106Y-33748655D01*
X65873549Y-33876618D01*
X65748917Y-33991691D01*
X65630960Y-34072728D01*
X65513789Y-34121852D01*
X65364336Y-34160662D01*
X65200653Y-34186450D01*
X65040789Y-34196508D01*
X64902793Y-34188130D01*
X64883612Y-34184832D01*
X64840388Y-34169764D01*
X64807373Y-34139326D01*
X64783292Y-34087545D01*
X64766874Y-34008448D01*
X64756848Y-33896060D01*
X64752764Y-33769872D01*
X64881648Y-33769872D01*
X64883432Y-33852970D01*
X64893682Y-33914778D01*
X64914109Y-33969976D01*
X64926902Y-33996226D01*
X64959166Y-34055264D01*
X64989738Y-34086487D01*
X65035430Y-34098710D01*
X65113054Y-34100748D01*
X65126193Y-34100725D01*
X65239287Y-34093477D01*
X65358828Y-34075460D01*
X65407229Y-34064432D01*
X65511008Y-34031576D01*
X65598351Y-33988991D01*
X65685973Y-33926765D01*
X65784203Y-33840882D01*
X65830064Y-33795654D01*
X65866232Y-33749712D01*
X65897783Y-33692772D01*
X65929795Y-33614548D01*
X65967345Y-33504754D01*
X65998928Y-33405876D01*
X66041100Y-33270329D01*
X66069856Y-33168698D01*
X66087378Y-33086447D01*
X66095848Y-33009037D01*
X66097449Y-32921932D01*
X66094363Y-32810596D01*
X66093154Y-32778284D01*
X66086388Y-32641320D01*
X66076543Y-32541094D01*
X66061063Y-32463447D01*
X66037393Y-32394217D01*
X66014692Y-32343412D01*
X65968428Y-32257311D01*
X65919577Y-32183358D01*
X65889654Y-32148554D01*
X65827082Y-32108835D01*
X65733605Y-32069192D01*
X65628792Y-32036275D01*
X65532214Y-32016733D01*
X65493735Y-32014053D01*
X65449450Y-32005299D01*
X65446889Y-31975266D01*
X65447068Y-31974796D01*
X65448791Y-31949752D01*
X65419090Y-31945078D01*
X65376967Y-31951515D01*
X65292992Y-31955265D01*
X65203124Y-31942907D01*
X65196050Y-31941054D01*
X65123501Y-31927382D01*
X65071608Y-31938591D01*
X65040501Y-31957972D01*
X65000671Y-31997984D01*
X64990878Y-32030363D01*
X64990777Y-32066601D01*
X64979865Y-32124688D01*
X64962879Y-32187608D01*
X64944559Y-32238344D01*
X64929642Y-32259879D01*
X64927230Y-32258952D01*
X64917987Y-32273077D01*
X64910313Y-32322669D01*
X64909471Y-32332963D01*
X64911529Y-32394989D01*
X64924900Y-32431548D01*
X64926684Y-32432913D01*
X64937683Y-32465099D01*
X64930975Y-32517052D01*
X64922277Y-32593657D01*
X64928461Y-32650326D01*
X64931974Y-32722506D01*
X64920300Y-32770464D01*
X64910251Y-32832994D01*
X64926151Y-32863910D01*
X64943836Y-32904879D01*
X64924948Y-32951857D01*
X64905964Y-33002146D01*
X64919046Y-33059308D01*
X64924789Y-33072436D01*
X64940996Y-33127643D01*
X64933405Y-33157037D01*
X64914364Y-33189775D01*
X64895922Y-33252262D01*
X64892133Y-33270921D01*
X64883149Y-33333318D01*
X64889835Y-33357284D01*
X64915580Y-33353786D01*
X64917513Y-33353054D01*
X64946400Y-33346182D01*
X64934573Y-33368207D01*
X64930439Y-33373257D01*
X64915699Y-33413804D01*
X64901689Y-33491775D01*
X64890533Y-33593715D01*
X64886617Y-33650803D01*
X64881648Y-33769872D01*
X64752764Y-33769872D01*
X64751940Y-33744409D01*
X64750856Y-33561459D01*
G37*
G36*
X97613374Y-35688294D02*
G01*
X97676039Y-35701128D01*
X97709193Y-35704476D01*
X97734531Y-35708533D01*
X97715515Y-35725757D01*
X97709193Y-35729885D01*
X97644218Y-35753532D01*
X97591503Y-35740620D01*
X97571558Y-35714092D01*
X97568985Y-35685510D01*
X97601564Y-35685336D01*
X97613374Y-35688294D01*
G37*
G36*
X108650786Y-35989694D02*
G01*
X108647666Y-36013363D01*
X108633649Y-36032522D01*
X108617016Y-36013261D01*
X108607677Y-35975792D01*
X108612356Y-35965733D01*
X108637516Y-35961554D01*
X108650786Y-35989694D01*
G37*
G36*
X109241206Y-31228201D02*
G01*
X109263898Y-31235729D01*
X109263903Y-31235843D01*
X109247618Y-31258755D01*
X109206747Y-31303419D01*
X109187550Y-31322963D01*
X109111197Y-31399316D01*
X109111197Y-31312196D01*
X109115703Y-31253211D01*
X109138316Y-31229364D01*
X109187550Y-31225075D01*
X109241206Y-31228201D01*
G37*
G36*
X115934968Y-32823789D02*
G01*
X115929535Y-32469850D01*
X115924615Y-32133606D01*
X115920243Y-31818368D01*
X115916459Y-31527449D01*
X115913299Y-31264159D01*
X115910802Y-31031810D01*
X115909005Y-30833714D01*
X115907946Y-30673183D01*
X115907662Y-30553529D01*
X115908192Y-30478062D01*
X115909574Y-30450095D01*
X115909620Y-30450033D01*
X115937036Y-30447905D01*
X116010973Y-30446870D01*
X116127063Y-30446848D01*
X116280938Y-30447759D01*
X116468231Y-30449523D01*
X116684574Y-30452061D01*
X116925598Y-30455292D01*
X117186938Y-30459138D01*
X117464224Y-30463518D01*
X117753089Y-30468352D01*
X118049165Y-30473561D01*
X118348085Y-30479066D01*
X118645481Y-30484785D01*
X118936986Y-30490641D01*
X119218231Y-30496552D01*
X119484849Y-30502439D01*
X119732472Y-30508223D01*
X119956733Y-30513824D01*
X120153263Y-30519161D01*
X120317696Y-30524156D01*
X120445663Y-30528728D01*
X120532797Y-30532798D01*
X120564103Y-30535006D01*
X120672362Y-30543033D01*
X120763009Y-30545985D01*
X120823057Y-30543621D01*
X120838169Y-30540060D01*
X120874831Y-30535778D01*
X120951031Y-30536909D01*
X121055745Y-30543005D01*
X121177948Y-30553619D01*
X121181756Y-30554002D01*
X121304031Y-30566229D01*
X121408750Y-30576523D01*
X121484998Y-30583821D01*
X121521862Y-30587065D01*
X121522262Y-30587089D01*
X121541532Y-30603792D01*
X121558953Y-30653315D01*
X121574802Y-30738352D01*
X121589356Y-30861596D01*
X121602892Y-31025739D01*
X121615687Y-31233477D01*
X121628020Y-31487501D01*
X121636689Y-31698527D01*
X121667301Y-32490116D01*
X121608353Y-32572902D01*
X121561199Y-32634424D01*
X121494375Y-32715953D01*
X121422773Y-32799350D01*
X121309509Y-32947567D01*
X121234671Y-33089628D01*
X121201684Y-33218639D01*
X121200375Y-33246777D01*
X121200375Y-33329991D01*
X121421464Y-33346985D01*
X121522510Y-33356167D01*
X121602900Y-33366123D01*
X121650092Y-33375190D01*
X121656885Y-33378217D01*
X121664406Y-33408216D01*
X121672939Y-33477264D01*
X121681191Y-33573562D01*
X121685415Y-33638575D01*
X121690808Y-33761316D01*
X121688983Y-33850341D01*
X121678070Y-33922550D01*
X121656195Y-33994848D01*
X121641695Y-34033408D01*
X121593068Y-34134835D01*
X121530921Y-34234314D01*
X121491844Y-34283882D01*
X121420642Y-34369965D01*
X121349005Y-34467578D01*
X121324827Y-34504034D01*
X121265813Y-34615055D01*
X121216595Y-34741621D01*
X121179392Y-34872826D01*
X121156423Y-34997762D01*
X121149907Y-35105523D01*
X121162064Y-35185201D01*
X121180015Y-35215777D01*
X121222787Y-35232353D01*
X121306167Y-35242971D01*
X121408556Y-35246318D01*
X121606555Y-35246318D01*
X121662827Y-35354484D01*
X121692962Y-35425962D01*
X121712808Y-35510874D01*
X121725074Y-35623602D01*
X121729912Y-35710309D01*
X121740725Y-35957967D01*
X121669451Y-35985066D01*
X121608838Y-36000224D01*
X121516649Y-36014533D01*
X121412167Y-36025036D01*
X121405638Y-36025500D01*
X121334994Y-36029318D01*
X121218514Y-36034292D01*
X121061246Y-36040273D01*
X120868239Y-36047110D01*
X120644543Y-36054652D01*
X120395206Y-36062750D01*
X120125277Y-36071253D01*
X119839804Y-36080011D01*
X119543837Y-36088874D01*
X119242424Y-36097691D01*
X118940614Y-36106311D01*
X118643456Y-36114585D01*
X118355999Y-36122363D01*
X118083291Y-36129493D01*
X117830382Y-36135826D01*
X117602319Y-36141212D01*
X117404153Y-36145499D01*
X117319113Y-36147161D01*
X117111902Y-36151443D01*
X116910815Y-36156370D01*
X116724339Y-36161675D01*
X116560962Y-36167092D01*
X116429170Y-36172357D01*
X116337448Y-36177203D01*
X116320352Y-36178429D01*
X116110570Y-36194971D01*
X116048061Y-36057869D01*
X115985551Y-35920767D01*
X115960756Y-34406438D01*
X118572427Y-34406438D01*
X118589385Y-34514604D01*
X118628542Y-34658237D01*
X118697389Y-34811435D01*
X118784989Y-34953097D01*
X118866359Y-35049004D01*
X118998967Y-35145849D01*
X119168675Y-35219481D01*
X119366559Y-35268435D01*
X119583696Y-35291244D01*
X119811162Y-35286440D01*
X120040034Y-35252557D01*
X120067327Y-35246430D01*
X120295828Y-35178465D01*
X120481202Y-35090285D01*
X120628009Y-34979482D01*
X120683029Y-34921217D01*
X120738266Y-34851553D01*
X120773731Y-34789818D01*
X120796907Y-34717809D01*
X120815278Y-34617322D01*
X120819448Y-34589377D01*
X120833615Y-34486179D01*
X120837951Y-34415021D01*
X120830182Y-34357606D01*
X120808033Y-34295638D01*
X120773532Y-34220013D01*
X120725576Y-34126486D01*
X120678453Y-34063412D01*
X120616349Y-34013145D01*
X120554397Y-33975500D01*
X120481039Y-33930922D01*
X120429455Y-33894598D01*
X120411397Y-33875400D01*
X120428237Y-33849407D01*
X120472157Y-33799709D01*
X120527046Y-33743651D01*
X120636726Y-33602757D01*
X120700375Y-33443213D01*
X120716955Y-33270181D01*
X120685424Y-33088822D01*
X120668889Y-33040066D01*
X120598003Y-32899367D01*
X120498522Y-32785550D01*
X120366512Y-32696555D01*
X120198037Y-32630325D01*
X119989162Y-32584803D01*
X119748591Y-32558783D01*
X119485682Y-32558902D01*
X119252237Y-32597138D01*
X119049986Y-32672774D01*
X118880659Y-32785097D01*
X118745985Y-32933389D01*
X118710750Y-32987885D01*
X118662360Y-33076183D01*
X118639479Y-33140548D01*
X118637110Y-33197794D01*
X118640875Y-33222943D01*
X118657592Y-33312049D01*
X118828232Y-33312270D01*
X118942949Y-33314986D01*
X119060690Y-33321765D01*
X119131296Y-33328400D01*
X119207816Y-33335643D01*
X119257551Y-33328937D01*
X119300171Y-33300391D01*
X119355350Y-33242115D01*
X119360354Y-33236536D01*
X119428363Y-33168444D01*
X119496583Y-33112199D01*
X119529493Y-33091198D01*
X119572918Y-33072363D01*
X119612618Y-33070069D01*
X119664731Y-33086880D01*
X119745394Y-33125361D01*
X119745825Y-33125577D01*
X119822437Y-33169919D01*
X119877700Y-33213231D01*
X119897859Y-33241935D01*
X119895626Y-33290407D01*
X119881053Y-33366891D01*
X119866696Y-33421768D01*
X119831888Y-33515371D01*
X119785514Y-33578485D01*
X119733232Y-33619137D01*
X119635531Y-33693782D01*
X119579659Y-33767279D01*
X119558618Y-33852863D01*
X119562518Y-33941932D01*
X119574110Y-34020325D01*
X119591910Y-34063462D01*
X119626994Y-34086757D01*
X119677666Y-34102197D01*
X119756505Y-34137544D01*
X119845185Y-34198345D01*
X119890044Y-34237447D01*
X119947570Y-34295592D01*
X119979481Y-34343429D01*
X119986941Y-34394339D01*
X119971112Y-34461707D01*
X119933156Y-34558914D01*
X119920573Y-34588908D01*
X119879605Y-34662718D01*
X119824598Y-34708083D01*
X119743654Y-34730959D01*
X119624875Y-34737300D01*
X119624093Y-34737300D01*
X119530806Y-34733101D01*
X119462924Y-34714876D01*
X119408280Y-34674184D01*
X119354709Y-34602584D01*
X119302718Y-34514298D01*
X119230819Y-34386394D01*
X119076670Y-34374917D01*
X118979061Y-34372176D01*
X118890383Y-34377232D01*
X118846335Y-34384940D01*
X118767425Y-34399631D01*
X118678170Y-34406389D01*
X118671289Y-34406438D01*
X118572427Y-34406438D01*
X115960756Y-34406438D01*
X115940874Y-33192111D01*
X115934968Y-32823789D01*
G37*
G36*
X109110458Y-32567890D02*
G01*
X109111197Y-32573973D01*
X109091830Y-32598684D01*
X109085746Y-32599424D01*
X109061035Y-32580057D01*
X109060295Y-32573973D01*
X109079663Y-32549262D01*
X109085746Y-32548522D01*
X109110458Y-32567890D01*
G37*
G36*
X121910547Y-31567373D02*
G01*
X121894741Y-31309518D01*
X121880337Y-31066836D01*
X121867644Y-30844152D01*
X121856972Y-30646293D01*
X121848633Y-30478087D01*
X121842935Y-30344360D01*
X121840190Y-30249939D01*
X121840708Y-30199650D01*
X121841806Y-30193158D01*
X121883098Y-30136795D01*
X121917538Y-30108309D01*
X121966244Y-30092066D01*
X122061287Y-30073652D01*
X122198171Y-30053504D01*
X122372398Y-30032060D01*
X122579470Y-30009755D01*
X122814891Y-29987028D01*
X123074162Y-29964316D01*
X123352786Y-29942054D01*
X123646267Y-29920681D01*
X123950106Y-29900634D01*
X124220033Y-29884573D01*
X124452817Y-29871444D01*
X124468155Y-29969251D01*
X124487018Y-30103729D01*
X124506555Y-30268021D01*
X124526038Y-30453191D01*
X124544736Y-30650302D01*
X124561923Y-30850418D01*
X124576869Y-31044602D01*
X124588846Y-31223916D01*
X124597126Y-31379425D01*
X124600979Y-31502192D01*
X124599703Y-31582929D01*
X124598001Y-31808295D01*
X124621668Y-32067133D01*
X124625057Y-32091947D01*
X124636176Y-32187896D01*
X124646218Y-32311127D01*
X124655330Y-32465246D01*
X124663662Y-32653860D01*
X124671360Y-32880576D01*
X124678573Y-33148999D01*
X124685447Y-33462736D01*
X124689133Y-33655636D01*
X124694521Y-33951618D01*
X124698997Y-34201004D01*
X124702620Y-34408089D01*
X124705447Y-34577170D01*
X124707535Y-34712544D01*
X124708943Y-34818505D01*
X124709727Y-34899350D01*
X124709946Y-34959376D01*
X124709657Y-35002879D01*
X124708918Y-35034154D01*
X124707913Y-35055436D01*
X124708219Y-35087159D01*
X124709912Y-35162287D01*
X124712793Y-35273349D01*
X124716665Y-35412871D01*
X124721328Y-35573382D01*
X124724301Y-35672620D01*
X124728818Y-35852854D01*
X124730823Y-36007465D01*
X124730364Y-36130725D01*
X124727487Y-36216904D01*
X124722238Y-36260275D01*
X124719459Y-36264354D01*
X124686732Y-36256649D01*
X124617865Y-36235986D01*
X124524825Y-36206039D01*
X124470816Y-36188001D01*
X124370723Y-36154751D01*
X124289395Y-36128827D01*
X124238445Y-36113876D01*
X124227734Y-36111648D01*
X124205123Y-36134769D01*
X124172685Y-36198272D01*
X124133759Y-36293372D01*
X124091685Y-36411283D01*
X124049804Y-36543219D01*
X124011456Y-36680394D01*
X124011325Y-36680900D01*
X123978278Y-36798333D01*
X123944376Y-36901719D01*
X123914067Y-36978353D01*
X123895477Y-37011762D01*
X123851256Y-37066057D01*
X123779273Y-36999564D01*
X123708548Y-36938977D01*
X123613538Y-36864028D01*
X123504701Y-36782255D01*
X123392496Y-36701196D01*
X123287383Y-36628389D01*
X123199820Y-36571371D01*
X123140267Y-36537681D01*
X123135394Y-36535519D01*
X123048483Y-36498976D01*
X122812336Y-36884320D01*
X122734541Y-37011342D01*
X122665116Y-37124839D01*
X122608804Y-37217046D01*
X122570348Y-37280198D01*
X122555267Y-37305189D01*
X122519607Y-37323203D01*
X122463671Y-37305039D01*
X122397432Y-37255457D01*
X122353989Y-37209133D01*
X122315508Y-37167329D01*
X122294570Y-37163121D01*
X122281498Y-37186370D01*
X122276857Y-37223893D01*
X122273498Y-37304268D01*
X122271532Y-37419459D01*
X122271070Y-37561429D01*
X122272222Y-37722143D01*
X122273175Y-37790839D01*
X122275417Y-37953572D01*
X122276769Y-38097736D01*
X122277216Y-38216072D01*
X122276741Y-38301322D01*
X122275330Y-38346227D01*
X122274377Y-38351338D01*
X122260737Y-38330390D01*
X122236369Y-38278355D01*
X122228963Y-38260973D01*
X122221606Y-38236073D01*
X122214849Y-38196068D01*
X122208572Y-38137730D01*
X122202657Y-38057833D01*
X122196983Y-37953151D01*
X122191430Y-37820458D01*
X122185881Y-37656526D01*
X122180213Y-37458131D01*
X122174309Y-37222045D01*
X122168048Y-36945041D01*
X122161312Y-36623895D01*
X122153979Y-36255378D01*
X122153262Y-36218538D01*
X122146793Y-35900914D01*
X122139958Y-35592997D01*
X122132890Y-35299344D01*
X122125725Y-35024515D01*
X122118599Y-34773069D01*
X122111647Y-34549562D01*
X122105004Y-34358555D01*
X122098805Y-34204605D01*
X122093187Y-34092272D01*
X122088284Y-34026113D01*
X122088125Y-34024675D01*
X122077389Y-33918494D01*
X122064640Y-33774391D01*
X122050189Y-33597193D01*
X122034347Y-33391725D01*
X122017423Y-33162816D01*
X121999728Y-32915291D01*
X121981572Y-32653978D01*
X121963266Y-32383702D01*
X121945119Y-32109292D01*
X121941328Y-32050588D01*
X122099682Y-32050588D01*
X122103648Y-32195383D01*
X122113388Y-32369730D01*
X122127939Y-32563245D01*
X122146335Y-32765548D01*
X122167612Y-32966256D01*
X122190805Y-33154987D01*
X122214948Y-33321359D01*
X122239079Y-33454990D01*
X122245363Y-33483663D01*
X122276851Y-33601234D01*
X122315265Y-33717671D01*
X122352947Y-33810049D01*
X122357484Y-33819276D01*
X122401328Y-33912521D01*
X122449977Y-34025964D01*
X122484667Y-34113600D01*
X122545890Y-34238296D01*
X122636045Y-34374202D01*
X122744879Y-34509480D01*
X122862141Y-34632292D01*
X122977579Y-34730802D01*
X123068140Y-34787327D01*
X123252656Y-34852799D01*
X123449416Y-34881474D01*
X123643100Y-34872429D01*
X123801740Y-34831427D01*
X123989647Y-34732163D01*
X124152554Y-34589258D01*
X124289216Y-34404088D01*
X124398387Y-34178034D01*
X124402735Y-34166651D01*
X124431161Y-34067715D01*
X124458494Y-33929553D01*
X124483355Y-33763843D01*
X124504362Y-33582260D01*
X124520136Y-33396479D01*
X124529295Y-33218177D01*
X124530871Y-33082991D01*
X124523646Y-32954484D01*
X124505873Y-32789058D01*
X124479602Y-32598430D01*
X124446884Y-32394318D01*
X124409771Y-32188440D01*
X124370314Y-31992514D01*
X124330565Y-31818258D01*
X124292575Y-31677391D01*
X124275726Y-31625527D01*
X124207248Y-31454713D01*
X124122332Y-31278755D01*
X124028461Y-31110962D01*
X123933114Y-30964648D01*
X123843773Y-30853122D01*
X123838454Y-30847500D01*
X123681429Y-30718946D01*
X123491372Y-30623134D01*
X123277655Y-30564648D01*
X123251325Y-30560423D01*
X123145973Y-30546966D01*
X123068297Y-30545338D01*
X122996103Y-30557179D01*
X122907194Y-30584125D01*
X122900780Y-30586279D01*
X122715887Y-30667044D01*
X122555252Y-30773839D01*
X122429915Y-30898782D01*
X122395158Y-30947312D01*
X122345763Y-31042503D01*
X122292638Y-31175336D01*
X122239509Y-31333098D01*
X122190103Y-31503079D01*
X122148147Y-31672568D01*
X122117367Y-31828852D01*
X122102456Y-31945726D01*
X122099682Y-32050588D01*
X121941328Y-32050588D01*
X121927443Y-31835573D01*
X121910547Y-31567373D01*
G37*
G36*
X108259239Y-31691179D02*
G01*
X108277680Y-31705396D01*
X108312929Y-31736792D01*
X108322219Y-31749935D01*
X108309839Y-31757553D01*
X108276005Y-31724859D01*
X108268071Y-31715005D01*
X108246060Y-31684859D01*
X108259239Y-31691179D01*
G37*
G36*
X98853708Y-33661433D02*
G01*
X98863266Y-33679990D01*
X98869779Y-33715851D01*
X98852682Y-33708891D01*
X98840712Y-33692120D01*
X98832889Y-33658809D01*
X98836066Y-33652846D01*
X98853708Y-33661433D01*
G37*
G36*
X108626890Y-36410976D02*
G01*
X108627630Y-36417059D01*
X108608262Y-36441771D01*
X108602179Y-36442510D01*
X108577468Y-36423143D01*
X108576728Y-36417059D01*
X108596096Y-36392348D01*
X108602179Y-36391608D01*
X108626890Y-36410976D01*
G37*
G36*
X107852025Y-31080357D02*
G01*
X107870466Y-31094574D01*
X107910034Y-31131723D01*
X107909862Y-31148305D01*
X107905396Y-31148723D01*
X107884151Y-31131330D01*
X107860857Y-31104184D01*
X107838845Y-31074037D01*
X107852025Y-31080357D01*
G37*
G36*
X87427029Y-33604735D02*
G01*
X87414303Y-33617460D01*
X87401578Y-33604735D01*
X87414303Y-33592009D01*
X87427029Y-33604735D01*
G37*
G36*
X108820550Y-31033439D02*
G01*
X108818512Y-31046919D01*
X108796742Y-31071172D01*
X108793061Y-31072370D01*
X108772826Y-31054619D01*
X108767610Y-31046919D01*
X108773654Y-31025357D01*
X108793061Y-31021468D01*
X108820550Y-31033439D01*
G37*
G36*
X98250025Y-31700968D02*
G01*
X98335853Y-31765796D01*
X98386855Y-31805676D01*
X98408591Y-31826642D01*
X98406620Y-31834727D01*
X98386503Y-31835966D01*
X98374349Y-31835897D01*
X98316149Y-31818508D01*
X98269113Y-31784995D01*
X98234001Y-31741024D01*
X98218212Y-31704958D01*
X98224525Y-31689029D01*
X98250025Y-31700968D01*
G37*
G36*
X65793762Y-32128582D02*
G01*
X65781037Y-32141308D01*
X65768311Y-32128582D01*
X65781037Y-32115857D01*
X65793762Y-32128582D01*
G37*
G36*
X88317810Y-32637600D02*
G01*
X88305085Y-32650326D01*
X88292359Y-32637600D01*
X88305085Y-32624875D01*
X88317810Y-32637600D01*
G37*
G36*
X76049700Y-36053818D02*
G01*
X76059258Y-36072374D01*
X76065771Y-36108236D01*
X76048674Y-36101276D01*
X76036704Y-36084504D01*
X76028881Y-36051194D01*
X76032057Y-36045230D01*
X76049700Y-36053818D01*
G37*
G36*
X107624401Y-31718645D02*
G01*
X107677210Y-31732731D01*
X107694391Y-31734483D01*
X107704399Y-31742990D01*
X107683326Y-31760927D01*
X107647068Y-31778136D01*
X107615957Y-31784605D01*
X107588340Y-31764285D01*
X107584143Y-31744096D01*
X107599321Y-31715351D01*
X107624401Y-31718645D01*
G37*
G36*
X100966028Y-37265690D02*
G01*
X100973102Y-37267086D01*
X101037493Y-37282622D01*
X101062461Y-37304917D01*
X101056241Y-37349609D01*
X101040485Y-37395014D01*
X101007300Y-37460208D01*
X100965191Y-37484917D01*
X100950572Y-37485997D01*
X100898242Y-37475112D01*
X100876810Y-37458895D01*
X100869980Y-37417491D01*
X100875232Y-37351623D01*
X100876995Y-37341522D01*
X100891842Y-37282328D01*
X100916174Y-37261191D01*
X100966028Y-37265690D01*
G37*
G36*
X112801868Y-33500609D02*
G01*
X112815205Y-33566934D01*
X112826731Y-33660184D01*
X112830820Y-33708586D01*
X112839410Y-33822556D01*
X112849988Y-33954980D01*
X112863026Y-34111367D01*
X112878996Y-34297228D01*
X112898371Y-34518072D01*
X112921624Y-34779409D01*
X112944758Y-35037133D01*
X112957399Y-35185429D01*
X112967141Y-35315571D01*
X112973481Y-35419359D01*
X112975915Y-35488593D01*
X112974092Y-35514953D01*
X112950092Y-35509716D01*
X112934948Y-35495079D01*
X112911206Y-35458044D01*
X112891194Y-35406518D01*
X112874338Y-35335474D01*
X112860064Y-35239887D01*
X112847796Y-35114730D01*
X112836962Y-34954980D01*
X112826987Y-34755608D01*
X112817296Y-34511590D01*
X112814906Y-34444614D01*
X112808873Y-34295732D01*
X112801723Y-34155662D01*
X112794174Y-34036423D01*
X112786947Y-33950030D01*
X112783674Y-33922871D01*
X112772531Y-33823263D01*
X112766535Y-33718111D01*
X112765550Y-33619043D01*
X112769444Y-33537692D01*
X112778082Y-33485686D01*
X112788852Y-33473169D01*
X112801868Y-33500609D01*
G37*
G36*
X107495712Y-31334866D02*
G01*
X107514153Y-31349083D01*
X107553721Y-31386232D01*
X107553549Y-31402814D01*
X107549083Y-31403232D01*
X107527838Y-31385839D01*
X107504544Y-31358693D01*
X107482533Y-31328546D01*
X107495712Y-31334866D01*
G37*
G36*
X108641003Y-31538473D02*
G01*
X108659444Y-31552691D01*
X108694692Y-31584087D01*
X108703983Y-31597230D01*
X108691602Y-31604848D01*
X108657769Y-31572154D01*
X108649834Y-31562300D01*
X108627823Y-31532153D01*
X108641003Y-31538473D01*
G37*
G36*
X73184303Y-31670466D02*
G01*
X73201951Y-31337584D01*
X73219106Y-31018035D01*
X73235550Y-30715647D01*
X73251064Y-30434246D01*
X73265432Y-30177659D01*
X73278435Y-29949710D01*
X73289856Y-29754228D01*
X73299476Y-29595039D01*
X73307078Y-29475968D01*
X73312444Y-29400842D01*
X73314981Y-29374949D01*
X73329439Y-29322482D01*
X73359647Y-29295613D01*
X73421825Y-29281596D01*
X73436281Y-29279635D01*
X73488450Y-29274066D01*
X73586474Y-29264849D01*
X73725465Y-29252386D01*
X73900537Y-29237080D01*
X74106805Y-29219334D01*
X74339382Y-29199552D01*
X74593381Y-29178135D01*
X74863917Y-29155488D01*
X75146103Y-29132012D01*
X75435053Y-29108112D01*
X75725881Y-29084190D01*
X76013700Y-29060648D01*
X76293624Y-29037890D01*
X76560766Y-29016319D01*
X76810242Y-28996338D01*
X77037164Y-28978350D01*
X77236645Y-28962757D01*
X77403801Y-28949963D01*
X77533744Y-28940371D01*
X77621588Y-28934383D01*
X77626337Y-28934091D01*
X77767160Y-28926741D01*
X77894028Y-28922378D01*
X77996386Y-28921197D01*
X78063676Y-28923390D01*
X78080589Y-28925741D01*
X78142448Y-28941267D01*
X78124414Y-30206961D01*
X78106381Y-31472656D01*
X78167178Y-31487915D01*
X78209293Y-31493355D01*
X78294260Y-31500290D01*
X78414069Y-31508215D01*
X78560710Y-31516622D01*
X78726173Y-31525005D01*
X78825347Y-31529556D01*
X79040383Y-31540584D01*
X79263729Y-31554786D01*
X79487911Y-31571452D01*
X79705456Y-31589870D01*
X79908893Y-31609329D01*
X80090747Y-31629118D01*
X80243545Y-31648527D01*
X80359815Y-31666843D01*
X80427863Y-31682048D01*
X80517698Y-31700610D01*
X80611601Y-31708634D01*
X80614055Y-31708642D01*
X80724204Y-31722353D01*
X80796114Y-31762187D01*
X80818731Y-31797026D01*
X80822178Y-31833839D01*
X80822757Y-31912741D01*
X80820633Y-32025005D01*
X80815969Y-32161910D01*
X80809014Y-32313113D01*
X80800862Y-32470933D01*
X80790746Y-32666718D01*
X80779330Y-32887601D01*
X80767281Y-33120715D01*
X80755263Y-33353192D01*
X80745547Y-33541107D01*
X80734364Y-33752069D01*
X80722589Y-33964813D01*
X80710841Y-34168809D01*
X80699740Y-34353528D01*
X80689903Y-34508438D01*
X80681968Y-34622771D01*
X80669403Y-34803785D01*
X80662267Y-34937450D01*
X80660497Y-35023231D01*
X80664027Y-35060594D01*
X80672793Y-35049003D01*
X80686730Y-34987924D01*
X80705773Y-34876822D01*
X80709683Y-34851829D01*
X80724959Y-34757526D01*
X80747152Y-34626824D01*
X80775334Y-34464771D01*
X80808579Y-34276412D01*
X80845962Y-34066794D01*
X80886557Y-33840964D01*
X80929437Y-33603968D01*
X80973676Y-33360853D01*
X81018349Y-33116665D01*
X81062529Y-32876451D01*
X81105291Y-32645258D01*
X81145708Y-32428131D01*
X81182854Y-32230118D01*
X81215803Y-32056266D01*
X81243630Y-31911620D01*
X81265407Y-31801227D01*
X81280210Y-31730134D01*
X81287112Y-31703388D01*
X81287397Y-31703476D01*
X81285474Y-31733770D01*
X81276188Y-31807200D01*
X81260641Y-31916706D01*
X81239932Y-32055233D01*
X81215164Y-32215720D01*
X81187437Y-32391111D01*
X81157851Y-32574347D01*
X81127508Y-32758370D01*
X81097508Y-32936122D01*
X81073763Y-33073234D01*
X81053837Y-33190479D01*
X81043305Y-33269247D01*
X81042111Y-33321077D01*
X81050200Y-33357509D01*
X81067517Y-33390083D01*
X81072200Y-33397329D01*
X81126314Y-33451255D01*
X81185517Y-33480416D01*
X81293256Y-33530437D01*
X81378920Y-33619371D01*
X81440159Y-33739207D01*
X81474624Y-33881933D01*
X81479966Y-34039538D01*
X81453834Y-34204012D01*
X81424678Y-34295863D01*
X81392026Y-34379347D01*
X81367879Y-34424373D01*
X81342713Y-34440086D01*
X81307003Y-34435628D01*
X81285380Y-34429600D01*
X81216284Y-34417368D01*
X81162885Y-34420186D01*
X81114503Y-34410156D01*
X81064168Y-34362802D01*
X81035029Y-34320177D01*
X81020184Y-34275514D01*
X81017196Y-34213105D01*
X81023624Y-34117245D01*
X81024496Y-34107390D01*
X81030262Y-33999170D01*
X81024296Y-33939558D01*
X81007182Y-33928910D01*
X80979499Y-33967577D01*
X80941830Y-34055914D01*
X80941460Y-34056903D01*
X80886759Y-34216730D01*
X80851226Y-34359755D01*
X80828666Y-34513307D01*
X80821817Y-34584594D01*
X80814649Y-34654256D01*
X80802021Y-34762498D01*
X80784937Y-34901739D01*
X80764402Y-35064399D01*
X80741418Y-35242898D01*
X80716990Y-35429655D01*
X80692123Y-35617089D01*
X80667819Y-35797620D01*
X80645084Y-35963667D01*
X80624920Y-36107650D01*
X80608333Y-36221987D01*
X80596325Y-36299099D01*
X80590920Y-36327981D01*
X80582856Y-36371657D01*
X80569722Y-36454414D01*
X80553251Y-36564892D01*
X80535178Y-36691728D01*
X80532841Y-36708542D01*
X80487146Y-37038201D01*
X80572117Y-37149519D01*
X80619133Y-37214242D01*
X80649991Y-37262720D01*
X80657089Y-37279440D01*
X80637934Y-37303024D01*
X80588415Y-37344683D01*
X80537883Y-37382066D01*
X80469753Y-37428325D01*
X80429688Y-37447399D01*
X80404910Y-37442488D01*
X80385177Y-37420278D01*
X80370491Y-37400335D01*
X80360644Y-37381570D01*
X80355953Y-37355831D01*
X80356738Y-37314968D01*
X80363317Y-37250831D01*
X80376010Y-37155268D01*
X80395134Y-37020130D01*
X80402978Y-36964987D01*
X80421439Y-36830089D01*
X80436874Y-36707926D01*
X80447921Y-36610003D01*
X80453215Y-36547827D01*
X80453482Y-36538685D01*
X80453482Y-36467961D01*
X80116257Y-36467632D01*
X79978342Y-36466355D01*
X79806180Y-36462983D01*
X79609164Y-36457863D01*
X79396687Y-36451339D01*
X79178144Y-36443755D01*
X78962927Y-36435458D01*
X78760431Y-36426792D01*
X78580050Y-36418102D01*
X78431176Y-36409733D01*
X78323204Y-36402030D01*
X78317949Y-36401572D01*
X78129411Y-36384875D01*
X78146833Y-36753601D01*
X78153003Y-36906984D01*
X78154557Y-37016465D01*
X78151234Y-37088858D01*
X78142773Y-37130976D01*
X78131764Y-37147742D01*
X78102166Y-37154402D01*
X78026520Y-37166112D01*
X77909375Y-37182336D01*
X77755277Y-37202540D01*
X77568776Y-37226191D01*
X77354418Y-37252754D01*
X77116751Y-37281694D01*
X76860322Y-37312478D01*
X76589680Y-37344572D01*
X76309371Y-37377440D01*
X76023944Y-37410549D01*
X75737945Y-37443365D01*
X75455923Y-37475353D01*
X75182425Y-37505979D01*
X74921999Y-37534709D01*
X74679192Y-37561008D01*
X74458552Y-37584343D01*
X74264627Y-37604178D01*
X74154383Y-37615006D01*
X73994234Y-37630495D01*
X73843718Y-37645219D01*
X73713248Y-37658147D01*
X73613240Y-37668248D01*
X73556287Y-37674245D01*
X73421793Y-37669367D01*
X73346317Y-37647400D01*
X73286213Y-37614484D01*
X73253112Y-37580841D01*
X73250876Y-37572276D01*
X73248125Y-37536276D01*
X73240500Y-37458731D01*
X73228943Y-37348667D01*
X73214399Y-37215107D01*
X73201289Y-37097794D01*
X73182829Y-36922466D01*
X73165366Y-36735085D01*
X73150454Y-36553854D01*
X73139649Y-36396973D01*
X73136613Y-36340707D01*
X73127014Y-36156280D01*
X73117562Y-36017470D01*
X73107540Y-35918998D01*
X73096230Y-35855585D01*
X73082915Y-35821952D01*
X73066876Y-35812822D01*
X73064872Y-35813095D01*
X73051077Y-35812748D01*
X73042749Y-35800382D01*
X73039990Y-35768589D01*
X73042897Y-35709959D01*
X73051570Y-35617085D01*
X73066108Y-35482555D01*
X73069737Y-35449925D01*
X73078156Y-35337797D01*
X73083711Y-35182923D01*
X73086291Y-34993385D01*
X73085784Y-34777266D01*
X73082163Y-34546418D01*
X73079811Y-34421580D01*
X73078452Y-34299221D01*
X73078234Y-34175100D01*
X73079310Y-34044976D01*
X73081830Y-33904606D01*
X73085944Y-33749749D01*
X73091804Y-33576164D01*
X73099559Y-33379608D01*
X73109360Y-33155841D01*
X73121359Y-32900619D01*
X73135705Y-32609703D01*
X73152550Y-32278849D01*
X73157416Y-32185241D01*
X74133256Y-32185241D01*
X74133533Y-32294013D01*
X74134954Y-32451210D01*
X74138914Y-32571769D01*
X74147150Y-32669944D01*
X74161398Y-32759994D01*
X74183396Y-32856174D01*
X74214880Y-32972741D01*
X74217247Y-32981188D01*
X74274618Y-33171579D01*
X74332625Y-33326464D01*
X74399093Y-33459359D01*
X74481846Y-33583780D01*
X74588709Y-33713244D01*
X74725539Y-33859244D01*
X74797080Y-33920621D01*
X74895555Y-33989618D01*
X75001552Y-34052809D01*
X75018297Y-34061684D01*
X75112637Y-34113433D01*
X75192842Y-34162428D01*
X75245198Y-34200136D01*
X75253474Y-34208027D01*
X75294717Y-34243568D01*
X75319172Y-34253733D01*
X75362006Y-34268191D01*
X75434019Y-34306709D01*
X75524283Y-34361999D01*
X75621872Y-34426774D01*
X75715859Y-34493748D01*
X75795317Y-34555634D01*
X75849320Y-34605145D01*
X75853978Y-34610382D01*
X75929957Y-34730261D01*
X75974582Y-34867404D01*
X75982714Y-35003305D01*
X75975665Y-35048598D01*
X75939918Y-35146396D01*
X75883415Y-35239127D01*
X75818689Y-35307683D01*
X75795870Y-35322722D01*
X75711045Y-35344697D01*
X75595464Y-35342424D01*
X75461686Y-35318388D01*
X75322275Y-35275068D01*
X75189793Y-35214949D01*
X75157572Y-35196597D01*
X75091801Y-35145665D01*
X75006513Y-35063281D01*
X74910941Y-34959997D01*
X74814316Y-34846369D01*
X74725870Y-34732950D01*
X74654834Y-34630293D01*
X74637912Y-34602510D01*
X74536925Y-34429544D01*
X74350523Y-35465438D01*
X74303684Y-35727287D01*
X74265736Y-35943405D01*
X74236069Y-36118068D01*
X74214072Y-36255553D01*
X74199133Y-36360135D01*
X74190643Y-36436091D01*
X74187989Y-36487696D01*
X74190562Y-36519227D01*
X74197730Y-36534941D01*
X74231753Y-36552593D01*
X74306440Y-36581708D01*
X74413612Y-36619413D01*
X74545093Y-36662838D01*
X74692703Y-36709112D01*
X74701509Y-36711799D01*
X74879865Y-36765034D01*
X75017673Y-36803296D01*
X75122478Y-36828276D01*
X75201831Y-36841665D01*
X75263279Y-36845154D01*
X75290199Y-36843661D01*
X75381262Y-36843448D01*
X75455245Y-36858291D01*
X75467823Y-36863904D01*
X75563414Y-36891466D01*
X75687059Y-36892137D01*
X75808692Y-36869794D01*
X75908403Y-36848797D01*
X76007396Y-36837739D01*
X76093437Y-36836751D01*
X76154292Y-36845964D01*
X76177726Y-36865510D01*
X76177730Y-36865832D01*
X76187024Y-36886610D01*
X76218700Y-36897056D01*
X76278449Y-36896824D01*
X76371962Y-36885566D01*
X76504931Y-36862937D01*
X76635846Y-36837926D01*
X76846141Y-36793345D01*
X77016551Y-36748976D01*
X77157937Y-36701039D01*
X77281161Y-36645753D01*
X77397081Y-36579341D01*
X77418565Y-36565552D01*
X77508628Y-36499348D01*
X77606503Y-36415268D01*
X77703056Y-36322658D01*
X77789157Y-36230865D01*
X77855671Y-36149234D01*
X77893467Y-36087112D01*
X77897417Y-36075494D01*
X77902703Y-36026216D01*
X77905052Y-35941890D01*
X77904128Y-35838304D01*
X77903175Y-35806238D01*
X77895666Y-35589905D01*
X77815117Y-35582091D01*
X77769829Y-35574260D01*
X77737707Y-35554998D01*
X77713605Y-35515055D01*
X77692375Y-35445183D01*
X77668870Y-35336133D01*
X77663668Y-35309945D01*
X77649716Y-35206207D01*
X77639418Y-35061180D01*
X77632758Y-34884344D01*
X77629724Y-34685180D01*
X77629809Y-34654071D01*
X78859503Y-34654071D01*
X78861014Y-34835520D01*
X78902592Y-34995820D01*
X78980131Y-35129819D01*
X79089524Y-35232366D01*
X79226665Y-35298311D01*
X79387449Y-35322502D01*
X79392362Y-35322529D01*
X79561479Y-35305330D01*
X79699153Y-35251552D01*
X79810173Y-35160434D01*
X79906287Y-35054803D01*
X79982640Y-35167808D01*
X80058067Y-35250854D01*
X80150180Y-35310619D01*
X80247561Y-35344009D01*
X80338796Y-35347930D01*
X80412466Y-35319289D01*
X80439313Y-35291557D01*
X80476226Y-35198783D01*
X80464492Y-35100480D01*
X80405439Y-35003902D01*
X80356961Y-34937998D01*
X80339461Y-34874050D01*
X80340941Y-34809660D01*
X80345060Y-34753994D01*
X80351890Y-34655874D01*
X80360867Y-34523639D01*
X80371430Y-34365632D01*
X80383015Y-34190195D01*
X80392172Y-34050125D01*
X80406113Y-33826038D01*
X80415132Y-33646161D01*
X80418508Y-33503978D01*
X80415524Y-33392971D01*
X80405459Y-33306623D01*
X80387595Y-33238417D01*
X80361213Y-33181835D01*
X80325593Y-33130361D01*
X80285525Y-33083547D01*
X80175873Y-32996671D01*
X80032789Y-32933400D01*
X79868343Y-32894519D01*
X79694602Y-32880810D01*
X79523634Y-32893058D01*
X79367509Y-32932046D01*
X79238292Y-32998557D01*
X79217957Y-33014224D01*
X79122073Y-33121351D01*
X79049096Y-33257667D01*
X79008374Y-33403299D01*
X79003029Y-33471117D01*
X79002780Y-33592009D01*
X79155486Y-33595827D01*
X79242506Y-33598283D01*
X79310510Y-33600712D01*
X79338886Y-33602190D01*
X79364098Y-33581732D01*
X79390942Y-33527322D01*
X79399673Y-33500796D01*
X79447502Y-33366264D01*
X79501982Y-33275887D01*
X79567573Y-33222964D01*
X79591176Y-33213005D01*
X79715492Y-33186357D01*
X79824446Y-33202998D01*
X79930103Y-33265561D01*
X79963552Y-33294215D01*
X79998042Y-33335995D01*
X80015450Y-33391426D01*
X80020756Y-33477768D01*
X80020816Y-33492689D01*
X80016147Y-33587481D01*
X79997932Y-33653249D01*
X79959856Y-33711352D01*
X79954157Y-33718225D01*
X79866619Y-33801349D01*
X79763108Y-33854162D01*
X79627125Y-33885060D01*
X79625992Y-33885223D01*
X79464927Y-33918672D01*
X79308567Y-33969725D01*
X79171264Y-34032604D01*
X79067369Y-34101534D01*
X79050541Y-34116820D01*
X78972746Y-34219958D01*
X78914393Y-34360397D01*
X78873899Y-34542589D01*
X78859503Y-34654071D01*
X77629809Y-34654071D01*
X77630302Y-34473168D01*
X77634478Y-34257789D01*
X77642237Y-34048522D01*
X77653568Y-33854849D01*
X77665983Y-33709694D01*
X77702028Y-33356537D01*
X77620691Y-33254041D01*
X77569429Y-33201827D01*
X77489858Y-33134983D01*
X77391735Y-33060231D01*
X77284820Y-32984291D01*
X77178873Y-32913884D01*
X77083654Y-32855731D01*
X77008920Y-32816553D01*
X76965782Y-32803031D01*
X76917909Y-32790522D01*
X76902782Y-32777096D01*
X76870349Y-32747330D01*
X76814048Y-32713200D01*
X76748240Y-32681197D01*
X76687286Y-32657814D01*
X76645549Y-32649542D01*
X76635457Y-32656260D01*
X76629683Y-32674502D01*
X76613787Y-32654942D01*
X76579807Y-32625717D01*
X76515834Y-32587254D01*
X76467834Y-32563108D01*
X76385937Y-32518590D01*
X76316738Y-32470358D01*
X76292319Y-32447720D01*
X76229659Y-32392003D01*
X76171858Y-32354604D01*
X76090417Y-32285509D01*
X76040510Y-32184106D01*
X76023662Y-32059201D01*
X76041396Y-31919601D01*
X76077882Y-31811541D01*
X76140473Y-31714544D01*
X76230778Y-31653529D01*
X76351171Y-31628075D01*
X76504032Y-31637758D01*
X76691735Y-31682156D01*
X76733416Y-31695084D01*
X76836311Y-31730044D01*
X76911485Y-31763515D01*
X76974828Y-31805809D01*
X77042232Y-31867239D01*
X77115180Y-31942830D01*
X77207431Y-32044955D01*
X77302423Y-32157279D01*
X77383203Y-32259581D01*
X77401235Y-32284049D01*
X77472197Y-32373127D01*
X77523953Y-32415774D01*
X77557744Y-32412176D01*
X77574806Y-32362517D01*
X77577530Y-32310412D01*
X77582257Y-32267382D01*
X77595648Y-32181126D01*
X77616520Y-32058359D01*
X77643690Y-31905794D01*
X77675973Y-31730147D01*
X77712187Y-31538130D01*
X77730292Y-31443809D01*
X77768304Y-31246650D01*
X77803628Y-31062984D01*
X77834989Y-30899475D01*
X77861111Y-30762789D01*
X77880720Y-30659588D01*
X77892540Y-30596537D01*
X77895056Y-30582590D01*
X77895766Y-30537204D01*
X77875754Y-30499185D01*
X77828009Y-30463331D01*
X77745515Y-30424435D01*
X77621259Y-30377295D01*
X77615706Y-30375302D01*
X77514567Y-30345138D01*
X77374609Y-30311752D01*
X77207642Y-30277173D01*
X77025476Y-30243426D01*
X76839923Y-30212540D01*
X76662793Y-30186542D01*
X76505897Y-30167458D01*
X76381045Y-30157316D01*
X76339256Y-30156209D01*
X75962325Y-30174765D01*
X75617941Y-30229859D01*
X75306979Y-30321113D01*
X75030313Y-30448151D01*
X74788820Y-30610597D01*
X74583374Y-30808073D01*
X74463890Y-30963379D01*
X74413344Y-31043109D01*
X74371145Y-31123935D01*
X74332563Y-31217537D01*
X74292869Y-31335595D01*
X74247335Y-31489787D01*
X74239425Y-31517761D01*
X74198575Y-31664516D01*
X74169695Y-31777218D01*
X74150753Y-31870756D01*
X74139720Y-31960014D01*
X74134565Y-32059881D01*
X74133256Y-32185241D01*
X73157416Y-32185241D01*
X73172044Y-31903817D01*
X73184303Y-31670466D01*
G37*
G36*
X101145065Y-31568662D02*
G01*
X101132339Y-31581388D01*
X101119614Y-31568662D01*
X101132339Y-31555937D01*
X101145065Y-31568662D01*
G37*
G36*
X106242770Y-36155672D02*
G01*
X106247971Y-36162550D01*
X106246807Y-36186040D01*
X106238249Y-36188001D01*
X106202270Y-36169428D01*
X106197069Y-36162550D01*
X106198232Y-36139060D01*
X106206790Y-36137099D01*
X106242770Y-36155672D01*
G37*
G36*
X109166524Y-33199406D02*
G01*
X109185295Y-33263856D01*
X109201798Y-33337550D01*
X109211001Y-33399959D01*
X109211584Y-33413853D01*
X109196737Y-33465387D01*
X109179940Y-33493330D01*
X109141715Y-33520459D01*
X109081294Y-33542900D01*
X109015356Y-33557222D01*
X108960581Y-33559991D01*
X108933651Y-33547774D01*
X108933041Y-33544143D01*
X108914689Y-33527686D01*
X108897439Y-33530916D01*
X108860312Y-33529162D01*
X108831707Y-33487802D01*
X108808329Y-33401602D01*
X108804981Y-33384001D01*
X108794299Y-33316201D01*
X108801339Y-33291958D01*
X108834407Y-33304806D01*
X108874102Y-33330187D01*
X108912692Y-33352966D01*
X108941982Y-33355023D01*
X108975364Y-33330709D01*
X109026231Y-33274373D01*
X109037555Y-33261236D01*
X109091726Y-33203712D01*
X109133337Y-33169334D01*
X109150516Y-33164728D01*
X109166524Y-33199406D01*
G37*
G36*
X107852025Y-31563924D02*
G01*
X107870466Y-31578142D01*
X107910034Y-31615290D01*
X107909862Y-31631872D01*
X107905396Y-31632290D01*
X107884151Y-31614897D01*
X107860857Y-31587751D01*
X107838845Y-31557604D01*
X107852025Y-31563924D01*
G37*
G36*
X107909781Y-31297651D02*
G01*
X107911220Y-31298551D01*
X107921137Y-31316106D01*
X107883929Y-31329098D01*
X107866681Y-31331929D01*
X107806513Y-31332484D01*
X107787750Y-31309746D01*
X107807785Y-31282760D01*
X107854937Y-31278142D01*
X107909781Y-31297651D01*
G37*
G36*
X112801578Y-33426578D02*
G01*
X112788852Y-33439304D01*
X112776127Y-33426578D01*
X112788852Y-33413853D01*
X112801578Y-33426578D01*
G37*
G36*
X106918487Y-31362625D02*
G01*
X106945810Y-31388251D01*
X106940205Y-31402984D01*
X106936647Y-31403232D01*
X106915120Y-31385154D01*
X106907264Y-31373848D01*
X106904264Y-31356432D01*
X106918487Y-31362625D01*
G37*
G36*
X108118589Y-34114386D02*
G01*
X108131337Y-34126478D01*
X108133391Y-34148961D01*
X108103043Y-34145224D01*
X108067710Y-34126478D01*
X108043860Y-34106712D01*
X108066783Y-34101503D01*
X108072571Y-34101417D01*
X108118589Y-34114386D01*
G37*
G36*
X85815138Y-36705503D02*
G01*
X85818184Y-36735707D01*
X85815138Y-36739437D01*
X85800008Y-36735944D01*
X85798171Y-36722470D01*
X85807483Y-36701521D01*
X85815138Y-36705503D01*
G37*
G36*
X108092125Y-34832128D02*
G01*
X108093161Y-34839103D01*
X108084478Y-34863893D01*
X108081938Y-34864554D01*
X108060208Y-34846720D01*
X108054985Y-34839103D01*
X108057003Y-34815651D01*
X108066208Y-34813652D01*
X108092125Y-34832128D01*
G37*
G36*
X105586247Y-36467961D02*
G01*
X105614514Y-36485279D01*
X105607417Y-36491623D01*
X105558060Y-36501919D01*
X105537427Y-36508860D01*
X105503400Y-36506498D01*
X105497169Y-36483409D01*
X105504233Y-36451388D01*
X105533322Y-36448376D01*
X105586247Y-36467961D01*
G37*
G36*
X108423512Y-32280673D02*
G01*
X108439925Y-32312674D01*
X108428641Y-32319464D01*
X108391338Y-32300733D01*
X108384800Y-32292320D01*
X108375273Y-32259188D01*
X108395023Y-32256469D01*
X108423512Y-32280673D01*
G37*
G36*
X87494633Y-30629846D02*
G01*
X87490656Y-30639705D01*
X87467786Y-30663984D01*
X87463703Y-30665155D01*
X87452771Y-30645464D01*
X87452480Y-30639705D01*
X87472045Y-30615232D01*
X87479433Y-30614254D01*
X87494633Y-30629846D01*
G37*
G36*
X81604255Y-37347952D02*
G01*
X81605632Y-37348437D01*
X81706027Y-37391015D01*
X81761250Y-37433423D01*
X81776929Y-37476388D01*
X81756989Y-37504421D01*
X81709623Y-37509169D01*
X81653509Y-37488915D01*
X81651847Y-37487879D01*
X81607531Y-37477570D01*
X81532631Y-37475684D01*
X81477089Y-37479410D01*
X81398417Y-37486509D01*
X81360529Y-37484364D01*
X81353631Y-37469496D01*
X81366946Y-37440267D01*
X81411336Y-37382423D01*
X81448958Y-37349402D01*
X81490058Y-37327631D01*
X81534755Y-37327192D01*
X81604255Y-37347952D01*
G37*
G36*
X76330436Y-36607941D02*
G01*
X76317710Y-36620666D01*
X76304985Y-36607941D01*
X76317710Y-36595216D01*
X76330436Y-36607941D01*
G37*
G36*
X100631268Y-37215122D02*
G01*
X100693551Y-37228102D01*
X100730104Y-37241055D01*
X100731790Y-37242395D01*
X100733255Y-37272444D01*
X100722092Y-37333798D01*
X100712604Y-37370738D01*
X100689213Y-37441033D01*
X100660122Y-37474306D01*
X100609923Y-37479275D01*
X100540606Y-37468036D01*
X100502230Y-37455780D01*
X100486682Y-37430470D01*
X100492019Y-37380150D01*
X100513586Y-37301879D01*
X100535728Y-37238341D01*
X100561299Y-37212151D01*
X100606483Y-37211378D01*
X100631268Y-37215122D01*
G37*
G36*
X106336659Y-36229424D02*
G01*
X106314121Y-36280423D01*
X106250167Y-36340707D01*
X106216313Y-36364942D01*
X106216027Y-36352622D01*
X106229689Y-36325888D01*
X106261784Y-36278444D01*
X106298509Y-36239853D01*
X106327449Y-36221310D01*
X106336659Y-36229424D01*
G37*
G36*
X72003782Y-33604735D02*
G01*
X71991057Y-33617460D01*
X71978331Y-33604735D01*
X71991057Y-33592009D01*
X72003782Y-33604735D01*
G37*
G36*
X108372085Y-31523510D02*
G01*
X108373121Y-31530486D01*
X108364437Y-31555275D01*
X108361898Y-31555937D01*
X108340168Y-31538103D01*
X108334945Y-31530486D01*
X108336962Y-31507034D01*
X108346168Y-31505035D01*
X108372085Y-31523510D01*
G37*
D13*
X180340000Y-14763750D02*
X180340000Y-47783750D01*
X177800000Y-17303750D02*
X177800000Y-19843750D01*
X177800000Y-17303750D02*
X180340000Y-17303750D01*
X162560000Y-14763750D02*
X180340000Y-14763750D01*
X162560000Y-47783750D02*
X162560000Y-14763750D01*
X177800000Y-19843750D02*
X180340000Y-19843750D01*
X180340000Y-47783750D02*
X162560000Y-47783750D01*
D11*
X165405365Y-23592780D02*
X165405365Y-23692780D01*
X165405365Y-23692780D02*
X165305365Y-23692780D01*
X165305365Y-23692780D02*
X165305365Y-23592780D01*
X165305365Y-23592780D02*
X165405365Y-23592780D01*
G36*
X165405365Y-23692780D02*
G01*
X165305365Y-23692780D01*
X165305365Y-23592780D01*
X165405365Y-23592780D01*
X165405365Y-23692780D01*
G37*
X165405365Y-23692780D02*
X165305365Y-23692780D01*
X165305365Y-23592780D01*
X165405365Y-23592780D01*
X165405365Y-23692780D01*
X165205365Y-23192780D02*
X165205365Y-23992780D01*
X165205365Y-23992780D02*
X165105365Y-23992780D01*
X165105365Y-23992780D02*
X165105365Y-23192780D01*
X165105365Y-23192780D02*
X165205365Y-23192780D01*
G36*
X165205365Y-23992780D02*
G01*
X165105365Y-23992780D01*
X165105365Y-23192780D01*
X165205365Y-23192780D01*
X165205365Y-23992780D01*
G37*
X165205365Y-23992780D02*
X165105365Y-23992780D01*
X165105365Y-23192780D01*
X165205365Y-23192780D01*
X165205365Y-23992780D01*
X165605365Y-23792780D02*
X165605365Y-23992780D01*
X165605365Y-23992780D02*
X165505365Y-23992780D01*
X165505365Y-23992780D02*
X165505365Y-23792780D01*
X165505365Y-23792780D02*
X165605365Y-23792780D01*
G36*
X165605365Y-23992780D02*
G01*
X165505365Y-23992780D01*
X165505365Y-23792780D01*
X165605365Y-23792780D01*
X165605365Y-23992780D01*
G37*
X165605365Y-23992780D02*
X165505365Y-23992780D01*
X165505365Y-23792780D01*
X165605365Y-23792780D01*
X165605365Y-23992780D01*
X165605365Y-23192780D02*
X165605365Y-23492780D01*
X165605365Y-23492780D02*
X165505365Y-23492780D01*
X165505365Y-23492780D02*
X165505365Y-23192780D01*
X165505365Y-23192780D02*
X165605365Y-23192780D01*
G36*
X165605365Y-23492780D02*
G01*
X165505365Y-23492780D01*
X165505365Y-23192780D01*
X165605365Y-23192780D01*
X165605365Y-23492780D01*
G37*
X165605365Y-23492780D02*
X165505365Y-23492780D01*
X165505365Y-23192780D01*
X165605365Y-23192780D01*
X165605365Y-23492780D01*
X165605365Y-23192780D02*
X165605365Y-23292780D01*
X165605365Y-23292780D02*
X165105365Y-23292780D01*
X165105365Y-23292780D02*
X165105365Y-23192780D01*
X165105365Y-23192780D02*
X165605365Y-23192780D01*
G36*
X165605365Y-23292780D02*
G01*
X165105365Y-23292780D01*
X165105365Y-23192780D01*
X165605365Y-23192780D01*
X165605365Y-23292780D01*
G37*
X165605365Y-23292780D02*
X165105365Y-23292780D01*
X165105365Y-23192780D01*
X165605365Y-23192780D01*
X165605365Y-23292780D01*
D14*
X179070000Y-18573750D03*
D15*
X179070000Y-21113750D03*
X179070000Y-23653750D03*
X179070000Y-26193750D03*
X179070000Y-28733750D03*
X179070000Y-31273750D03*
X179070000Y-33813750D03*
X179070000Y-36353750D03*
X179070000Y-38893750D03*
X179070000Y-41433750D03*
X179070000Y-43973750D03*
X179070000Y-46513750D03*
X163830000Y-46513750D03*
X163830000Y-43973750D03*
X163830000Y-41433750D03*
X163830000Y-38893750D03*
X163830000Y-36353750D03*
X163830000Y-33813750D03*
X163830000Y-31273750D03*
X163830000Y-28733750D03*
X163830000Y-26193750D03*
X163830000Y-23653750D03*
X163830000Y-21113750D03*
X163830000Y-18573750D03*
X176530000Y-46513750D03*
X173990000Y-46513750D03*
X171450000Y-46513750D03*
X168910000Y-46513750D03*
X166370000Y-46513750D03*
%LPC*%
D16*
X58102500Y-45085000D03*
X64452500Y-42545000D03*
D17*
X61912500Y-47625000D03*
D18*
X56832500Y-47625000D03*
X66992500Y-47625000D03*
D19*
X33337500Y-76200000D03*
D16*
X93027500Y-61595000D03*
D18*
X95567500Y-66675000D03*
D17*
X90487500Y-66675000D03*
D18*
X85407500Y-66675000D03*
D16*
X86677500Y-64135000D03*
X50165000Y-18732500D03*
D17*
X47625000Y-23812500D03*
D16*
X43815000Y-21272500D03*
D18*
X52705000Y-23812500D03*
X42545000Y-23812500D03*
D16*
X48577500Y-64135000D03*
D18*
X47307500Y-66675000D03*
D17*
X52387500Y-66675000D03*
D18*
X57467500Y-66675000D03*
D16*
X54927500Y-61595000D03*
D19*
X185737500Y-36512500D03*
D18*
X114617500Y-23812500D03*
D16*
X105727500Y-21272500D03*
D17*
X109537500Y-23812500D03*
D18*
X104457500Y-23812500D03*
D16*
X112077500Y-18732500D03*
D20*
X187768750Y-21312500D03*
D21*
X187768750Y-26312500D03*
X187768750Y-23812500D03*
D22*
X195268750Y-29412500D03*
X195268750Y-18212500D03*
D21*
X202268750Y-26312500D03*
X202268750Y-21312500D03*
D16*
X20002500Y-45085000D03*
D18*
X18732500Y-47625000D03*
X28892500Y-47625000D03*
D16*
X26352500Y-42545000D03*
D17*
X23812500Y-47625000D03*
X71437500Y-66675000D03*
D18*
X66357500Y-66675000D03*
D16*
X67627500Y-64135000D03*
D18*
X76517500Y-66675000D03*
D16*
X73977500Y-61595000D03*
D17*
X85725000Y-85725000D03*
D18*
X90805000Y-85725000D03*
D17*
X66675000Y-93980000D03*
D16*
X88265000Y-80645000D03*
D23*
X66675000Y-78740000D03*
D18*
X80645000Y-85725000D03*
D16*
X81915000Y-83185000D03*
D17*
X104775000Y-93980000D03*
D23*
X104775000Y-78740000D03*
D17*
X85725000Y-23812500D03*
D18*
X80645000Y-23812500D03*
D16*
X81915000Y-21272500D03*
X88265000Y-18732500D03*
D18*
X90805000Y-23812500D03*
X114617500Y-66675000D03*
D16*
X105727500Y-64135000D03*
D17*
X109537500Y-66675000D03*
D16*
X112077500Y-61595000D03*
D18*
X104457500Y-66675000D03*
X185420000Y-90487500D03*
D16*
X193040000Y-85407500D03*
X186690000Y-87947500D03*
D18*
X195580000Y-90487500D03*
D17*
X190500000Y-90487500D03*
D16*
X83502500Y-42545000D03*
D17*
X80962500Y-47625000D03*
D16*
X77152500Y-45085000D03*
D18*
X75882500Y-47625000D03*
X86042500Y-47625000D03*
D19*
X185737500Y-76200000D03*
D16*
X62865000Y-21272500D03*
D17*
X66675000Y-23812500D03*
D16*
X69215000Y-18732500D03*
D18*
X61595000Y-23812500D03*
X71755000Y-23812500D03*
D16*
X197802500Y-42545000D03*
D17*
X195262500Y-47625000D03*
D18*
X190182500Y-47625000D03*
D16*
X191452500Y-45085000D03*
D18*
X200342500Y-47625000D03*
D16*
X145415000Y-42545000D03*
D18*
X137795000Y-47625000D03*
D17*
X142875000Y-47625000D03*
D16*
X139065000Y-45085000D03*
D18*
X147955000Y-47625000D03*
X105092500Y-47625000D03*
X94932500Y-47625000D03*
D16*
X102552500Y-42545000D03*
X96202500Y-45085000D03*
D17*
X100012500Y-47625000D03*
D18*
X47942500Y-47625000D03*
D16*
X39052500Y-45085000D03*
D17*
X42862500Y-47625000D03*
D16*
X45402500Y-42545000D03*
D18*
X37782500Y-47625000D03*
X131286250Y-85725000D03*
D16*
X128746250Y-80645000D03*
D18*
X121126250Y-85725000D03*
D17*
X126206250Y-85725000D03*
D16*
X122396250Y-83185000D03*
D17*
X23812500Y-23812500D03*
D16*
X26352500Y-18732500D03*
D18*
X18732500Y-23812500D03*
D16*
X20002500Y-21272500D03*
D18*
X28892500Y-23812500D03*
D16*
X150177500Y-18732500D03*
D18*
X142557500Y-23812500D03*
D17*
X147637500Y-23812500D03*
D16*
X143827500Y-21272500D03*
D18*
X152717500Y-23812500D03*
D16*
X20002500Y-83185000D03*
X26352500Y-80645000D03*
D18*
X18732500Y-85725000D03*
X28892500Y-85725000D03*
D17*
X23812500Y-85725000D03*
D16*
X167640000Y-87947500D03*
X173990000Y-85407500D03*
D17*
X171450000Y-90487500D03*
D18*
X176530000Y-90487500D03*
X166370000Y-90487500D03*
X147320000Y-90487500D03*
D16*
X154940000Y-85407500D03*
X148590000Y-87947500D03*
D17*
X152400000Y-90487500D03*
D18*
X157480000Y-90487500D03*
D16*
X115252500Y-45085000D03*
D17*
X119062500Y-47625000D03*
D16*
X121602500Y-42545000D03*
D18*
X124142500Y-47625000D03*
X113982500Y-47625000D03*
X190182500Y-66675000D03*
X200342500Y-66675000D03*
D17*
X195262500Y-66675000D03*
D16*
X197802500Y-61595000D03*
X191452500Y-64135000D03*
X131127500Y-18732500D03*
D17*
X128587500Y-23812500D03*
D16*
X124777500Y-21272500D03*
D18*
X123507500Y-23812500D03*
X133667500Y-23812500D03*
X143192500Y-66675000D03*
D17*
X138112500Y-66675000D03*
D18*
X133032500Y-66675000D03*
D17*
X150050500Y-74930000D03*
X126174500Y-74930000D03*
D16*
X134302500Y-64135000D03*
D23*
X150050500Y-59690000D03*
X126174500Y-59690000D03*
D16*
X140652500Y-61595000D03*
D17*
X45243750Y-85725000D03*
D18*
X40163750Y-85725000D03*
D16*
X41433750Y-83185000D03*
X47783750Y-80645000D03*
D18*
X50323750Y-85725000D03*
D24*
X175260000Y-51885750D03*
D25*
X172720000Y-51885750D03*
X170180000Y-51885750D03*
X167640000Y-51885750D03*
D18*
X176530000Y-71437500D03*
D17*
X171450000Y-71437500D03*
D18*
X166370000Y-71437500D03*
D16*
X167640000Y-68897500D03*
X173990000Y-66357500D03*
D17*
X28575000Y-66675000D03*
D16*
X31115000Y-61595000D03*
D18*
X23495000Y-66675000D03*
X33655000Y-66675000D03*
D16*
X24765000Y-64135000D03*
D19*
X33337500Y-36512500D03*
D14*
X179070000Y-18573750D03*
D15*
X179070000Y-21113750D03*
X179070000Y-23653750D03*
X179070000Y-26193750D03*
X179070000Y-28733750D03*
X179070000Y-31273750D03*
X179070000Y-33813750D03*
X179070000Y-36353750D03*
X179070000Y-38893750D03*
X179070000Y-41433750D03*
X179070000Y-43973750D03*
X179070000Y-46513750D03*
X163830000Y-46513750D03*
X163830000Y-43973750D03*
X163830000Y-41433750D03*
X163830000Y-38893750D03*
X163830000Y-36353750D03*
X163830000Y-33813750D03*
X163830000Y-31273750D03*
X163830000Y-28733750D03*
X163830000Y-26193750D03*
X163830000Y-23653750D03*
X163830000Y-21113750D03*
X163830000Y-18573750D03*
X176530000Y-46513750D03*
X173990000Y-46513750D03*
X171450000Y-46513750D03*
X168910000Y-46513750D03*
X166370000Y-46513750D03*
M02*
