%FSLAX45Y45*%
G04 Gerber Fmt 4.5, Leading zero omitted, Abs format (unit mm)*
G04 Created by KiCad (PCBNEW (6.0.1-0)) date 2022-06-20 08:18:44*
%MOMM*%
%LPD*%
G01*
G04 APERTURE LIST*
%TA.AperFunction,Profile*%
%ADD10C,0.200000*%
%TD*%
%ADD11C,0.200000*%
%ADD12C,0.040000*%
%ADD13C,0.100000*%
%ADD14C,0.109220*%
%ADD15C,0.150000*%
%ADD16C,0.220000*%
G04 APERTURE END LIST*
D10*
X20478750Y-1587500D02*
X20478750Y-9842500D01*
X20320000Y-1428750D02*
X1587500Y-1428750D01*
X1428750Y-9842500D02*
G75*
G03*
X1587500Y-10001250I158750J0D01*
G01*
X20320000Y-10001250D02*
G75*
G03*
X20478750Y-9842500I0J158750D01*
G01*
X1587500Y-10001250D02*
X20320000Y-10001250D01*
X1587500Y-1428750D02*
G75*
G03*
X1428750Y-1587500I0J-158750D01*
G01*
X20478750Y-1587500D02*
G75*
G03*
X20320000Y-1428750I-158750J0D01*
G01*
X1428750Y-1587500D02*
X1428750Y-9842500D01*
D11*
D12*
X1646875Y-2113600D02*
X1686875Y-2153600D01*
X1686875Y-2113600D02*
X1646875Y-2153600D01*
X1646875Y-4488500D02*
X1686875Y-4528500D01*
X1686875Y-4488500D02*
X1646875Y-4528500D01*
X1646875Y-8298500D02*
X1686875Y-8338500D01*
X1686875Y-8298500D02*
X1646875Y-8338500D01*
X2129475Y-6393500D02*
X2169475Y-6433500D01*
X2169475Y-6393500D02*
X2129475Y-6433500D01*
X3551875Y-4488500D02*
X3591875Y-4528500D01*
X3591875Y-4488500D02*
X3551875Y-4528500D01*
X3793175Y-8298500D02*
X3833175Y-8338500D01*
X3833175Y-8298500D02*
X3793175Y-8338500D01*
X4021775Y-2113600D02*
X4061775Y-2153600D01*
X4061775Y-2113600D02*
X4021775Y-2153600D01*
X4504375Y-6393500D02*
X4544375Y-6433500D01*
X4544375Y-6393500D02*
X4504375Y-6433500D01*
X5456875Y-4488500D02*
X5496875Y-4528500D01*
X5496875Y-4488500D02*
X5456875Y-4528500D01*
X5939475Y-2113600D02*
X5979475Y-2153600D01*
X5979475Y-2113600D02*
X5939475Y-2153600D01*
X6409375Y-6393500D02*
X6449375Y-6433500D01*
X6449375Y-6393500D02*
X6409375Y-6433500D01*
X7361875Y-4488500D02*
X7401875Y-4528500D01*
X7401875Y-4488500D02*
X7361875Y-4528500D01*
X7844475Y-2113600D02*
X7884475Y-2153600D01*
X7884475Y-2113600D02*
X7844475Y-2153600D01*
X7844475Y-8311200D02*
X7884475Y-8351200D01*
X7884475Y-8311200D02*
X7844475Y-8351200D01*
X8314375Y-6393500D02*
X8354375Y-6433500D01*
X8354375Y-6393500D02*
X8314375Y-6433500D01*
X9266875Y-4488500D02*
X9306875Y-4528500D01*
X9306875Y-4488500D02*
X9266875Y-4528500D01*
X9749475Y-2139000D02*
X9789475Y-2179000D01*
X9789475Y-2139000D02*
X9749475Y-2179000D01*
X10219375Y-2100900D02*
X10259375Y-2140900D01*
X10259375Y-2100900D02*
X10219375Y-2140900D01*
X10219375Y-6393500D02*
X10259375Y-6433500D01*
X10259375Y-6393500D02*
X10219375Y-6433500D01*
X11171875Y-4488500D02*
X11211875Y-4528500D01*
X11211875Y-4488500D02*
X11171875Y-4528500D01*
X11883075Y-8298500D02*
X11923075Y-8338500D01*
X11923075Y-8298500D02*
X11883075Y-8338500D01*
X12124375Y-2100900D02*
X12164375Y-2140900D01*
X12164375Y-2100900D02*
X12124375Y-2140900D01*
X13051475Y-4679000D02*
X13091475Y-4719000D01*
X13091475Y-4679000D02*
X13051475Y-4719000D01*
X13076875Y-6393500D02*
X13116875Y-6433500D01*
X13116875Y-6393500D02*
X13076875Y-6433500D01*
X13559475Y-4488500D02*
X13599475Y-4528500D01*
X13599475Y-4488500D02*
X13559475Y-4528500D01*
X14029375Y-2100900D02*
X14069375Y-2140900D01*
X14069375Y-2100900D02*
X14029375Y-2140900D01*
X14511975Y-8781100D02*
X14551975Y-8821100D01*
X14551975Y-8781100D02*
X14511975Y-8821100D01*
X15934375Y-2723200D02*
X15974375Y-2763200D01*
X15974375Y-2723200D02*
X15934375Y-2763200D01*
X16416975Y-6876100D02*
X16456975Y-6916100D01*
X16456975Y-6876100D02*
X16416975Y-6916100D01*
X16416975Y-8781100D02*
X16456975Y-8821100D01*
X16456975Y-8781100D02*
X16416975Y-8821100D01*
X16671550Y-3294700D02*
X16711550Y-3334700D01*
X16711550Y-3294700D02*
X16671550Y-3334700D01*
X16747175Y-3155000D02*
X16787175Y-3195000D01*
X16787175Y-3155000D02*
X16747175Y-3195000D01*
X16816450Y-3233048D02*
X16856450Y-3273048D01*
X16856450Y-3233048D02*
X16816450Y-3273048D01*
X17763175Y-2723200D02*
X17803175Y-2763200D01*
X17803175Y-2723200D02*
X17763175Y-2763200D01*
X18321975Y-8781100D02*
X18361975Y-8821100D01*
X18361975Y-8781100D02*
X18321975Y-8821100D01*
X18553750Y-5289375D02*
X18593750Y-5329375D01*
X18593750Y-5289375D02*
X18553750Y-5329375D01*
X18553750Y-7194375D02*
X18593750Y-7234375D01*
X18593750Y-7194375D02*
X18553750Y-7234375D01*
X18617500Y-3005000D02*
X18657500Y-3045000D01*
X18657500Y-3005000D02*
X18617500Y-3045000D01*
X18791875Y-4488500D02*
X18831875Y-4528500D01*
X18831875Y-4488500D02*
X18791875Y-4528500D01*
X18791875Y-6393500D02*
X18831875Y-6433500D01*
X18831875Y-6393500D02*
X18791875Y-6433500D01*
X19982500Y-9575625D02*
X20022500Y-9615625D01*
X20022500Y-9575625D02*
X19982500Y-9615625D01*
D13*
X16814000Y-5188575D02*
G75*
G03*
X16814000Y-5188575I-50000J0D01*
G01*
X17068000Y-5188575D02*
G75*
G03*
X17068000Y-5188575I-50000J0D01*
G01*
X17322000Y-5188575D02*
G75*
G03*
X17322000Y-5188575I-50000J0D01*
G01*
X17576000Y-5188575D02*
G75*
G03*
X17576000Y-5188575I-50000J0D01*
G01*
X18826875Y-2131250D02*
G75*
G03*
X18826875Y-2131250I-50000J0D01*
G01*
X18826875Y-2381250D02*
G75*
G03*
X18826875Y-2381250I-50000J0D01*
G01*
X18826875Y-2631250D02*
G75*
G03*
X18826875Y-2631250I-50000J0D01*
G01*
X20276875Y-2131250D02*
G75*
G03*
X20276875Y-2131250I-50000J0D01*
G01*
X20276875Y-2631250D02*
G75*
G03*
X20276875Y-2631250I-50000J0D01*
G01*
D14*
X16383000Y-1802765D02*
X16383000Y-1911985D01*
X16328390Y-1857375D02*
X16437610Y-1857375D01*
X16383000Y-2056765D02*
X16383000Y-2165985D01*
X16328390Y-2111375D02*
X16437610Y-2111375D01*
X16383000Y-2310765D02*
X16383000Y-2419985D01*
X16328390Y-2365375D02*
X16437610Y-2365375D01*
X16383000Y-2564765D02*
X16383000Y-2673985D01*
X16328390Y-2619375D02*
X16437610Y-2619375D01*
X16383000Y-2818765D02*
X16383000Y-2927985D01*
X16328390Y-2873375D02*
X16437610Y-2873375D01*
X16383000Y-3072765D02*
X16383000Y-3181985D01*
X16328390Y-3127375D02*
X16437610Y-3127375D01*
X16383000Y-3326765D02*
X16383000Y-3435985D01*
X16328390Y-3381375D02*
X16437610Y-3381375D01*
X16383000Y-3580765D02*
X16383000Y-3689985D01*
X16328390Y-3635375D02*
X16437610Y-3635375D01*
X16383000Y-3834765D02*
X16383000Y-3943985D01*
X16328390Y-3889375D02*
X16437610Y-3889375D01*
X16383000Y-4088765D02*
X16383000Y-4197985D01*
X16328390Y-4143375D02*
X16437610Y-4143375D01*
X16383000Y-4342765D02*
X16383000Y-4451985D01*
X16328390Y-4397375D02*
X16437610Y-4397375D01*
X16383000Y-4596765D02*
X16383000Y-4705985D01*
X16328390Y-4651375D02*
X16437610Y-4651375D01*
X16637000Y-4596765D02*
X16637000Y-4705985D01*
X16582390Y-4651375D02*
X16691610Y-4651375D01*
X16891000Y-4596765D02*
X16891000Y-4705985D01*
X16836390Y-4651375D02*
X16945610Y-4651375D01*
X17145000Y-4596765D02*
X17145000Y-4705985D01*
X17090390Y-4651375D02*
X17199610Y-4651375D01*
X17399000Y-4596765D02*
X17399000Y-4705985D01*
X17344390Y-4651375D02*
X17453610Y-4651375D01*
X17653000Y-4596765D02*
X17653000Y-4705985D01*
X17598390Y-4651375D02*
X17707610Y-4651375D01*
X17907000Y-1802765D02*
X17907000Y-1911985D01*
X17852390Y-1857375D02*
X17961610Y-1857375D01*
X17907000Y-2056765D02*
X17907000Y-2165985D01*
X17852390Y-2111375D02*
X17961610Y-2111375D01*
X17907000Y-2310765D02*
X17907000Y-2419985D01*
X17852390Y-2365375D02*
X17961610Y-2365375D01*
X17907000Y-2564765D02*
X17907000Y-2673985D01*
X17852390Y-2619375D02*
X17961610Y-2619375D01*
X17907000Y-2818765D02*
X17907000Y-2927985D01*
X17852390Y-2873375D02*
X17961610Y-2873375D01*
X17907000Y-3072765D02*
X17907000Y-3181985D01*
X17852390Y-3127375D02*
X17961610Y-3127375D01*
X17907000Y-3326765D02*
X17907000Y-3435985D01*
X17852390Y-3381375D02*
X17961610Y-3381375D01*
X17907000Y-3580765D02*
X17907000Y-3689985D01*
X17852390Y-3635375D02*
X17961610Y-3635375D01*
X17907000Y-3834765D02*
X17907000Y-3943985D01*
X17852390Y-3889375D02*
X17961610Y-3889375D01*
X17907000Y-4088765D02*
X17907000Y-4197985D01*
X17852390Y-4143375D02*
X17961610Y-4143375D01*
X17907000Y-4342765D02*
X17907000Y-4451985D01*
X17852390Y-4397375D02*
X17961610Y-4397375D01*
X17907000Y-4596765D02*
X17907000Y-4705985D01*
X17852390Y-4651375D02*
X17961610Y-4651375D01*
D15*
X19579909Y-1874283D02*
X19579909Y-1768216D01*
X19473842Y-1768216D01*
X19473842Y-1874283D01*
X19579909Y-1874283D01*
D11*
X19461875Y-1886250D02*
X19591875Y-1886250D01*
X19461875Y-1756250D02*
X19591875Y-1756250D01*
X19591875Y-1886250D02*
G75*
G03*
X19591875Y-1756250I0J65000D01*
G01*
X19461875Y-1756250D02*
G75*
G03*
X19461875Y-1886250I0J-65000D01*
G01*
D15*
X19579909Y-2994283D02*
X19579909Y-2888216D01*
X19473842Y-2888216D01*
X19473842Y-2994283D01*
X19579909Y-2994283D01*
D11*
X19461875Y-3006250D02*
X19591875Y-3006250D01*
X19461875Y-2876250D02*
X19591875Y-2876250D01*
X19591875Y-3006250D02*
G75*
G03*
X19591875Y-2876250I0J65000D01*
G01*
X19461875Y-2876250D02*
G75*
G03*
X19461875Y-3006250I0J-65000D01*
G01*
D16*
X3333750Y-3761250D02*
X3443750Y-3651250D01*
X3333750Y-3541250D01*
X3223750Y-3651250D01*
X3333750Y-3761250D01*
X3333750Y-7730000D02*
X3443750Y-7620000D01*
X3333750Y-7510000D01*
X3223750Y-7620000D01*
X3333750Y-7730000D01*
X18573750Y-3761250D02*
X18683750Y-3651250D01*
X18573750Y-3541250D01*
X18463750Y-3651250D01*
X18573750Y-3761250D01*
X18573750Y-7730000D02*
X18683750Y-7620000D01*
X18573750Y-7510000D01*
X18463750Y-7620000D01*
X18573750Y-7730000D01*
D11*
X1676369Y-10321726D02*
X1676369Y-10121726D01*
X1723988Y-10121726D01*
X1752559Y-10131250D01*
X1771607Y-10150298D01*
X1781131Y-10169345D01*
X1790655Y-10207440D01*
X1790655Y-10236012D01*
X1781131Y-10274107D01*
X1771607Y-10293155D01*
X1752559Y-10312202D01*
X1723988Y-10321726D01*
X1676369Y-10321726D01*
X1876369Y-10321726D02*
X1876369Y-10188393D01*
X1876369Y-10226488D02*
X1885893Y-10207440D01*
X1895417Y-10197917D01*
X1914464Y-10188393D01*
X1933512Y-10188393D01*
X2000178Y-10321726D02*
X2000178Y-10188393D01*
X2000178Y-10121726D02*
X1990655Y-10131250D01*
X2000178Y-10140774D01*
X2009702Y-10131250D01*
X2000178Y-10121726D01*
X2000178Y-10140774D01*
X2123988Y-10321726D02*
X2104940Y-10312202D01*
X2095417Y-10293155D01*
X2095417Y-10121726D01*
X2228750Y-10321726D02*
X2209702Y-10312202D01*
X2200179Y-10293155D01*
X2200179Y-10121726D01*
X2457321Y-10321726D02*
X2457321Y-10121726D01*
X2523988Y-10264583D01*
X2590655Y-10121726D01*
X2590655Y-10321726D01*
X2771607Y-10321726D02*
X2771607Y-10216964D01*
X2762083Y-10197917D01*
X2743036Y-10188393D01*
X2704940Y-10188393D01*
X2685893Y-10197917D01*
X2771607Y-10312202D02*
X2752560Y-10321726D01*
X2704940Y-10321726D01*
X2685893Y-10312202D01*
X2676369Y-10293155D01*
X2676369Y-10274107D01*
X2685893Y-10255060D01*
X2704940Y-10245536D01*
X2752560Y-10245536D01*
X2771607Y-10236012D01*
X2866845Y-10188393D02*
X2866845Y-10388393D01*
X2866845Y-10197917D02*
X2885893Y-10188393D01*
X2923988Y-10188393D01*
X2943036Y-10197917D01*
X2952559Y-10207440D01*
X2962083Y-10226488D01*
X2962083Y-10283631D01*
X2952559Y-10302679D01*
X2943036Y-10312202D01*
X2923988Y-10321726D01*
X2885893Y-10321726D01*
X2866845Y-10312202D01*
X3047798Y-10302679D02*
X3057321Y-10312202D01*
X3047798Y-10321726D01*
X3038274Y-10312202D01*
X3047798Y-10302679D01*
X3047798Y-10321726D01*
X3047798Y-10197917D02*
X3057321Y-10207440D01*
X3047798Y-10216964D01*
X3038274Y-10207440D01*
X3047798Y-10197917D01*
X3047798Y-10216964D01*
D12*
X1378750Y-10631250D02*
X1418750Y-10671250D01*
X1418750Y-10631250D02*
X1378750Y-10671250D01*
D11*
X1714464Y-10541726D02*
X1733512Y-10541726D01*
X1752559Y-10551250D01*
X1762083Y-10560774D01*
X1771607Y-10579821D01*
X1781131Y-10617917D01*
X1781131Y-10665536D01*
X1771607Y-10703631D01*
X1762083Y-10722679D01*
X1752559Y-10732202D01*
X1733512Y-10741726D01*
X1714464Y-10741726D01*
X1695417Y-10732202D01*
X1685893Y-10722679D01*
X1676369Y-10703631D01*
X1666845Y-10665536D01*
X1666845Y-10617917D01*
X1676369Y-10579821D01*
X1685893Y-10560774D01*
X1695417Y-10551250D01*
X1714464Y-10541726D01*
X1866845Y-10722679D02*
X1876369Y-10732202D01*
X1866845Y-10741726D01*
X1857321Y-10732202D01*
X1866845Y-10722679D01*
X1866845Y-10741726D01*
X2047798Y-10608393D02*
X2047798Y-10741726D01*
X2000178Y-10532202D02*
X1952559Y-10675060D01*
X2076369Y-10675060D01*
X2190655Y-10541726D02*
X2209702Y-10541726D01*
X2228750Y-10551250D01*
X2238274Y-10560774D01*
X2247798Y-10579821D01*
X2257321Y-10617917D01*
X2257321Y-10665536D01*
X2247798Y-10703631D01*
X2238274Y-10722679D01*
X2228750Y-10732202D01*
X2209702Y-10741726D01*
X2190655Y-10741726D01*
X2171607Y-10732202D01*
X2162083Y-10722679D01*
X2152560Y-10703631D01*
X2143036Y-10665536D01*
X2143036Y-10617917D01*
X2152560Y-10579821D01*
X2162083Y-10560774D01*
X2171607Y-10551250D01*
X2190655Y-10541726D01*
X2381131Y-10541726D02*
X2400179Y-10541726D01*
X2419226Y-10551250D01*
X2428750Y-10560774D01*
X2438274Y-10579821D01*
X2447798Y-10617917D01*
X2447798Y-10665536D01*
X2438274Y-10703631D01*
X2428750Y-10722679D01*
X2419226Y-10732202D01*
X2400179Y-10741726D01*
X2381131Y-10741726D01*
X2362083Y-10732202D01*
X2352560Y-10722679D01*
X2343036Y-10703631D01*
X2333512Y-10665536D01*
X2333512Y-10617917D01*
X2343036Y-10579821D01*
X2352560Y-10560774D01*
X2362083Y-10551250D01*
X2381131Y-10541726D01*
X2533512Y-10741726D02*
X2533512Y-10608393D01*
X2533512Y-10627440D02*
X2543036Y-10617917D01*
X2562083Y-10608393D01*
X2590655Y-10608393D01*
X2609702Y-10617917D01*
X2619226Y-10636964D01*
X2619226Y-10741726D01*
X2619226Y-10636964D02*
X2628750Y-10617917D01*
X2647798Y-10608393D01*
X2676369Y-10608393D01*
X2695417Y-10617917D01*
X2704940Y-10636964D01*
X2704940Y-10741726D01*
X2800178Y-10741726D02*
X2800178Y-10608393D01*
X2800178Y-10627440D02*
X2809702Y-10617917D01*
X2828750Y-10608393D01*
X2857321Y-10608393D01*
X2876369Y-10617917D01*
X2885893Y-10636964D01*
X2885893Y-10741726D01*
X2885893Y-10636964D02*
X2895417Y-10617917D01*
X2914464Y-10608393D01*
X2943036Y-10608393D01*
X2962083Y-10617917D01*
X2971607Y-10636964D01*
X2971607Y-10741726D01*
X3362083Y-10532202D02*
X3190655Y-10789345D01*
X3619226Y-10541726D02*
X3638274Y-10541726D01*
X3657321Y-10551250D01*
X3666845Y-10560774D01*
X3676369Y-10579821D01*
X3685893Y-10617917D01*
X3685893Y-10665536D01*
X3676369Y-10703631D01*
X3666845Y-10722679D01*
X3657321Y-10732202D01*
X3638274Y-10741726D01*
X3619226Y-10741726D01*
X3600178Y-10732202D01*
X3590655Y-10722679D01*
X3581131Y-10703631D01*
X3571607Y-10665536D01*
X3571607Y-10617917D01*
X3581131Y-10579821D01*
X3590655Y-10560774D01*
X3600178Y-10551250D01*
X3619226Y-10541726D01*
X3771607Y-10722679D02*
X3781131Y-10732202D01*
X3771607Y-10741726D01*
X3762083Y-10732202D01*
X3771607Y-10722679D01*
X3771607Y-10741726D01*
X3904940Y-10541726D02*
X3923988Y-10541726D01*
X3943036Y-10551250D01*
X3952559Y-10560774D01*
X3962083Y-10579821D01*
X3971607Y-10617917D01*
X3971607Y-10665536D01*
X3962083Y-10703631D01*
X3952559Y-10722679D01*
X3943036Y-10732202D01*
X3923988Y-10741726D01*
X3904940Y-10741726D01*
X3885893Y-10732202D01*
X3876369Y-10722679D01*
X3866845Y-10703631D01*
X3857321Y-10665536D01*
X3857321Y-10617917D01*
X3866845Y-10579821D01*
X3876369Y-10560774D01*
X3885893Y-10551250D01*
X3904940Y-10541726D01*
X4162083Y-10741726D02*
X4047798Y-10741726D01*
X4104940Y-10741726D02*
X4104940Y-10541726D01*
X4085893Y-10570298D01*
X4066845Y-10589345D01*
X4047798Y-10598869D01*
X4343036Y-10541726D02*
X4247798Y-10541726D01*
X4238274Y-10636964D01*
X4247798Y-10627440D01*
X4266845Y-10617917D01*
X4314464Y-10617917D01*
X4333512Y-10627440D01*
X4343036Y-10636964D01*
X4352560Y-10656012D01*
X4352560Y-10703631D01*
X4343036Y-10722679D01*
X4333512Y-10732202D01*
X4314464Y-10741726D01*
X4266845Y-10741726D01*
X4247798Y-10732202D01*
X4238274Y-10722679D01*
X4419226Y-10541726D02*
X4552560Y-10541726D01*
X4466845Y-10741726D01*
X4619226Y-10541726D02*
X4619226Y-10579821D01*
X4695417Y-10541726D02*
X4695417Y-10579821D01*
X4990655Y-10817917D02*
X4981131Y-10808393D01*
X4962083Y-10779821D01*
X4952560Y-10760774D01*
X4943036Y-10732202D01*
X4933512Y-10684583D01*
X4933512Y-10646488D01*
X4943036Y-10598869D01*
X4952560Y-10570298D01*
X4962083Y-10551250D01*
X4981131Y-10522679D01*
X4990655Y-10513155D01*
X5152560Y-10608393D02*
X5152560Y-10741726D01*
X5104940Y-10532202D02*
X5057321Y-10675060D01*
X5181131Y-10675060D01*
X5362083Y-10741726D02*
X5247798Y-10741726D01*
X5304940Y-10741726D02*
X5304940Y-10541726D01*
X5285893Y-10570298D01*
X5266845Y-10589345D01*
X5247798Y-10598869D01*
X5600178Y-10741726D02*
X5600178Y-10541726D01*
X5685893Y-10741726D02*
X5685893Y-10636964D01*
X5676369Y-10617917D01*
X5657321Y-10608393D01*
X5628750Y-10608393D01*
X5609702Y-10617917D01*
X5600178Y-10627440D01*
X5809702Y-10741726D02*
X5790655Y-10732202D01*
X5781131Y-10722679D01*
X5771607Y-10703631D01*
X5771607Y-10646488D01*
X5781131Y-10627440D01*
X5790655Y-10617917D01*
X5809702Y-10608393D01*
X5838274Y-10608393D01*
X5857321Y-10617917D01*
X5866845Y-10627440D01*
X5876369Y-10646488D01*
X5876369Y-10703631D01*
X5866845Y-10722679D01*
X5857321Y-10732202D01*
X5838274Y-10741726D01*
X5809702Y-10741726D01*
X5990655Y-10741726D02*
X5971607Y-10732202D01*
X5962083Y-10713155D01*
X5962083Y-10541726D01*
X6143036Y-10732202D02*
X6123988Y-10741726D01*
X6085893Y-10741726D01*
X6066845Y-10732202D01*
X6057321Y-10713155D01*
X6057321Y-10636964D01*
X6066845Y-10617917D01*
X6085893Y-10608393D01*
X6123988Y-10608393D01*
X6143036Y-10617917D01*
X6152559Y-10636964D01*
X6152559Y-10656012D01*
X6057321Y-10675060D01*
X6228750Y-10732202D02*
X6247798Y-10741726D01*
X6285893Y-10741726D01*
X6304940Y-10732202D01*
X6314464Y-10713155D01*
X6314464Y-10703631D01*
X6304940Y-10684583D01*
X6285893Y-10675060D01*
X6257321Y-10675060D01*
X6238274Y-10665536D01*
X6228750Y-10646488D01*
X6228750Y-10636964D01*
X6238274Y-10617917D01*
X6257321Y-10608393D01*
X6285893Y-10608393D01*
X6304940Y-10617917D01*
X6381131Y-10817917D02*
X6390655Y-10808393D01*
X6409702Y-10779821D01*
X6419226Y-10760774D01*
X6428750Y-10732202D01*
X6438274Y-10684583D01*
X6438274Y-10646488D01*
X6428750Y-10598869D01*
X6419226Y-10570298D01*
X6409702Y-10551250D01*
X6390655Y-10522679D01*
X6381131Y-10513155D01*
D13*
X1418750Y-10915250D02*
G75*
G03*
X1418750Y-10915250I-50000J0D01*
G01*
D11*
X1781131Y-11005726D02*
X1666845Y-11005726D01*
X1723988Y-11005726D02*
X1723988Y-10805726D01*
X1704940Y-10834298D01*
X1685893Y-10853345D01*
X1666845Y-10862869D01*
X1866845Y-10986679D02*
X1876369Y-10996202D01*
X1866845Y-11005726D01*
X1857321Y-10996202D01*
X1866845Y-10986679D01*
X1866845Y-11005726D01*
X2000178Y-10805726D02*
X2019226Y-10805726D01*
X2038274Y-10815250D01*
X2047798Y-10824774D01*
X2057321Y-10843821D01*
X2066845Y-10881917D01*
X2066845Y-10929536D01*
X2057321Y-10967631D01*
X2047798Y-10986679D01*
X2038274Y-10996202D01*
X2019226Y-11005726D01*
X2000178Y-11005726D01*
X1981131Y-10996202D01*
X1971607Y-10986679D01*
X1962083Y-10967631D01*
X1952559Y-10929536D01*
X1952559Y-10881917D01*
X1962083Y-10843821D01*
X1971607Y-10824774D01*
X1981131Y-10815250D01*
X2000178Y-10805726D01*
X2190655Y-10805726D02*
X2209702Y-10805726D01*
X2228750Y-10815250D01*
X2238274Y-10824774D01*
X2247798Y-10843821D01*
X2257321Y-10881917D01*
X2257321Y-10929536D01*
X2247798Y-10967631D01*
X2238274Y-10986679D01*
X2228750Y-10996202D01*
X2209702Y-11005726D01*
X2190655Y-11005726D01*
X2171607Y-10996202D01*
X2162083Y-10986679D01*
X2152560Y-10967631D01*
X2143036Y-10929536D01*
X2143036Y-10881917D01*
X2152560Y-10843821D01*
X2162083Y-10824774D01*
X2171607Y-10815250D01*
X2190655Y-10805726D01*
X2381131Y-10805726D02*
X2400179Y-10805726D01*
X2419226Y-10815250D01*
X2428750Y-10824774D01*
X2438274Y-10843821D01*
X2447798Y-10881917D01*
X2447798Y-10929536D01*
X2438274Y-10967631D01*
X2428750Y-10986679D01*
X2419226Y-10996202D01*
X2400179Y-11005726D01*
X2381131Y-11005726D01*
X2362083Y-10996202D01*
X2352560Y-10986679D01*
X2343036Y-10967631D01*
X2333512Y-10929536D01*
X2333512Y-10881917D01*
X2343036Y-10843821D01*
X2352560Y-10824774D01*
X2362083Y-10815250D01*
X2381131Y-10805726D01*
X2533512Y-11005726D02*
X2533512Y-10872393D01*
X2533512Y-10891440D02*
X2543036Y-10881917D01*
X2562083Y-10872393D01*
X2590655Y-10872393D01*
X2609702Y-10881917D01*
X2619226Y-10900964D01*
X2619226Y-11005726D01*
X2619226Y-10900964D02*
X2628750Y-10881917D01*
X2647798Y-10872393D01*
X2676369Y-10872393D01*
X2695417Y-10881917D01*
X2704940Y-10900964D01*
X2704940Y-11005726D01*
X2800178Y-11005726D02*
X2800178Y-10872393D01*
X2800178Y-10891440D02*
X2809702Y-10881917D01*
X2828750Y-10872393D01*
X2857321Y-10872393D01*
X2876369Y-10881917D01*
X2885893Y-10900964D01*
X2885893Y-11005726D01*
X2885893Y-10900964D02*
X2895417Y-10881917D01*
X2914464Y-10872393D01*
X2943036Y-10872393D01*
X2962083Y-10881917D01*
X2971607Y-10900964D01*
X2971607Y-11005726D01*
X3362083Y-10796202D02*
X3190655Y-11053345D01*
X3619226Y-10805726D02*
X3638274Y-10805726D01*
X3657321Y-10815250D01*
X3666845Y-10824774D01*
X3676369Y-10843821D01*
X3685893Y-10881917D01*
X3685893Y-10929536D01*
X3676369Y-10967631D01*
X3666845Y-10986679D01*
X3657321Y-10996202D01*
X3638274Y-11005726D01*
X3619226Y-11005726D01*
X3600178Y-10996202D01*
X3590655Y-10986679D01*
X3581131Y-10967631D01*
X3571607Y-10929536D01*
X3571607Y-10881917D01*
X3581131Y-10843821D01*
X3590655Y-10824774D01*
X3600178Y-10815250D01*
X3619226Y-10805726D01*
X3771607Y-10986679D02*
X3781131Y-10996202D01*
X3771607Y-11005726D01*
X3762083Y-10996202D01*
X3771607Y-10986679D01*
X3771607Y-11005726D01*
X3904940Y-10805726D02*
X3923988Y-10805726D01*
X3943036Y-10815250D01*
X3952559Y-10824774D01*
X3962083Y-10843821D01*
X3971607Y-10881917D01*
X3971607Y-10929536D01*
X3962083Y-10967631D01*
X3952559Y-10986679D01*
X3943036Y-10996202D01*
X3923988Y-11005726D01*
X3904940Y-11005726D01*
X3885893Y-10996202D01*
X3876369Y-10986679D01*
X3866845Y-10967631D01*
X3857321Y-10929536D01*
X3857321Y-10881917D01*
X3866845Y-10843821D01*
X3876369Y-10824774D01*
X3885893Y-10815250D01*
X3904940Y-10805726D01*
X4038274Y-10805726D02*
X4162083Y-10805726D01*
X4095417Y-10881917D01*
X4123988Y-10881917D01*
X4143036Y-10891440D01*
X4152559Y-10900964D01*
X4162083Y-10920012D01*
X4162083Y-10967631D01*
X4152559Y-10986679D01*
X4143036Y-10996202D01*
X4123988Y-11005726D01*
X4066845Y-11005726D01*
X4047798Y-10996202D01*
X4038274Y-10986679D01*
X4257321Y-11005726D02*
X4295417Y-11005726D01*
X4314464Y-10996202D01*
X4323988Y-10986679D01*
X4343036Y-10958107D01*
X4352560Y-10920012D01*
X4352560Y-10843821D01*
X4343036Y-10824774D01*
X4333512Y-10815250D01*
X4314464Y-10805726D01*
X4276369Y-10805726D01*
X4257321Y-10815250D01*
X4247798Y-10824774D01*
X4238274Y-10843821D01*
X4238274Y-10891440D01*
X4247798Y-10910488D01*
X4257321Y-10920012D01*
X4276369Y-10929536D01*
X4314464Y-10929536D01*
X4333512Y-10920012D01*
X4343036Y-10910488D01*
X4352560Y-10891440D01*
X4523988Y-10872393D02*
X4523988Y-11005726D01*
X4476369Y-10796202D02*
X4428750Y-10939060D01*
X4552560Y-10939060D01*
X4619226Y-10805726D02*
X4619226Y-10843821D01*
X4695417Y-10805726D02*
X4695417Y-10843821D01*
X4990655Y-11081917D02*
X4981131Y-11072393D01*
X4962083Y-11043821D01*
X4952560Y-11024774D01*
X4943036Y-10996202D01*
X4933512Y-10948583D01*
X4933512Y-10910488D01*
X4943036Y-10862869D01*
X4952560Y-10834298D01*
X4962083Y-10815250D01*
X4981131Y-10786679D01*
X4990655Y-10777155D01*
X5076369Y-11005726D02*
X5114464Y-11005726D01*
X5133512Y-10996202D01*
X5143036Y-10986679D01*
X5162083Y-10958107D01*
X5171607Y-10920012D01*
X5171607Y-10843821D01*
X5162083Y-10824774D01*
X5152560Y-10815250D01*
X5133512Y-10805726D01*
X5095417Y-10805726D01*
X5076369Y-10815250D01*
X5066845Y-10824774D01*
X5057321Y-10843821D01*
X5057321Y-10891440D01*
X5066845Y-10910488D01*
X5076369Y-10920012D01*
X5095417Y-10929536D01*
X5133512Y-10929536D01*
X5152560Y-10920012D01*
X5162083Y-10910488D01*
X5171607Y-10891440D01*
X5409702Y-11005726D02*
X5409702Y-10805726D01*
X5495417Y-11005726D02*
X5495417Y-10900964D01*
X5485893Y-10881917D01*
X5466845Y-10872393D01*
X5438274Y-10872393D01*
X5419226Y-10881917D01*
X5409702Y-10891440D01*
X5619226Y-11005726D02*
X5600178Y-10996202D01*
X5590655Y-10986679D01*
X5581131Y-10967631D01*
X5581131Y-10910488D01*
X5590655Y-10891440D01*
X5600178Y-10881917D01*
X5619226Y-10872393D01*
X5647798Y-10872393D01*
X5666845Y-10881917D01*
X5676369Y-10891440D01*
X5685893Y-10910488D01*
X5685893Y-10967631D01*
X5676369Y-10986679D01*
X5666845Y-10996202D01*
X5647798Y-11005726D01*
X5619226Y-11005726D01*
X5800178Y-11005726D02*
X5781131Y-10996202D01*
X5771607Y-10977155D01*
X5771607Y-10805726D01*
X5952559Y-10996202D02*
X5933512Y-11005726D01*
X5895417Y-11005726D01*
X5876369Y-10996202D01*
X5866845Y-10977155D01*
X5866845Y-10900964D01*
X5876369Y-10881917D01*
X5895417Y-10872393D01*
X5933512Y-10872393D01*
X5952559Y-10881917D01*
X5962083Y-10900964D01*
X5962083Y-10920012D01*
X5866845Y-10939060D01*
X6038274Y-10996202D02*
X6057321Y-11005726D01*
X6095417Y-11005726D01*
X6114464Y-10996202D01*
X6123988Y-10977155D01*
X6123988Y-10967631D01*
X6114464Y-10948583D01*
X6095417Y-10939060D01*
X6066845Y-10939060D01*
X6047798Y-10929536D01*
X6038274Y-10910488D01*
X6038274Y-10900964D01*
X6047798Y-10881917D01*
X6066845Y-10872393D01*
X6095417Y-10872393D01*
X6114464Y-10881917D01*
X6190655Y-11081917D02*
X6200178Y-11072393D01*
X6219226Y-11043821D01*
X6228750Y-11024774D01*
X6238274Y-10996202D01*
X6247798Y-10948583D01*
X6247798Y-10910488D01*
X6238274Y-10862869D01*
X6228750Y-10834298D01*
X6219226Y-10815250D01*
X6200178Y-10786679D01*
X6190655Y-10777155D01*
D14*
X1364140Y-11124640D02*
X1364140Y-11233860D01*
X1309530Y-11179250D02*
X1418750Y-11179250D01*
D11*
X1781131Y-11269726D02*
X1666845Y-11269726D01*
X1723988Y-11269726D02*
X1723988Y-11069726D01*
X1704940Y-11098298D01*
X1685893Y-11117345D01*
X1666845Y-11126869D01*
X1866845Y-11250678D02*
X1876369Y-11260202D01*
X1866845Y-11269726D01*
X1857321Y-11260202D01*
X1866845Y-11250678D01*
X1866845Y-11269726D01*
X2000178Y-11069726D02*
X2019226Y-11069726D01*
X2038274Y-11079250D01*
X2047798Y-11088774D01*
X2057321Y-11107821D01*
X2066845Y-11145917D01*
X2066845Y-11193536D01*
X2057321Y-11231631D01*
X2047798Y-11250678D01*
X2038274Y-11260202D01*
X2019226Y-11269726D01*
X2000178Y-11269726D01*
X1981131Y-11260202D01*
X1971607Y-11250678D01*
X1962083Y-11231631D01*
X1952559Y-11193536D01*
X1952559Y-11145917D01*
X1962083Y-11107821D01*
X1971607Y-11088774D01*
X1981131Y-11079250D01*
X2000178Y-11069726D01*
X2162083Y-11269726D02*
X2200179Y-11269726D01*
X2219226Y-11260202D01*
X2228750Y-11250678D01*
X2247798Y-11222107D01*
X2257321Y-11184012D01*
X2257321Y-11107821D01*
X2247798Y-11088774D01*
X2238274Y-11079250D01*
X2219226Y-11069726D01*
X2181131Y-11069726D01*
X2162083Y-11079250D01*
X2152560Y-11088774D01*
X2143036Y-11107821D01*
X2143036Y-11155440D01*
X2152560Y-11174488D01*
X2162083Y-11184012D01*
X2181131Y-11193536D01*
X2219226Y-11193536D01*
X2238274Y-11184012D01*
X2247798Y-11174488D01*
X2257321Y-11155440D01*
X2333512Y-11088774D02*
X2343036Y-11079250D01*
X2362083Y-11069726D01*
X2409702Y-11069726D01*
X2428750Y-11079250D01*
X2438274Y-11088774D01*
X2447798Y-11107821D01*
X2447798Y-11126869D01*
X2438274Y-11155440D01*
X2323988Y-11269726D01*
X2447798Y-11269726D01*
X2533512Y-11269726D02*
X2533512Y-11136393D01*
X2533512Y-11155440D02*
X2543036Y-11145917D01*
X2562083Y-11136393D01*
X2590655Y-11136393D01*
X2609702Y-11145917D01*
X2619226Y-11164964D01*
X2619226Y-11269726D01*
X2619226Y-11164964D02*
X2628750Y-11145917D01*
X2647798Y-11136393D01*
X2676369Y-11136393D01*
X2695417Y-11145917D01*
X2704940Y-11164964D01*
X2704940Y-11269726D01*
X2800178Y-11269726D02*
X2800178Y-11136393D01*
X2800178Y-11155440D02*
X2809702Y-11145917D01*
X2828750Y-11136393D01*
X2857321Y-11136393D01*
X2876369Y-11145917D01*
X2885893Y-11164964D01*
X2885893Y-11269726D01*
X2885893Y-11164964D02*
X2895417Y-11145917D01*
X2914464Y-11136393D01*
X2943036Y-11136393D01*
X2962083Y-11145917D01*
X2971607Y-11164964D01*
X2971607Y-11269726D01*
X3362083Y-11060202D02*
X3190655Y-11317345D01*
X3619226Y-11069726D02*
X3638274Y-11069726D01*
X3657321Y-11079250D01*
X3666845Y-11088774D01*
X3676369Y-11107821D01*
X3685893Y-11145917D01*
X3685893Y-11193536D01*
X3676369Y-11231631D01*
X3666845Y-11250678D01*
X3657321Y-11260202D01*
X3638274Y-11269726D01*
X3619226Y-11269726D01*
X3600178Y-11260202D01*
X3590655Y-11250678D01*
X3581131Y-11231631D01*
X3571607Y-11193536D01*
X3571607Y-11145917D01*
X3581131Y-11107821D01*
X3590655Y-11088774D01*
X3600178Y-11079250D01*
X3619226Y-11069726D01*
X3771607Y-11250678D02*
X3781131Y-11260202D01*
X3771607Y-11269726D01*
X3762083Y-11260202D01*
X3771607Y-11250678D01*
X3771607Y-11269726D01*
X3904940Y-11069726D02*
X3923988Y-11069726D01*
X3943036Y-11079250D01*
X3952559Y-11088774D01*
X3962083Y-11107821D01*
X3971607Y-11145917D01*
X3971607Y-11193536D01*
X3962083Y-11231631D01*
X3952559Y-11250678D01*
X3943036Y-11260202D01*
X3923988Y-11269726D01*
X3904940Y-11269726D01*
X3885893Y-11260202D01*
X3876369Y-11250678D01*
X3866845Y-11231631D01*
X3857321Y-11193536D01*
X3857321Y-11145917D01*
X3866845Y-11107821D01*
X3876369Y-11088774D01*
X3885893Y-11079250D01*
X3904940Y-11069726D01*
X4143036Y-11136393D02*
X4143036Y-11269726D01*
X4095417Y-11060202D02*
X4047798Y-11203059D01*
X4171607Y-11203059D01*
X4228750Y-11069726D02*
X4352560Y-11069726D01*
X4285893Y-11145917D01*
X4314464Y-11145917D01*
X4333512Y-11155440D01*
X4343036Y-11164964D01*
X4352560Y-11184012D01*
X4352560Y-11231631D01*
X4343036Y-11250678D01*
X4333512Y-11260202D01*
X4314464Y-11269726D01*
X4257321Y-11269726D01*
X4238274Y-11260202D01*
X4228750Y-11250678D01*
X4476369Y-11069726D02*
X4495417Y-11069726D01*
X4514464Y-11079250D01*
X4523988Y-11088774D01*
X4533512Y-11107821D01*
X4543036Y-11145917D01*
X4543036Y-11193536D01*
X4533512Y-11231631D01*
X4523988Y-11250678D01*
X4514464Y-11260202D01*
X4495417Y-11269726D01*
X4476369Y-11269726D01*
X4457321Y-11260202D01*
X4447798Y-11250678D01*
X4438274Y-11231631D01*
X4428750Y-11193536D01*
X4428750Y-11145917D01*
X4438274Y-11107821D01*
X4447798Y-11088774D01*
X4457321Y-11079250D01*
X4476369Y-11069726D01*
X4619226Y-11069726D02*
X4619226Y-11107821D01*
X4695417Y-11069726D02*
X4695417Y-11107821D01*
X4990655Y-11345917D02*
X4981131Y-11336393D01*
X4962083Y-11307821D01*
X4952560Y-11288774D01*
X4943036Y-11260202D01*
X4933512Y-11212583D01*
X4933512Y-11174488D01*
X4943036Y-11126869D01*
X4952560Y-11098298D01*
X4962083Y-11079250D01*
X4981131Y-11050679D01*
X4990655Y-11041155D01*
X5057321Y-11088774D02*
X5066845Y-11079250D01*
X5085893Y-11069726D01*
X5133512Y-11069726D01*
X5152560Y-11079250D01*
X5162083Y-11088774D01*
X5171607Y-11107821D01*
X5171607Y-11126869D01*
X5162083Y-11155440D01*
X5047798Y-11269726D01*
X5171607Y-11269726D01*
X5266845Y-11269726D02*
X5304940Y-11269726D01*
X5323988Y-11260202D01*
X5333512Y-11250678D01*
X5352560Y-11222107D01*
X5362083Y-11184012D01*
X5362083Y-11107821D01*
X5352560Y-11088774D01*
X5343036Y-11079250D01*
X5323988Y-11069726D01*
X5285893Y-11069726D01*
X5266845Y-11079250D01*
X5257321Y-11088774D01*
X5247798Y-11107821D01*
X5247798Y-11155440D01*
X5257321Y-11174488D01*
X5266845Y-11184012D01*
X5285893Y-11193536D01*
X5323988Y-11193536D01*
X5343036Y-11184012D01*
X5352560Y-11174488D01*
X5362083Y-11155440D01*
X5600178Y-11269726D02*
X5600178Y-11069726D01*
X5685893Y-11269726D02*
X5685893Y-11164964D01*
X5676369Y-11145917D01*
X5657321Y-11136393D01*
X5628750Y-11136393D01*
X5609702Y-11145917D01*
X5600178Y-11155440D01*
X5809702Y-11269726D02*
X5790655Y-11260202D01*
X5781131Y-11250678D01*
X5771607Y-11231631D01*
X5771607Y-11174488D01*
X5781131Y-11155440D01*
X5790655Y-11145917D01*
X5809702Y-11136393D01*
X5838274Y-11136393D01*
X5857321Y-11145917D01*
X5866845Y-11155440D01*
X5876369Y-11174488D01*
X5876369Y-11231631D01*
X5866845Y-11250678D01*
X5857321Y-11260202D01*
X5838274Y-11269726D01*
X5809702Y-11269726D01*
X5990655Y-11269726D02*
X5971607Y-11260202D01*
X5962083Y-11241155D01*
X5962083Y-11069726D01*
X6143036Y-11260202D02*
X6123988Y-11269726D01*
X6085893Y-11269726D01*
X6066845Y-11260202D01*
X6057321Y-11241155D01*
X6057321Y-11164964D01*
X6066845Y-11145917D01*
X6085893Y-11136393D01*
X6123988Y-11136393D01*
X6143036Y-11145917D01*
X6152559Y-11164964D01*
X6152559Y-11184012D01*
X6057321Y-11203059D01*
X6228750Y-11260202D02*
X6247798Y-11269726D01*
X6285893Y-11269726D01*
X6304940Y-11260202D01*
X6314464Y-11241155D01*
X6314464Y-11231631D01*
X6304940Y-11212583D01*
X6285893Y-11203059D01*
X6257321Y-11203059D01*
X6238274Y-11193536D01*
X6228750Y-11174488D01*
X6228750Y-11164964D01*
X6238274Y-11145917D01*
X6257321Y-11136393D01*
X6285893Y-11136393D01*
X6304940Y-11145917D01*
X6381131Y-11345917D02*
X6390655Y-11336393D01*
X6409702Y-11307821D01*
X6419226Y-11288774D01*
X6428750Y-11260202D01*
X6438274Y-11212583D01*
X6438274Y-11174488D01*
X6428750Y-11126869D01*
X6419226Y-11098298D01*
X6409702Y-11079250D01*
X6390655Y-11050679D01*
X6381131Y-11041155D01*
D15*
X1396784Y-11496283D02*
X1396784Y-11390216D01*
X1290717Y-11390216D01*
X1290717Y-11496283D01*
X1396784Y-11496283D01*
D11*
X1781131Y-11533726D02*
X1666845Y-11533726D01*
X1723988Y-11533726D02*
X1723988Y-11333726D01*
X1704940Y-11362298D01*
X1685893Y-11381345D01*
X1666845Y-11390869D01*
X1866845Y-11514678D02*
X1876369Y-11524202D01*
X1866845Y-11533726D01*
X1857321Y-11524202D01*
X1866845Y-11514678D01*
X1866845Y-11533726D01*
X2057321Y-11333726D02*
X1962083Y-11333726D01*
X1952559Y-11428964D01*
X1962083Y-11419440D01*
X1981131Y-11409917D01*
X2028750Y-11409917D01*
X2047798Y-11419440D01*
X2057321Y-11428964D01*
X2066845Y-11448012D01*
X2066845Y-11495631D01*
X2057321Y-11514678D01*
X2047798Y-11524202D01*
X2028750Y-11533726D01*
X1981131Y-11533726D01*
X1962083Y-11524202D01*
X1952559Y-11514678D01*
X2190655Y-11333726D02*
X2209702Y-11333726D01*
X2228750Y-11343250D01*
X2238274Y-11352774D01*
X2247798Y-11371821D01*
X2257321Y-11409917D01*
X2257321Y-11457536D01*
X2247798Y-11495631D01*
X2238274Y-11514678D01*
X2228750Y-11524202D01*
X2209702Y-11533726D01*
X2190655Y-11533726D01*
X2171607Y-11524202D01*
X2162083Y-11514678D01*
X2152560Y-11495631D01*
X2143036Y-11457536D01*
X2143036Y-11409917D01*
X2152560Y-11371821D01*
X2162083Y-11352774D01*
X2171607Y-11343250D01*
X2190655Y-11333726D01*
X2381131Y-11333726D02*
X2400179Y-11333726D01*
X2419226Y-11343250D01*
X2428750Y-11352774D01*
X2438274Y-11371821D01*
X2447798Y-11409917D01*
X2447798Y-11457536D01*
X2438274Y-11495631D01*
X2428750Y-11514678D01*
X2419226Y-11524202D01*
X2400179Y-11533726D01*
X2381131Y-11533726D01*
X2362083Y-11524202D01*
X2352560Y-11514678D01*
X2343036Y-11495631D01*
X2333512Y-11457536D01*
X2333512Y-11409917D01*
X2343036Y-11371821D01*
X2352560Y-11352774D01*
X2362083Y-11343250D01*
X2381131Y-11333726D01*
X2533512Y-11533726D02*
X2533512Y-11400393D01*
X2533512Y-11419440D02*
X2543036Y-11409917D01*
X2562083Y-11400393D01*
X2590655Y-11400393D01*
X2609702Y-11409917D01*
X2619226Y-11428964D01*
X2619226Y-11533726D01*
X2619226Y-11428964D02*
X2628750Y-11409917D01*
X2647798Y-11400393D01*
X2676369Y-11400393D01*
X2695417Y-11409917D01*
X2704940Y-11428964D01*
X2704940Y-11533726D01*
X2800178Y-11533726D02*
X2800178Y-11400393D01*
X2800178Y-11419440D02*
X2809702Y-11409917D01*
X2828750Y-11400393D01*
X2857321Y-11400393D01*
X2876369Y-11409917D01*
X2885893Y-11428964D01*
X2885893Y-11533726D01*
X2885893Y-11428964D02*
X2895417Y-11409917D01*
X2914464Y-11400393D01*
X2943036Y-11400393D01*
X2962083Y-11409917D01*
X2971607Y-11428964D01*
X2971607Y-11533726D01*
X3362083Y-11324202D02*
X3190655Y-11581345D01*
X3619226Y-11333726D02*
X3638274Y-11333726D01*
X3657321Y-11343250D01*
X3666845Y-11352774D01*
X3676369Y-11371821D01*
X3685893Y-11409917D01*
X3685893Y-11457536D01*
X3676369Y-11495631D01*
X3666845Y-11514678D01*
X3657321Y-11524202D01*
X3638274Y-11533726D01*
X3619226Y-11533726D01*
X3600178Y-11524202D01*
X3590655Y-11514678D01*
X3581131Y-11495631D01*
X3571607Y-11457536D01*
X3571607Y-11409917D01*
X3581131Y-11371821D01*
X3590655Y-11352774D01*
X3600178Y-11343250D01*
X3619226Y-11333726D01*
X3771607Y-11514678D02*
X3781131Y-11524202D01*
X3771607Y-11533726D01*
X3762083Y-11524202D01*
X3771607Y-11514678D01*
X3771607Y-11533726D01*
X3904940Y-11333726D02*
X3923988Y-11333726D01*
X3943036Y-11343250D01*
X3952559Y-11352774D01*
X3962083Y-11371821D01*
X3971607Y-11409917D01*
X3971607Y-11457536D01*
X3962083Y-11495631D01*
X3952559Y-11514678D01*
X3943036Y-11524202D01*
X3923988Y-11533726D01*
X3904940Y-11533726D01*
X3885893Y-11524202D01*
X3876369Y-11514678D01*
X3866845Y-11495631D01*
X3857321Y-11457536D01*
X3857321Y-11409917D01*
X3866845Y-11371821D01*
X3876369Y-11352774D01*
X3885893Y-11343250D01*
X3904940Y-11333726D01*
X4152559Y-11333726D02*
X4057321Y-11333726D01*
X4047798Y-11428964D01*
X4057321Y-11419440D01*
X4076369Y-11409917D01*
X4123988Y-11409917D01*
X4143036Y-11419440D01*
X4152559Y-11428964D01*
X4162083Y-11448012D01*
X4162083Y-11495631D01*
X4152559Y-11514678D01*
X4143036Y-11524202D01*
X4123988Y-11533726D01*
X4076369Y-11533726D01*
X4057321Y-11524202D01*
X4047798Y-11514678D01*
X4257321Y-11533726D02*
X4295417Y-11533726D01*
X4314464Y-11524202D01*
X4323988Y-11514678D01*
X4343036Y-11486107D01*
X4352560Y-11448012D01*
X4352560Y-11371821D01*
X4343036Y-11352774D01*
X4333512Y-11343250D01*
X4314464Y-11333726D01*
X4276369Y-11333726D01*
X4257321Y-11343250D01*
X4247798Y-11352774D01*
X4238274Y-11371821D01*
X4238274Y-11419440D01*
X4247798Y-11438488D01*
X4257321Y-11448012D01*
X4276369Y-11457536D01*
X4314464Y-11457536D01*
X4333512Y-11448012D01*
X4343036Y-11438488D01*
X4352560Y-11419440D01*
X4543036Y-11533726D02*
X4428750Y-11533726D01*
X4485893Y-11533726D02*
X4485893Y-11333726D01*
X4466845Y-11362298D01*
X4447798Y-11381345D01*
X4428750Y-11390869D01*
X4619226Y-11333726D02*
X4619226Y-11371821D01*
X4695417Y-11333726D02*
X4695417Y-11371821D01*
X4990655Y-11609917D02*
X4981131Y-11600393D01*
X4962083Y-11571821D01*
X4952560Y-11552774D01*
X4943036Y-11524202D01*
X4933512Y-11476583D01*
X4933512Y-11438488D01*
X4943036Y-11390869D01*
X4952560Y-11362298D01*
X4962083Y-11343250D01*
X4981131Y-11314678D01*
X4990655Y-11305155D01*
X5104940Y-11333726D02*
X5123988Y-11333726D01*
X5143036Y-11343250D01*
X5152560Y-11352774D01*
X5162083Y-11371821D01*
X5171607Y-11409917D01*
X5171607Y-11457536D01*
X5162083Y-11495631D01*
X5152560Y-11514678D01*
X5143036Y-11524202D01*
X5123988Y-11533726D01*
X5104940Y-11533726D01*
X5085893Y-11524202D01*
X5076369Y-11514678D01*
X5066845Y-11495631D01*
X5057321Y-11457536D01*
X5057321Y-11409917D01*
X5066845Y-11371821D01*
X5076369Y-11352774D01*
X5085893Y-11343250D01*
X5104940Y-11333726D01*
X5409702Y-11533726D02*
X5409702Y-11333726D01*
X5495417Y-11533726D02*
X5495417Y-11428964D01*
X5485893Y-11409917D01*
X5466845Y-11400393D01*
X5438274Y-11400393D01*
X5419226Y-11409917D01*
X5409702Y-11419440D01*
X5619226Y-11533726D02*
X5600178Y-11524202D01*
X5590655Y-11514678D01*
X5581131Y-11495631D01*
X5581131Y-11438488D01*
X5590655Y-11419440D01*
X5600178Y-11409917D01*
X5619226Y-11400393D01*
X5647798Y-11400393D01*
X5666845Y-11409917D01*
X5676369Y-11419440D01*
X5685893Y-11438488D01*
X5685893Y-11495631D01*
X5676369Y-11514678D01*
X5666845Y-11524202D01*
X5647798Y-11533726D01*
X5619226Y-11533726D01*
X5800178Y-11533726D02*
X5781131Y-11524202D01*
X5771607Y-11505155D01*
X5771607Y-11333726D01*
X5952559Y-11524202D02*
X5933512Y-11533726D01*
X5895417Y-11533726D01*
X5876369Y-11524202D01*
X5866845Y-11505155D01*
X5866845Y-11428964D01*
X5876369Y-11409917D01*
X5895417Y-11400393D01*
X5933512Y-11400393D01*
X5952559Y-11409917D01*
X5962083Y-11428964D01*
X5962083Y-11448012D01*
X5866845Y-11467059D01*
X6038274Y-11524202D02*
X6057321Y-11533726D01*
X6095417Y-11533726D01*
X6114464Y-11524202D01*
X6123988Y-11505155D01*
X6123988Y-11495631D01*
X6114464Y-11476583D01*
X6095417Y-11467059D01*
X6066845Y-11467059D01*
X6047798Y-11457536D01*
X6038274Y-11438488D01*
X6038274Y-11428964D01*
X6047798Y-11409917D01*
X6066845Y-11400393D01*
X6095417Y-11400393D01*
X6114464Y-11409917D01*
X6362083Y-11457536D02*
X6514464Y-11457536D01*
X6438274Y-11533726D02*
X6438274Y-11381345D01*
X6752559Y-11352774D02*
X6762083Y-11343250D01*
X6781131Y-11333726D01*
X6828750Y-11333726D01*
X6847798Y-11343250D01*
X6857321Y-11352774D01*
X6866845Y-11371821D01*
X6866845Y-11390869D01*
X6857321Y-11419440D01*
X6743036Y-11533726D01*
X6866845Y-11533726D01*
X7095417Y-11524202D02*
X7114464Y-11533726D01*
X7152559Y-11533726D01*
X7171607Y-11524202D01*
X7181131Y-11505155D01*
X7181131Y-11495631D01*
X7171607Y-11476583D01*
X7152559Y-11467059D01*
X7123988Y-11467059D01*
X7104940Y-11457536D01*
X7095417Y-11438488D01*
X7095417Y-11428964D01*
X7104940Y-11409917D01*
X7123988Y-11400393D01*
X7152559Y-11400393D01*
X7171607Y-11409917D01*
X7295417Y-11533726D02*
X7276369Y-11524202D01*
X7266845Y-11505155D01*
X7266845Y-11333726D01*
X7400178Y-11533726D02*
X7381131Y-11524202D01*
X7371607Y-11514678D01*
X7362083Y-11495631D01*
X7362083Y-11438488D01*
X7371607Y-11419440D01*
X7381131Y-11409917D01*
X7400178Y-11400393D01*
X7428750Y-11400393D01*
X7447798Y-11409917D01*
X7457321Y-11419440D01*
X7466845Y-11438488D01*
X7466845Y-11495631D01*
X7457321Y-11514678D01*
X7447798Y-11524202D01*
X7428750Y-11533726D01*
X7400178Y-11533726D01*
X7523988Y-11400393D02*
X7600178Y-11400393D01*
X7552559Y-11333726D02*
X7552559Y-11505155D01*
X7562083Y-11524202D01*
X7581131Y-11533726D01*
X7600178Y-11533726D01*
X7657321Y-11524202D02*
X7676369Y-11533726D01*
X7714464Y-11533726D01*
X7733512Y-11524202D01*
X7743036Y-11505155D01*
X7743036Y-11495631D01*
X7733512Y-11476583D01*
X7714464Y-11467059D01*
X7685893Y-11467059D01*
X7666845Y-11457536D01*
X7657321Y-11438488D01*
X7657321Y-11428964D01*
X7666845Y-11409917D01*
X7685893Y-11400393D01*
X7714464Y-11400393D01*
X7733512Y-11409917D01*
X7809702Y-11609917D02*
X7819226Y-11600393D01*
X7838274Y-11571821D01*
X7847798Y-11552774D01*
X7857321Y-11524202D01*
X7866845Y-11476583D01*
X7866845Y-11438488D01*
X7857321Y-11390869D01*
X7847798Y-11362298D01*
X7838274Y-11343250D01*
X7819226Y-11314678D01*
X7809702Y-11305155D01*
X1318750Y-11813250D02*
X1418750Y-11713250D01*
X1318750Y-11613250D01*
X1218750Y-11713250D01*
X1318750Y-11813250D01*
X1666845Y-11622774D02*
X1676369Y-11613250D01*
X1695417Y-11603726D01*
X1743036Y-11603726D01*
X1762083Y-11613250D01*
X1771607Y-11622774D01*
X1781131Y-11641821D01*
X1781131Y-11660869D01*
X1771607Y-11689440D01*
X1657321Y-11803726D01*
X1781131Y-11803726D01*
X1866845Y-11784678D02*
X1876369Y-11794202D01*
X1866845Y-11803726D01*
X1857321Y-11794202D01*
X1866845Y-11784678D01*
X1866845Y-11803726D01*
X1952559Y-11622774D02*
X1962083Y-11613250D01*
X1981131Y-11603726D01*
X2028750Y-11603726D01*
X2047798Y-11613250D01*
X2057321Y-11622774D01*
X2066845Y-11641821D01*
X2066845Y-11660869D01*
X2057321Y-11689440D01*
X1943036Y-11803726D01*
X2066845Y-11803726D01*
X2190655Y-11603726D02*
X2209702Y-11603726D01*
X2228750Y-11613250D01*
X2238274Y-11622774D01*
X2247798Y-11641821D01*
X2257321Y-11679917D01*
X2257321Y-11727536D01*
X2247798Y-11765631D01*
X2238274Y-11784678D01*
X2228750Y-11794202D01*
X2209702Y-11803726D01*
X2190655Y-11803726D01*
X2171607Y-11794202D01*
X2162083Y-11784678D01*
X2152560Y-11765631D01*
X2143036Y-11727536D01*
X2143036Y-11679917D01*
X2152560Y-11641821D01*
X2162083Y-11622774D01*
X2171607Y-11613250D01*
X2190655Y-11603726D01*
X2381131Y-11603726D02*
X2400179Y-11603726D01*
X2419226Y-11613250D01*
X2428750Y-11622774D01*
X2438274Y-11641821D01*
X2447798Y-11679917D01*
X2447798Y-11727536D01*
X2438274Y-11765631D01*
X2428750Y-11784678D01*
X2419226Y-11794202D01*
X2400179Y-11803726D01*
X2381131Y-11803726D01*
X2362083Y-11794202D01*
X2352560Y-11784678D01*
X2343036Y-11765631D01*
X2333512Y-11727536D01*
X2333512Y-11679917D01*
X2343036Y-11641821D01*
X2352560Y-11622774D01*
X2362083Y-11613250D01*
X2381131Y-11603726D01*
X2533512Y-11803726D02*
X2533512Y-11670393D01*
X2533512Y-11689440D02*
X2543036Y-11679917D01*
X2562083Y-11670393D01*
X2590655Y-11670393D01*
X2609702Y-11679917D01*
X2619226Y-11698964D01*
X2619226Y-11803726D01*
X2619226Y-11698964D02*
X2628750Y-11679917D01*
X2647798Y-11670393D01*
X2676369Y-11670393D01*
X2695417Y-11679917D01*
X2704940Y-11698964D01*
X2704940Y-11803726D01*
X2800178Y-11803726D02*
X2800178Y-11670393D01*
X2800178Y-11689440D02*
X2809702Y-11679917D01*
X2828750Y-11670393D01*
X2857321Y-11670393D01*
X2876369Y-11679917D01*
X2885893Y-11698964D01*
X2885893Y-11803726D01*
X2885893Y-11698964D02*
X2895417Y-11679917D01*
X2914464Y-11670393D01*
X2943036Y-11670393D01*
X2962083Y-11679917D01*
X2971607Y-11698964D01*
X2971607Y-11803726D01*
X3362083Y-11594202D02*
X3190655Y-11851345D01*
X3619226Y-11603726D02*
X3638274Y-11603726D01*
X3657321Y-11613250D01*
X3666845Y-11622774D01*
X3676369Y-11641821D01*
X3685893Y-11679917D01*
X3685893Y-11727536D01*
X3676369Y-11765631D01*
X3666845Y-11784678D01*
X3657321Y-11794202D01*
X3638274Y-11803726D01*
X3619226Y-11803726D01*
X3600178Y-11794202D01*
X3590655Y-11784678D01*
X3581131Y-11765631D01*
X3571607Y-11727536D01*
X3571607Y-11679917D01*
X3581131Y-11641821D01*
X3590655Y-11622774D01*
X3600178Y-11613250D01*
X3619226Y-11603726D01*
X3771607Y-11784678D02*
X3781131Y-11794202D01*
X3771607Y-11803726D01*
X3762083Y-11794202D01*
X3771607Y-11784678D01*
X3771607Y-11803726D01*
X3904940Y-11603726D02*
X3923988Y-11603726D01*
X3943036Y-11613250D01*
X3952559Y-11622774D01*
X3962083Y-11641821D01*
X3971607Y-11679917D01*
X3971607Y-11727536D01*
X3962083Y-11765631D01*
X3952559Y-11784678D01*
X3943036Y-11794202D01*
X3923988Y-11803726D01*
X3904940Y-11803726D01*
X3885893Y-11794202D01*
X3876369Y-11784678D01*
X3866845Y-11765631D01*
X3857321Y-11727536D01*
X3857321Y-11679917D01*
X3866845Y-11641821D01*
X3876369Y-11622774D01*
X3885893Y-11613250D01*
X3904940Y-11603726D01*
X4085893Y-11689440D02*
X4066845Y-11679917D01*
X4057321Y-11670393D01*
X4047798Y-11651345D01*
X4047798Y-11641821D01*
X4057321Y-11622774D01*
X4066845Y-11613250D01*
X4085893Y-11603726D01*
X4123988Y-11603726D01*
X4143036Y-11613250D01*
X4152559Y-11622774D01*
X4162083Y-11641821D01*
X4162083Y-11651345D01*
X4152559Y-11670393D01*
X4143036Y-11679917D01*
X4123988Y-11689440D01*
X4085893Y-11689440D01*
X4066845Y-11698964D01*
X4057321Y-11708488D01*
X4047798Y-11727536D01*
X4047798Y-11765631D01*
X4057321Y-11784678D01*
X4066845Y-11794202D01*
X4085893Y-11803726D01*
X4123988Y-11803726D01*
X4143036Y-11794202D01*
X4152559Y-11784678D01*
X4162083Y-11765631D01*
X4162083Y-11727536D01*
X4152559Y-11708488D01*
X4143036Y-11698964D01*
X4123988Y-11689440D01*
X4333512Y-11603726D02*
X4295417Y-11603726D01*
X4276369Y-11613250D01*
X4266845Y-11622774D01*
X4247798Y-11651345D01*
X4238274Y-11689440D01*
X4238274Y-11765631D01*
X4247798Y-11784678D01*
X4257321Y-11794202D01*
X4276369Y-11803726D01*
X4314464Y-11803726D01*
X4333512Y-11794202D01*
X4343036Y-11784678D01*
X4352560Y-11765631D01*
X4352560Y-11718012D01*
X4343036Y-11698964D01*
X4333512Y-11689440D01*
X4314464Y-11679917D01*
X4276369Y-11679917D01*
X4257321Y-11689440D01*
X4247798Y-11698964D01*
X4238274Y-11718012D01*
X4523988Y-11603726D02*
X4485893Y-11603726D01*
X4466845Y-11613250D01*
X4457321Y-11622774D01*
X4438274Y-11651345D01*
X4428750Y-11689440D01*
X4428750Y-11765631D01*
X4438274Y-11784678D01*
X4447798Y-11794202D01*
X4466845Y-11803726D01*
X4504940Y-11803726D01*
X4523988Y-11794202D01*
X4533512Y-11784678D01*
X4543036Y-11765631D01*
X4543036Y-11718012D01*
X4533512Y-11698964D01*
X4523988Y-11689440D01*
X4504940Y-11679917D01*
X4466845Y-11679917D01*
X4447798Y-11689440D01*
X4438274Y-11698964D01*
X4428750Y-11718012D01*
X4619226Y-11603726D02*
X4619226Y-11641821D01*
X4695417Y-11603726D02*
X4695417Y-11641821D01*
X4990655Y-11879917D02*
X4981131Y-11870393D01*
X4962083Y-11841821D01*
X4952560Y-11822774D01*
X4943036Y-11794202D01*
X4933512Y-11746583D01*
X4933512Y-11708488D01*
X4943036Y-11660869D01*
X4952560Y-11632298D01*
X4962083Y-11613250D01*
X4981131Y-11584678D01*
X4990655Y-11575155D01*
X5152560Y-11670393D02*
X5152560Y-11803726D01*
X5104940Y-11594202D02*
X5057321Y-11737059D01*
X5181131Y-11737059D01*
X5409702Y-11803726D02*
X5409702Y-11603726D01*
X5495417Y-11803726D02*
X5495417Y-11698964D01*
X5485893Y-11679917D01*
X5466845Y-11670393D01*
X5438274Y-11670393D01*
X5419226Y-11679917D01*
X5409702Y-11689440D01*
X5619226Y-11803726D02*
X5600178Y-11794202D01*
X5590655Y-11784678D01*
X5581131Y-11765631D01*
X5581131Y-11708488D01*
X5590655Y-11689440D01*
X5600178Y-11679917D01*
X5619226Y-11670393D01*
X5647798Y-11670393D01*
X5666845Y-11679917D01*
X5676369Y-11689440D01*
X5685893Y-11708488D01*
X5685893Y-11765631D01*
X5676369Y-11784678D01*
X5666845Y-11794202D01*
X5647798Y-11803726D01*
X5619226Y-11803726D01*
X5800178Y-11803726D02*
X5781131Y-11794202D01*
X5771607Y-11775155D01*
X5771607Y-11603726D01*
X5952559Y-11794202D02*
X5933512Y-11803726D01*
X5895417Y-11803726D01*
X5876369Y-11794202D01*
X5866845Y-11775155D01*
X5866845Y-11698964D01*
X5876369Y-11679917D01*
X5895417Y-11670393D01*
X5933512Y-11670393D01*
X5952559Y-11679917D01*
X5962083Y-11698964D01*
X5962083Y-11718012D01*
X5866845Y-11737059D01*
X6038274Y-11794202D02*
X6057321Y-11803726D01*
X6095417Y-11803726D01*
X6114464Y-11794202D01*
X6123988Y-11775155D01*
X6123988Y-11765631D01*
X6114464Y-11746583D01*
X6095417Y-11737059D01*
X6066845Y-11737059D01*
X6047798Y-11727536D01*
X6038274Y-11708488D01*
X6038274Y-11698964D01*
X6047798Y-11679917D01*
X6066845Y-11670393D01*
X6095417Y-11670393D01*
X6114464Y-11679917D01*
X6190655Y-11879917D02*
X6200178Y-11870393D01*
X6219226Y-11841821D01*
X6228750Y-11822774D01*
X6238274Y-11794202D01*
X6247798Y-11746583D01*
X6247798Y-11708488D01*
X6238274Y-11660869D01*
X6228750Y-11632298D01*
X6219226Y-11613250D01*
X6200178Y-11584678D01*
X6190655Y-11575155D01*
M02*
