G04 #@! TF.GenerationSoftware,KiCad,Pcbnew,(6.0.1-0)*
G04 #@! TF.CreationDate,2022-06-20T08:18:33-07:00*
G04 #@! TF.ProjectId,pcb,7063622e-6b69-4636-9164-5f7063625858,rev?*
G04 #@! TF.SameCoordinates,Original*
G04 #@! TF.FileFunction,Soldermask,Bot*
G04 #@! TF.FilePolarity,Negative*
%FSLAX46Y46*%
G04 Gerber Fmt 4.6, Leading zero omitted, Abs format (unit mm)*
G04 Created by KiCad (PCBNEW (6.0.1-0)) date 2022-06-20 08:18:33*
%MOMM*%
%LPD*%
G01*
G04 APERTURE LIST*
%ADD10C,3.000000*%
%ADD11C,3.987800*%
%ADD12C,1.750000*%
%ADD13R,2.550000X2.500000*%
%ADD14C,4.400000*%
%ADD15R,2.000000X2.000000*%
%ADD16C,2.000000*%
%ADD17R,3.200000X2.000000*%
%ADD18C,3.048000*%
%ADD19R,1.700000X1.700000*%
%ADD20O,1.700000X1.700000*%
%ADD21R,0.800000X1.900000*%
%ADD22R,1.752600X1.752600*%
%ADD23R,3.250000X2.000000*%
%ADD24C,1.752600*%
%ADD25R,2.000000X3.250000*%
G04 APERTURE END LIST*
D10*
X58102500Y-45085000D03*
X64452500Y-42545000D03*
D11*
X61912500Y-47625000D03*
D12*
X56832500Y-47625000D03*
X66992500Y-47625000D03*
D13*
X54827500Y-45085000D03*
X67754500Y-42545000D03*
D14*
X33337500Y-76200000D03*
D10*
X93027500Y-61595000D03*
D12*
X95567500Y-66675000D03*
D11*
X90487500Y-66675000D03*
D12*
X85407500Y-66675000D03*
D10*
X86677500Y-64135000D03*
D13*
X83402500Y-64135000D03*
X96329500Y-61595000D03*
D10*
X50165000Y-18732500D03*
D11*
X47625000Y-23812500D03*
D10*
X43815000Y-21272500D03*
D12*
X52705000Y-23812500D03*
X42545000Y-23812500D03*
D13*
X40540000Y-21272500D03*
X53467000Y-18732500D03*
D10*
X48577500Y-64135000D03*
D12*
X47307500Y-66675000D03*
D11*
X52387500Y-66675000D03*
D12*
X57467500Y-66675000D03*
D10*
X54927500Y-61595000D03*
D13*
X45302500Y-64135000D03*
X58229500Y-61595000D03*
D14*
X185737500Y-36512500D03*
D12*
X114617500Y-23812500D03*
D10*
X105727500Y-21272500D03*
D11*
X109537500Y-23812500D03*
D12*
X104457500Y-23812500D03*
D10*
X112077500Y-18732500D03*
D13*
X102452500Y-21272500D03*
X115379500Y-18732500D03*
D15*
X187768750Y-21312500D03*
D16*
X187768750Y-26312500D03*
X187768750Y-23812500D03*
D17*
X195268750Y-29412500D03*
X195268750Y-18212500D03*
D16*
X202268750Y-26312500D03*
X202268750Y-21312500D03*
D10*
X20002500Y-45085000D03*
D12*
X18732500Y-47625000D03*
X28892500Y-47625000D03*
D10*
X26352500Y-42545000D03*
D11*
X23812500Y-47625000D03*
D13*
X16727500Y-45085000D03*
X29654500Y-42545000D03*
D11*
X71437500Y-66675000D03*
D12*
X66357500Y-66675000D03*
D10*
X67627500Y-64135000D03*
D12*
X76517500Y-66675000D03*
D10*
X73977500Y-61595000D03*
D13*
X64352500Y-64135000D03*
X77279500Y-61595000D03*
D11*
X85725000Y-85725000D03*
D12*
X90805000Y-85725000D03*
D11*
X66675000Y-93980000D03*
D10*
X88265000Y-80645000D03*
D18*
X66675000Y-78740000D03*
D12*
X80645000Y-85725000D03*
D10*
X81915000Y-83185000D03*
D11*
X104775000Y-93980000D03*
D18*
X104775000Y-78740000D03*
D13*
X78640000Y-83185000D03*
X91567000Y-80645000D03*
D11*
X85725000Y-23812500D03*
D12*
X80645000Y-23812500D03*
D10*
X81915000Y-21272500D03*
X88265000Y-18732500D03*
D12*
X90805000Y-23812500D03*
D13*
X78640000Y-21272500D03*
X91567000Y-18732500D03*
D12*
X114617500Y-66675000D03*
D10*
X105727500Y-64135000D03*
D11*
X109537500Y-66675000D03*
D10*
X112077500Y-61595000D03*
D12*
X104457500Y-66675000D03*
D13*
X102452500Y-64135000D03*
X115379500Y-61595000D03*
D12*
X185420000Y-90487500D03*
D10*
X193040000Y-85407500D03*
X186690000Y-87947500D03*
D12*
X195580000Y-90487500D03*
D11*
X190500000Y-90487500D03*
D13*
X183415000Y-87947500D03*
X196342000Y-85407500D03*
D10*
X83502500Y-42545000D03*
D11*
X80962500Y-47625000D03*
D10*
X77152500Y-45085000D03*
D12*
X75882500Y-47625000D03*
X86042500Y-47625000D03*
D13*
X73877500Y-45085000D03*
X86804500Y-42545000D03*
D14*
X185737500Y-76200000D03*
D10*
X62865000Y-21272500D03*
D11*
X66675000Y-23812500D03*
D10*
X69215000Y-18732500D03*
D12*
X61595000Y-23812500D03*
X71755000Y-23812500D03*
D13*
X59590000Y-21272500D03*
X72517000Y-18732500D03*
D10*
X197802500Y-42545000D03*
D11*
X195262500Y-47625000D03*
D12*
X190182500Y-47625000D03*
D10*
X191452500Y-45085000D03*
D12*
X200342500Y-47625000D03*
D13*
X188177500Y-45085000D03*
X201104500Y-42545000D03*
D10*
X145415000Y-42545000D03*
D12*
X137795000Y-47625000D03*
D11*
X142875000Y-47625000D03*
D10*
X139065000Y-45085000D03*
D12*
X147955000Y-47625000D03*
D13*
X135790000Y-45085000D03*
X148717000Y-42545000D03*
D12*
X105092500Y-47625000D03*
X94932500Y-47625000D03*
D10*
X102552500Y-42545000D03*
X96202500Y-45085000D03*
D11*
X100012500Y-47625000D03*
D13*
X92927500Y-45085000D03*
X105854500Y-42545000D03*
D12*
X47942500Y-47625000D03*
D10*
X39052500Y-45085000D03*
D11*
X42862500Y-47625000D03*
D10*
X45402500Y-42545000D03*
D12*
X37782500Y-47625000D03*
D13*
X35777500Y-45085000D03*
X48704500Y-42545000D03*
D12*
X131286250Y-85725000D03*
D10*
X128746250Y-80645000D03*
D12*
X121126250Y-85725000D03*
D11*
X126206250Y-85725000D03*
D10*
X122396250Y-83185000D03*
D13*
X119121250Y-83185000D03*
X132048250Y-80645000D03*
D11*
X23812500Y-23812500D03*
D10*
X26352500Y-18732500D03*
D12*
X18732500Y-23812500D03*
D10*
X20002500Y-21272500D03*
D12*
X28892500Y-23812500D03*
D13*
X16727500Y-21272500D03*
X29654500Y-18732500D03*
D10*
X150177500Y-18732500D03*
D12*
X142557500Y-23812500D03*
D11*
X147637500Y-23812500D03*
D10*
X143827500Y-21272500D03*
D12*
X152717500Y-23812500D03*
D13*
X140552500Y-21272500D03*
X153479500Y-18732500D03*
D10*
X20002500Y-83185000D03*
X26352500Y-80645000D03*
D12*
X18732500Y-85725000D03*
X28892500Y-85725000D03*
D11*
X23812500Y-85725000D03*
D13*
X16727500Y-83185000D03*
X29654500Y-80645000D03*
D10*
X167640000Y-87947500D03*
X173990000Y-85407500D03*
D11*
X171450000Y-90487500D03*
D12*
X176530000Y-90487500D03*
X166370000Y-90487500D03*
D13*
X164365000Y-87947500D03*
X177292000Y-85407500D03*
D12*
X147320000Y-90487500D03*
D10*
X154940000Y-85407500D03*
X148590000Y-87947500D03*
D11*
X152400000Y-90487500D03*
D12*
X157480000Y-90487500D03*
D13*
X145315000Y-87947500D03*
X158242000Y-85407500D03*
D10*
X115252500Y-45085000D03*
D11*
X119062500Y-47625000D03*
D10*
X121602500Y-42545000D03*
D12*
X124142500Y-47625000D03*
X113982500Y-47625000D03*
D13*
X111977500Y-45085000D03*
X124904500Y-42545000D03*
D12*
X190182500Y-66675000D03*
X200342500Y-66675000D03*
D11*
X195262500Y-66675000D03*
D10*
X197802500Y-61595000D03*
X191452500Y-64135000D03*
D13*
X188177500Y-64135000D03*
X201104500Y-61595000D03*
D10*
X131127500Y-18732500D03*
D11*
X128587500Y-23812500D03*
D10*
X124777500Y-21272500D03*
D12*
X123507500Y-23812500D03*
X133667500Y-23812500D03*
D13*
X121502500Y-21272500D03*
X134429500Y-18732500D03*
D12*
X143192500Y-66675000D03*
D11*
X138112500Y-66675000D03*
D12*
X133032500Y-66675000D03*
D11*
X150050500Y-74930000D03*
X126174500Y-74930000D03*
D10*
X134302500Y-64135000D03*
D18*
X150050500Y-59690000D03*
X126174500Y-59690000D03*
D10*
X140652500Y-61595000D03*
D13*
X131027500Y-64135000D03*
X143954500Y-61595000D03*
D11*
X45243750Y-85725000D03*
D12*
X40163750Y-85725000D03*
D10*
X41433750Y-83185000D03*
X47783750Y-80645000D03*
D12*
X50323750Y-85725000D03*
D13*
X38158750Y-83185000D03*
X51085750Y-80645000D03*
D19*
X175260000Y-51885750D03*
D20*
X172720000Y-51885750D03*
X170180000Y-51885750D03*
X167640000Y-51885750D03*
D12*
X176530000Y-71437500D03*
D11*
X171450000Y-71437500D03*
D12*
X166370000Y-71437500D03*
D10*
X167640000Y-68897500D03*
X173990000Y-66357500D03*
D13*
X164365000Y-68897500D03*
X177292000Y-66357500D03*
D11*
X28575000Y-66675000D03*
D10*
X31115000Y-61595000D03*
D12*
X23495000Y-66675000D03*
X33655000Y-66675000D03*
D10*
X24765000Y-64135000D03*
D13*
X21490000Y-64135000D03*
X34417000Y-61595000D03*
D14*
X33337500Y-36512500D03*
D21*
X33181250Y-88193750D03*
X35081250Y-88193750D03*
X34131250Y-91193750D03*
X113350000Y-88193750D03*
X115250000Y-88193750D03*
X114300000Y-91193750D03*
D22*
X179070000Y-18573750D03*
D23*
X180848000Y-18573750D03*
D24*
X179070000Y-21113750D03*
D23*
X180848000Y-21113750D03*
D24*
X179070000Y-23653750D03*
D23*
X180848000Y-23653750D03*
X180848000Y-26193750D03*
D24*
X179070000Y-26193750D03*
X179070000Y-28733750D03*
D23*
X180848000Y-28733750D03*
X180848000Y-31273750D03*
D24*
X179070000Y-31273750D03*
D23*
X180848000Y-33813750D03*
D24*
X179070000Y-33813750D03*
X179070000Y-36353750D03*
D23*
X180848000Y-36353750D03*
D24*
X179070000Y-38893750D03*
D23*
X180848000Y-38893750D03*
X180848000Y-41433750D03*
D24*
X179070000Y-41433750D03*
X179070000Y-43973750D03*
D23*
X180848000Y-43973750D03*
D24*
X179070000Y-46513750D03*
D23*
X180848000Y-46513750D03*
D24*
X163830000Y-46513750D03*
D23*
X162052000Y-46513750D03*
D24*
X163830000Y-43973750D03*
D23*
X162052000Y-43973750D03*
X162052000Y-41433750D03*
D24*
X163830000Y-41433750D03*
D23*
X162052000Y-38893750D03*
D24*
X163830000Y-38893750D03*
X163830000Y-36353750D03*
D23*
X162052000Y-36353750D03*
X162052000Y-33813750D03*
D24*
X163830000Y-33813750D03*
D23*
X162052000Y-31273750D03*
D24*
X163830000Y-31273750D03*
D23*
X162052000Y-28733750D03*
D24*
X163830000Y-28733750D03*
D23*
X162052000Y-26193750D03*
D24*
X163830000Y-26193750D03*
D23*
X162052000Y-23653750D03*
D24*
X163830000Y-23653750D03*
X163830000Y-21113750D03*
D23*
X162052000Y-21113750D03*
X162052000Y-18573750D03*
D24*
X163830000Y-18573750D03*
D25*
X176530000Y-48418750D03*
D24*
X176530000Y-46513750D03*
D25*
X173990000Y-48418750D03*
D24*
X173990000Y-46513750D03*
X171450000Y-46513750D03*
D25*
X171450000Y-48418750D03*
D24*
X168910000Y-46513750D03*
D25*
X168910000Y-48418750D03*
X166370000Y-48418750D03*
D24*
X166370000Y-46513750D03*
D21*
X118112500Y-26281250D03*
X120012500Y-26281250D03*
X119062500Y-29281250D03*
X75250000Y-26281250D03*
X77150000Y-26281250D03*
X76200000Y-29281250D03*
X186375000Y-30250000D03*
X188275000Y-30250000D03*
X187325000Y-33250000D03*
X41912500Y-69143750D03*
X43812500Y-69143750D03*
X42862500Y-72143750D03*
X80012500Y-69143750D03*
X81912500Y-69143750D03*
X80962500Y-72143750D03*
X70487500Y-50093750D03*
X72387500Y-50093750D03*
X71437500Y-53093750D03*
X199075000Y-92956250D03*
X200975000Y-92956250D03*
X200025000Y-95956250D03*
X184787500Y-69143750D03*
X186687500Y-69143750D03*
X185737500Y-72143750D03*
X160975000Y-92956250D03*
X162875000Y-92956250D03*
X161925000Y-95956250D03*
X32387500Y-50093750D03*
X34287500Y-50093750D03*
X33337500Y-53093750D03*
X32387500Y-26281250D03*
X34287500Y-26281250D03*
X33337500Y-29281250D03*
X184787500Y-50093750D03*
X186687500Y-50093750D03*
X185737500Y-53093750D03*
X118112500Y-69143750D03*
X120012500Y-69143750D03*
X119062500Y-72143750D03*
X108587500Y-50093750D03*
X110487500Y-50093750D03*
X109537500Y-53093750D03*
M02*
